%TF.GenerationSoftware,KiCad,Pcbnew,9.0.7-9.0.7~ubuntu22.04.1*%
%TF.CreationDate,2026-04-30T10:19:40-05:00*%
%TF.ProjectId,MDR-40 Breakout Board,4d44522d-3430-4204-9272-65616b6f7574,rev?*%
%TF.SameCoordinates,Original*%
%TF.FileFunction,Legend,Top*%
%TF.FilePolarity,Positive*%
%FSLAX46Y46*%
G04 Gerber Fmt 4.6, Leading zero omitted, Abs format (unit mm)*
G04 Created by KiCad (PCBNEW 9.0.7-9.0.7~ubuntu22.04.1) date 2026-04-30 10:19:40*
%MOMM*%
%LPD*%
G01*
G04 APERTURE LIST*
%ADD10C,0.152400*%
%ADD11C,0.250000*%
%ADD12C,0.240000*%
%ADD13C,0.150000*%
%ADD14C,0.508000*%
%ADD15C,0.120000*%
G04 APERTURE END LIST*
D10*
X110091933Y-79862213D02*
X110091933Y-78957641D01*
X110091933Y-79409927D02*
X111674933Y-79409927D01*
X111674933Y-79409927D02*
X111448790Y-79259165D01*
X111448790Y-79259165D02*
X111298028Y-79108403D01*
X111298028Y-79108403D02*
X111222647Y-78957641D01*
X109126392Y-78882260D02*
X109126392Y-79862213D01*
X109126392Y-79862213D02*
X108523344Y-79334546D01*
X108523344Y-79334546D02*
X108523344Y-79560689D01*
X108523344Y-79560689D02*
X108447963Y-79711451D01*
X108447963Y-79711451D02*
X108372582Y-79786832D01*
X108372582Y-79786832D02*
X108221820Y-79862213D01*
X108221820Y-79862213D02*
X107844915Y-79862213D01*
X107844915Y-79862213D02*
X107694153Y-79786832D01*
X107694153Y-79786832D02*
X107618773Y-79711451D01*
X107618773Y-79711451D02*
X107543392Y-79560689D01*
X107543392Y-79560689D02*
X107543392Y-79108403D01*
X107543392Y-79108403D02*
X107618773Y-78957641D01*
X107618773Y-78957641D02*
X107694153Y-78882260D01*
X106577851Y-79786832D02*
X106577851Y-79033022D01*
X106577851Y-79033022D02*
X105824041Y-78957641D01*
X105824041Y-78957641D02*
X105899422Y-79033022D01*
X105899422Y-79033022D02*
X105974803Y-79183784D01*
X105974803Y-79183784D02*
X105974803Y-79560689D01*
X105974803Y-79560689D02*
X105899422Y-79711451D01*
X105899422Y-79711451D02*
X105824041Y-79786832D01*
X105824041Y-79786832D02*
X105673279Y-79862213D01*
X105673279Y-79862213D02*
X105296374Y-79862213D01*
X105296374Y-79862213D02*
X105145612Y-79786832D01*
X105145612Y-79786832D02*
X105070232Y-79711451D01*
X105070232Y-79711451D02*
X104994851Y-79560689D01*
X104994851Y-79560689D02*
X104994851Y-79183784D01*
X104994851Y-79183784D02*
X105070232Y-79033022D01*
X105070232Y-79033022D02*
X105145612Y-78957641D01*
X104029310Y-78882260D02*
X104029310Y-79937594D01*
X104029310Y-79937594D02*
X102446310Y-79259165D01*
X99897769Y-79108403D02*
X99897769Y-79409927D01*
X99897769Y-79409927D02*
X99973150Y-79560689D01*
X99973150Y-79560689D02*
X100048530Y-79636070D01*
X100048530Y-79636070D02*
X100274673Y-79786832D01*
X100274673Y-79786832D02*
X100576197Y-79862213D01*
X100576197Y-79862213D02*
X101179245Y-79862213D01*
X101179245Y-79862213D02*
X101330007Y-79786832D01*
X101330007Y-79786832D02*
X101405388Y-79711451D01*
X101405388Y-79711451D02*
X101480769Y-79560689D01*
X101480769Y-79560689D02*
X101480769Y-79259165D01*
X101480769Y-79259165D02*
X101405388Y-79108403D01*
X101405388Y-79108403D02*
X101330007Y-79033022D01*
X101330007Y-79033022D02*
X101179245Y-78957641D01*
X101179245Y-78957641D02*
X100802340Y-78957641D01*
X100802340Y-78957641D02*
X100651578Y-79033022D01*
X100651578Y-79033022D02*
X100576197Y-79108403D01*
X100576197Y-79108403D02*
X100500816Y-79259165D01*
X100500816Y-79259165D02*
X100500816Y-79560689D01*
X100500816Y-79560689D02*
X100576197Y-79711451D01*
X100576197Y-79711451D02*
X100651578Y-79786832D01*
X100651578Y-79786832D02*
X100802340Y-79862213D01*
X97349228Y-78354594D02*
X97349228Y-77450022D01*
X97349228Y-77902308D02*
X98932228Y-77902308D01*
X98932228Y-77902308D02*
X98706085Y-77751546D01*
X98706085Y-77751546D02*
X98555323Y-77600784D01*
X98555323Y-77600784D02*
X98479942Y-77450022D01*
X97349228Y-79862213D02*
X97349228Y-78957641D01*
X97349228Y-79409927D02*
X98932228Y-79409927D01*
X98932228Y-79409927D02*
X98706085Y-79259165D01*
X98706085Y-79259165D02*
X98555323Y-79108403D01*
X98555323Y-79108403D02*
X98479942Y-78957641D01*
X94800687Y-78354594D02*
X94800687Y-77450022D01*
X94800687Y-77902308D02*
X96383687Y-77902308D01*
X96383687Y-77902308D02*
X96157544Y-77751546D01*
X96157544Y-77751546D02*
X96006782Y-77600784D01*
X96006782Y-77600784D02*
X95931401Y-77450022D01*
X96383687Y-78882260D02*
X96383687Y-79862213D01*
X96383687Y-79862213D02*
X95780639Y-79334546D01*
X95780639Y-79334546D02*
X95780639Y-79560689D01*
X95780639Y-79560689D02*
X95705258Y-79711451D01*
X95705258Y-79711451D02*
X95629877Y-79786832D01*
X95629877Y-79786832D02*
X95479115Y-79862213D01*
X95479115Y-79862213D02*
X95102210Y-79862213D01*
X95102210Y-79862213D02*
X94951448Y-79786832D01*
X94951448Y-79786832D02*
X94876068Y-79711451D01*
X94876068Y-79711451D02*
X94800687Y-79560689D01*
X94800687Y-79560689D02*
X94800687Y-79108403D01*
X94800687Y-79108403D02*
X94876068Y-78957641D01*
X94876068Y-78957641D02*
X94951448Y-78882260D01*
X92252146Y-78354594D02*
X92252146Y-77450022D01*
X92252146Y-77902308D02*
X93835146Y-77902308D01*
X93835146Y-77902308D02*
X93609003Y-77751546D01*
X93609003Y-77751546D02*
X93458241Y-77600784D01*
X93458241Y-77600784D02*
X93382860Y-77450022D01*
X93835146Y-79786832D02*
X93835146Y-79033022D01*
X93835146Y-79033022D02*
X93081336Y-78957641D01*
X93081336Y-78957641D02*
X93156717Y-79033022D01*
X93156717Y-79033022D02*
X93232098Y-79183784D01*
X93232098Y-79183784D02*
X93232098Y-79560689D01*
X93232098Y-79560689D02*
X93156717Y-79711451D01*
X93156717Y-79711451D02*
X93081336Y-79786832D01*
X93081336Y-79786832D02*
X92930574Y-79862213D01*
X92930574Y-79862213D02*
X92553669Y-79862213D01*
X92553669Y-79862213D02*
X92402907Y-79786832D01*
X92402907Y-79786832D02*
X92327527Y-79711451D01*
X92327527Y-79711451D02*
X92252146Y-79560689D01*
X92252146Y-79560689D02*
X92252146Y-79183784D01*
X92252146Y-79183784D02*
X92327527Y-79033022D01*
X92327527Y-79033022D02*
X92402907Y-78957641D01*
X89703605Y-78354594D02*
X89703605Y-77450022D01*
X89703605Y-77902308D02*
X91286605Y-77902308D01*
X91286605Y-77902308D02*
X91060462Y-77751546D01*
X91060462Y-77751546D02*
X90909700Y-77600784D01*
X90909700Y-77600784D02*
X90834319Y-77450022D01*
X91286605Y-78882260D02*
X91286605Y-79937594D01*
X91286605Y-79937594D02*
X89703605Y-79259165D01*
X87155064Y-78354594D02*
X87155064Y-77450022D01*
X87155064Y-77902308D02*
X88738064Y-77902308D01*
X88738064Y-77902308D02*
X88511921Y-77751546D01*
X88511921Y-77751546D02*
X88361159Y-77600784D01*
X88361159Y-77600784D02*
X88285778Y-77450022D01*
X87155064Y-79108403D02*
X87155064Y-79409927D01*
X87155064Y-79409927D02*
X87230445Y-79560689D01*
X87230445Y-79560689D02*
X87305825Y-79636070D01*
X87305825Y-79636070D02*
X87531968Y-79786832D01*
X87531968Y-79786832D02*
X87833492Y-79862213D01*
X87833492Y-79862213D02*
X88436540Y-79862213D01*
X88436540Y-79862213D02*
X88587302Y-79786832D01*
X88587302Y-79786832D02*
X88662683Y-79711451D01*
X88662683Y-79711451D02*
X88738064Y-79560689D01*
X88738064Y-79560689D02*
X88738064Y-79259165D01*
X88738064Y-79259165D02*
X88662683Y-79108403D01*
X88662683Y-79108403D02*
X88587302Y-79033022D01*
X88587302Y-79033022D02*
X88436540Y-78957641D01*
X88436540Y-78957641D02*
X88059635Y-78957641D01*
X88059635Y-78957641D02*
X87908873Y-79033022D01*
X87908873Y-79033022D02*
X87833492Y-79108403D01*
X87833492Y-79108403D02*
X87758111Y-79259165D01*
X87758111Y-79259165D02*
X87758111Y-79560689D01*
X87758111Y-79560689D02*
X87833492Y-79711451D01*
X87833492Y-79711451D02*
X87908873Y-79786832D01*
X87908873Y-79786832D02*
X88059635Y-79862213D01*
X86038761Y-77450022D02*
X86114142Y-77525403D01*
X86114142Y-77525403D02*
X86189523Y-77676165D01*
X86189523Y-77676165D02*
X86189523Y-78053070D01*
X86189523Y-78053070D02*
X86114142Y-78203832D01*
X86114142Y-78203832D02*
X86038761Y-78279213D01*
X86038761Y-78279213D02*
X85887999Y-78354594D01*
X85887999Y-78354594D02*
X85737237Y-78354594D01*
X85737237Y-78354594D02*
X85511094Y-78279213D01*
X85511094Y-78279213D02*
X84606523Y-77374641D01*
X84606523Y-77374641D02*
X84606523Y-78354594D01*
X84606523Y-79862213D02*
X84606523Y-78957641D01*
X84606523Y-79409927D02*
X86189523Y-79409927D01*
X86189523Y-79409927D02*
X85963380Y-79259165D01*
X85963380Y-79259165D02*
X85812618Y-79108403D01*
X85812618Y-79108403D02*
X85737237Y-78957641D01*
X83490220Y-77450022D02*
X83565601Y-77525403D01*
X83565601Y-77525403D02*
X83640982Y-77676165D01*
X83640982Y-77676165D02*
X83640982Y-78053070D01*
X83640982Y-78053070D02*
X83565601Y-78203832D01*
X83565601Y-78203832D02*
X83490220Y-78279213D01*
X83490220Y-78279213D02*
X83339458Y-78354594D01*
X83339458Y-78354594D02*
X83188696Y-78354594D01*
X83188696Y-78354594D02*
X82962553Y-78279213D01*
X82962553Y-78279213D02*
X82057982Y-77374641D01*
X82057982Y-77374641D02*
X82057982Y-78354594D01*
X83640982Y-78882260D02*
X83640982Y-79862213D01*
X83640982Y-79862213D02*
X83037934Y-79334546D01*
X83037934Y-79334546D02*
X83037934Y-79560689D01*
X83037934Y-79560689D02*
X82962553Y-79711451D01*
X82962553Y-79711451D02*
X82887172Y-79786832D01*
X82887172Y-79786832D02*
X82736410Y-79862213D01*
X82736410Y-79862213D02*
X82359505Y-79862213D01*
X82359505Y-79862213D02*
X82208743Y-79786832D01*
X82208743Y-79786832D02*
X82133363Y-79711451D01*
X82133363Y-79711451D02*
X82057982Y-79560689D01*
X82057982Y-79560689D02*
X82057982Y-79108403D01*
X82057982Y-79108403D02*
X82133363Y-78957641D01*
X82133363Y-78957641D02*
X82208743Y-78882260D01*
X80941679Y-77450022D02*
X81017060Y-77525403D01*
X81017060Y-77525403D02*
X81092441Y-77676165D01*
X81092441Y-77676165D02*
X81092441Y-78053070D01*
X81092441Y-78053070D02*
X81017060Y-78203832D01*
X81017060Y-78203832D02*
X80941679Y-78279213D01*
X80941679Y-78279213D02*
X80790917Y-78354594D01*
X80790917Y-78354594D02*
X80640155Y-78354594D01*
X80640155Y-78354594D02*
X80414012Y-78279213D01*
X80414012Y-78279213D02*
X79509441Y-77374641D01*
X79509441Y-77374641D02*
X79509441Y-78354594D01*
X81092441Y-79786832D02*
X81092441Y-79033022D01*
X81092441Y-79033022D02*
X80338631Y-78957641D01*
X80338631Y-78957641D02*
X80414012Y-79033022D01*
X80414012Y-79033022D02*
X80489393Y-79183784D01*
X80489393Y-79183784D02*
X80489393Y-79560689D01*
X80489393Y-79560689D02*
X80414012Y-79711451D01*
X80414012Y-79711451D02*
X80338631Y-79786832D01*
X80338631Y-79786832D02*
X80187869Y-79862213D01*
X80187869Y-79862213D02*
X79810964Y-79862213D01*
X79810964Y-79862213D02*
X79660202Y-79786832D01*
X79660202Y-79786832D02*
X79584822Y-79711451D01*
X79584822Y-79711451D02*
X79509441Y-79560689D01*
X79509441Y-79560689D02*
X79509441Y-79183784D01*
X79509441Y-79183784D02*
X79584822Y-79033022D01*
X79584822Y-79033022D02*
X79660202Y-78957641D01*
X78393138Y-77450022D02*
X78468519Y-77525403D01*
X78468519Y-77525403D02*
X78543900Y-77676165D01*
X78543900Y-77676165D02*
X78543900Y-78053070D01*
X78543900Y-78053070D02*
X78468519Y-78203832D01*
X78468519Y-78203832D02*
X78393138Y-78279213D01*
X78393138Y-78279213D02*
X78242376Y-78354594D01*
X78242376Y-78354594D02*
X78091614Y-78354594D01*
X78091614Y-78354594D02*
X77865471Y-78279213D01*
X77865471Y-78279213D02*
X76960900Y-77374641D01*
X76960900Y-77374641D02*
X76960900Y-78354594D01*
X78543900Y-78882260D02*
X78543900Y-79937594D01*
X78543900Y-79937594D02*
X76960900Y-79259165D01*
X75844597Y-77450022D02*
X75919978Y-77525403D01*
X75919978Y-77525403D02*
X75995359Y-77676165D01*
X75995359Y-77676165D02*
X75995359Y-78053070D01*
X75995359Y-78053070D02*
X75919978Y-78203832D01*
X75919978Y-78203832D02*
X75844597Y-78279213D01*
X75844597Y-78279213D02*
X75693835Y-78354594D01*
X75693835Y-78354594D02*
X75543073Y-78354594D01*
X75543073Y-78354594D02*
X75316930Y-78279213D01*
X75316930Y-78279213D02*
X74412359Y-77374641D01*
X74412359Y-77374641D02*
X74412359Y-78354594D01*
X74412359Y-79108403D02*
X74412359Y-79409927D01*
X74412359Y-79409927D02*
X74487740Y-79560689D01*
X74487740Y-79560689D02*
X74563120Y-79636070D01*
X74563120Y-79636070D02*
X74789263Y-79786832D01*
X74789263Y-79786832D02*
X75090787Y-79862213D01*
X75090787Y-79862213D02*
X75693835Y-79862213D01*
X75693835Y-79862213D02*
X75844597Y-79786832D01*
X75844597Y-79786832D02*
X75919978Y-79711451D01*
X75919978Y-79711451D02*
X75995359Y-79560689D01*
X75995359Y-79560689D02*
X75995359Y-79259165D01*
X75995359Y-79259165D02*
X75919978Y-79108403D01*
X75919978Y-79108403D02*
X75844597Y-79033022D01*
X75844597Y-79033022D02*
X75693835Y-78957641D01*
X75693835Y-78957641D02*
X75316930Y-78957641D01*
X75316930Y-78957641D02*
X75166168Y-79033022D01*
X75166168Y-79033022D02*
X75090787Y-79108403D01*
X75090787Y-79108403D02*
X75015406Y-79259165D01*
X75015406Y-79259165D02*
X75015406Y-79560689D01*
X75015406Y-79560689D02*
X75090787Y-79711451D01*
X75090787Y-79711451D02*
X75166168Y-79786832D01*
X75166168Y-79786832D02*
X75316930Y-79862213D01*
X73446818Y-77374641D02*
X73446818Y-78354594D01*
X73446818Y-78354594D02*
X72843770Y-77826927D01*
X72843770Y-77826927D02*
X72843770Y-78053070D01*
X72843770Y-78053070D02*
X72768389Y-78203832D01*
X72768389Y-78203832D02*
X72693008Y-78279213D01*
X72693008Y-78279213D02*
X72542246Y-78354594D01*
X72542246Y-78354594D02*
X72165341Y-78354594D01*
X72165341Y-78354594D02*
X72014579Y-78279213D01*
X72014579Y-78279213D02*
X71939199Y-78203832D01*
X71939199Y-78203832D02*
X71863818Y-78053070D01*
X71863818Y-78053070D02*
X71863818Y-77600784D01*
X71863818Y-77600784D02*
X71939199Y-77450022D01*
X71939199Y-77450022D02*
X72014579Y-77374641D01*
X71863818Y-79862213D02*
X71863818Y-78957641D01*
X71863818Y-79409927D02*
X73446818Y-79409927D01*
X73446818Y-79409927D02*
X73220675Y-79259165D01*
X73220675Y-79259165D02*
X73069913Y-79108403D01*
X73069913Y-79108403D02*
X72994532Y-78957641D01*
X70898277Y-77374641D02*
X70898277Y-78354594D01*
X70898277Y-78354594D02*
X70295229Y-77826927D01*
X70295229Y-77826927D02*
X70295229Y-78053070D01*
X70295229Y-78053070D02*
X70219848Y-78203832D01*
X70219848Y-78203832D02*
X70144467Y-78279213D01*
X70144467Y-78279213D02*
X69993705Y-78354594D01*
X69993705Y-78354594D02*
X69616800Y-78354594D01*
X69616800Y-78354594D02*
X69466038Y-78279213D01*
X69466038Y-78279213D02*
X69390658Y-78203832D01*
X69390658Y-78203832D02*
X69315277Y-78053070D01*
X69315277Y-78053070D02*
X69315277Y-77600784D01*
X69315277Y-77600784D02*
X69390658Y-77450022D01*
X69390658Y-77450022D02*
X69466038Y-77374641D01*
X70898277Y-78882260D02*
X70898277Y-79862213D01*
X70898277Y-79862213D02*
X70295229Y-79334546D01*
X70295229Y-79334546D02*
X70295229Y-79560689D01*
X70295229Y-79560689D02*
X70219848Y-79711451D01*
X70219848Y-79711451D02*
X70144467Y-79786832D01*
X70144467Y-79786832D02*
X69993705Y-79862213D01*
X69993705Y-79862213D02*
X69616800Y-79862213D01*
X69616800Y-79862213D02*
X69466038Y-79786832D01*
X69466038Y-79786832D02*
X69390658Y-79711451D01*
X69390658Y-79711451D02*
X69315277Y-79560689D01*
X69315277Y-79560689D02*
X69315277Y-79108403D01*
X69315277Y-79108403D02*
X69390658Y-78957641D01*
X69390658Y-78957641D02*
X69466038Y-78882260D01*
X68349736Y-77374641D02*
X68349736Y-78354594D01*
X68349736Y-78354594D02*
X67746688Y-77826927D01*
X67746688Y-77826927D02*
X67746688Y-78053070D01*
X67746688Y-78053070D02*
X67671307Y-78203832D01*
X67671307Y-78203832D02*
X67595926Y-78279213D01*
X67595926Y-78279213D02*
X67445164Y-78354594D01*
X67445164Y-78354594D02*
X67068259Y-78354594D01*
X67068259Y-78354594D02*
X66917497Y-78279213D01*
X66917497Y-78279213D02*
X66842117Y-78203832D01*
X66842117Y-78203832D02*
X66766736Y-78053070D01*
X66766736Y-78053070D02*
X66766736Y-77600784D01*
X66766736Y-77600784D02*
X66842117Y-77450022D01*
X66842117Y-77450022D02*
X66917497Y-77374641D01*
X68349736Y-79786832D02*
X68349736Y-79033022D01*
X68349736Y-79033022D02*
X67595926Y-78957641D01*
X67595926Y-78957641D02*
X67671307Y-79033022D01*
X67671307Y-79033022D02*
X67746688Y-79183784D01*
X67746688Y-79183784D02*
X67746688Y-79560689D01*
X67746688Y-79560689D02*
X67671307Y-79711451D01*
X67671307Y-79711451D02*
X67595926Y-79786832D01*
X67595926Y-79786832D02*
X67445164Y-79862213D01*
X67445164Y-79862213D02*
X67068259Y-79862213D01*
X67068259Y-79862213D02*
X66917497Y-79786832D01*
X66917497Y-79786832D02*
X66842117Y-79711451D01*
X66842117Y-79711451D02*
X66766736Y-79560689D01*
X66766736Y-79560689D02*
X66766736Y-79183784D01*
X66766736Y-79183784D02*
X66842117Y-79033022D01*
X66842117Y-79033022D02*
X66917497Y-78957641D01*
X65801195Y-77374641D02*
X65801195Y-78354594D01*
X65801195Y-78354594D02*
X65198147Y-77826927D01*
X65198147Y-77826927D02*
X65198147Y-78053070D01*
X65198147Y-78053070D02*
X65122766Y-78203832D01*
X65122766Y-78203832D02*
X65047385Y-78279213D01*
X65047385Y-78279213D02*
X64896623Y-78354594D01*
X64896623Y-78354594D02*
X64519718Y-78354594D01*
X64519718Y-78354594D02*
X64368956Y-78279213D01*
X64368956Y-78279213D02*
X64293576Y-78203832D01*
X64293576Y-78203832D02*
X64218195Y-78053070D01*
X64218195Y-78053070D02*
X64218195Y-77600784D01*
X64218195Y-77600784D02*
X64293576Y-77450022D01*
X64293576Y-77450022D02*
X64368956Y-77374641D01*
X65801195Y-78882260D02*
X65801195Y-79937594D01*
X65801195Y-79937594D02*
X64218195Y-79259165D01*
X63252654Y-77374641D02*
X63252654Y-78354594D01*
X63252654Y-78354594D02*
X62649606Y-77826927D01*
X62649606Y-77826927D02*
X62649606Y-78053070D01*
X62649606Y-78053070D02*
X62574225Y-78203832D01*
X62574225Y-78203832D02*
X62498844Y-78279213D01*
X62498844Y-78279213D02*
X62348082Y-78354594D01*
X62348082Y-78354594D02*
X61971177Y-78354594D01*
X61971177Y-78354594D02*
X61820415Y-78279213D01*
X61820415Y-78279213D02*
X61745035Y-78203832D01*
X61745035Y-78203832D02*
X61669654Y-78053070D01*
X61669654Y-78053070D02*
X61669654Y-77600784D01*
X61669654Y-77600784D02*
X61745035Y-77450022D01*
X61745035Y-77450022D02*
X61820415Y-77374641D01*
X61669654Y-79108403D02*
X61669654Y-79409927D01*
X61669654Y-79409927D02*
X61745035Y-79560689D01*
X61745035Y-79560689D02*
X61820415Y-79636070D01*
X61820415Y-79636070D02*
X62046558Y-79786832D01*
X62046558Y-79786832D02*
X62348082Y-79862213D01*
X62348082Y-79862213D02*
X62951130Y-79862213D01*
X62951130Y-79862213D02*
X63101892Y-79786832D01*
X63101892Y-79786832D02*
X63177273Y-79711451D01*
X63177273Y-79711451D02*
X63252654Y-79560689D01*
X63252654Y-79560689D02*
X63252654Y-79259165D01*
X63252654Y-79259165D02*
X63177273Y-79108403D01*
X63177273Y-79108403D02*
X63101892Y-79033022D01*
X63101892Y-79033022D02*
X62951130Y-78957641D01*
X62951130Y-78957641D02*
X62574225Y-78957641D01*
X62574225Y-78957641D02*
X62423463Y-79033022D01*
X62423463Y-79033022D02*
X62348082Y-79108403D01*
X62348082Y-79108403D02*
X62272701Y-79259165D01*
X62272701Y-79259165D02*
X62272701Y-79560689D01*
X62272701Y-79560689D02*
X62348082Y-79711451D01*
X62348082Y-79711451D02*
X62423463Y-79786832D01*
X62423463Y-79786832D02*
X62574225Y-79862213D01*
X111524171Y-91657641D02*
X111599552Y-91733022D01*
X111599552Y-91733022D02*
X111674933Y-91883784D01*
X111674933Y-91883784D02*
X111674933Y-92260689D01*
X111674933Y-92260689D02*
X111599552Y-92411451D01*
X111599552Y-92411451D02*
X111524171Y-92486832D01*
X111524171Y-92486832D02*
X111373409Y-92562213D01*
X111373409Y-92562213D02*
X111222647Y-92562213D01*
X111222647Y-92562213D02*
X110996504Y-92486832D01*
X110996504Y-92486832D02*
X110091933Y-91582260D01*
X110091933Y-91582260D02*
X110091933Y-92562213D01*
X108598725Y-92411451D02*
X107543392Y-92411451D01*
X109201773Y-92034546D02*
X108071058Y-91657641D01*
X108071058Y-91657641D02*
X108071058Y-92637594D01*
X106577851Y-92411451D02*
X106577851Y-92109927D01*
X106577851Y-92109927D02*
X106502470Y-91959165D01*
X106502470Y-91959165D02*
X106427089Y-91883784D01*
X106427089Y-91883784D02*
X106200946Y-91733022D01*
X106200946Y-91733022D02*
X105899422Y-91657641D01*
X105899422Y-91657641D02*
X105296374Y-91657641D01*
X105296374Y-91657641D02*
X105145612Y-91733022D01*
X105145612Y-91733022D02*
X105070232Y-91808403D01*
X105070232Y-91808403D02*
X104994851Y-91959165D01*
X104994851Y-91959165D02*
X104994851Y-92260689D01*
X104994851Y-92260689D02*
X105070232Y-92411451D01*
X105070232Y-92411451D02*
X105145612Y-92486832D01*
X105145612Y-92486832D02*
X105296374Y-92562213D01*
X105296374Y-92562213D02*
X105673279Y-92562213D01*
X105673279Y-92562213D02*
X105824041Y-92486832D01*
X105824041Y-92486832D02*
X105899422Y-92411451D01*
X105899422Y-92411451D02*
X105974803Y-92260689D01*
X105974803Y-92260689D02*
X105974803Y-91959165D01*
X105974803Y-91959165D02*
X105899422Y-91808403D01*
X105899422Y-91808403D02*
X105824041Y-91733022D01*
X105824041Y-91733022D02*
X105673279Y-91657641D01*
X103350881Y-91959165D02*
X103426262Y-91808403D01*
X103426262Y-91808403D02*
X103501643Y-91733022D01*
X103501643Y-91733022D02*
X103652405Y-91657641D01*
X103652405Y-91657641D02*
X103727786Y-91657641D01*
X103727786Y-91657641D02*
X103878548Y-91733022D01*
X103878548Y-91733022D02*
X103953929Y-91808403D01*
X103953929Y-91808403D02*
X104029310Y-91959165D01*
X104029310Y-91959165D02*
X104029310Y-92260689D01*
X104029310Y-92260689D02*
X103953929Y-92411451D01*
X103953929Y-92411451D02*
X103878548Y-92486832D01*
X103878548Y-92486832D02*
X103727786Y-92562213D01*
X103727786Y-92562213D02*
X103652405Y-92562213D01*
X103652405Y-92562213D02*
X103501643Y-92486832D01*
X103501643Y-92486832D02*
X103426262Y-92411451D01*
X103426262Y-92411451D02*
X103350881Y-92260689D01*
X103350881Y-92260689D02*
X103350881Y-91959165D01*
X103350881Y-91959165D02*
X103275500Y-91808403D01*
X103275500Y-91808403D02*
X103200119Y-91733022D01*
X103200119Y-91733022D02*
X103049357Y-91657641D01*
X103049357Y-91657641D02*
X102747833Y-91657641D01*
X102747833Y-91657641D02*
X102597071Y-91733022D01*
X102597071Y-91733022D02*
X102521691Y-91808403D01*
X102521691Y-91808403D02*
X102446310Y-91959165D01*
X102446310Y-91959165D02*
X102446310Y-92260689D01*
X102446310Y-92260689D02*
X102521691Y-92411451D01*
X102521691Y-92411451D02*
X102597071Y-92486832D01*
X102597071Y-92486832D02*
X102747833Y-92562213D01*
X102747833Y-92562213D02*
X103049357Y-92562213D01*
X103049357Y-92562213D02*
X103200119Y-92486832D01*
X103200119Y-92486832D02*
X103275500Y-92411451D01*
X103275500Y-92411451D02*
X103350881Y-92260689D01*
X99897769Y-91054594D02*
X99897769Y-90150022D01*
X99897769Y-90602308D02*
X101480769Y-90602308D01*
X101480769Y-90602308D02*
X101254626Y-90451546D01*
X101254626Y-90451546D02*
X101103864Y-90300784D01*
X101103864Y-90300784D02*
X101028483Y-90150022D01*
X101480769Y-92034546D02*
X101480769Y-92185308D01*
X101480769Y-92185308D02*
X101405388Y-92336070D01*
X101405388Y-92336070D02*
X101330007Y-92411451D01*
X101330007Y-92411451D02*
X101179245Y-92486832D01*
X101179245Y-92486832D02*
X100877721Y-92562213D01*
X100877721Y-92562213D02*
X100500816Y-92562213D01*
X100500816Y-92562213D02*
X100199292Y-92486832D01*
X100199292Y-92486832D02*
X100048530Y-92411451D01*
X100048530Y-92411451D02*
X99973150Y-92336070D01*
X99973150Y-92336070D02*
X99897769Y-92185308D01*
X99897769Y-92185308D02*
X99897769Y-92034546D01*
X99897769Y-92034546D02*
X99973150Y-91883784D01*
X99973150Y-91883784D02*
X100048530Y-91808403D01*
X100048530Y-91808403D02*
X100199292Y-91733022D01*
X100199292Y-91733022D02*
X100500816Y-91657641D01*
X100500816Y-91657641D02*
X100877721Y-91657641D01*
X100877721Y-91657641D02*
X101179245Y-91733022D01*
X101179245Y-91733022D02*
X101330007Y-91808403D01*
X101330007Y-91808403D02*
X101405388Y-91883784D01*
X101405388Y-91883784D02*
X101480769Y-92034546D01*
X97349228Y-91054594D02*
X97349228Y-90150022D01*
X97349228Y-90602308D02*
X98932228Y-90602308D01*
X98932228Y-90602308D02*
X98706085Y-90451546D01*
X98706085Y-90451546D02*
X98555323Y-90300784D01*
X98555323Y-90300784D02*
X98479942Y-90150022D01*
X98781466Y-91657641D02*
X98856847Y-91733022D01*
X98856847Y-91733022D02*
X98932228Y-91883784D01*
X98932228Y-91883784D02*
X98932228Y-92260689D01*
X98932228Y-92260689D02*
X98856847Y-92411451D01*
X98856847Y-92411451D02*
X98781466Y-92486832D01*
X98781466Y-92486832D02*
X98630704Y-92562213D01*
X98630704Y-92562213D02*
X98479942Y-92562213D01*
X98479942Y-92562213D02*
X98253799Y-92486832D01*
X98253799Y-92486832D02*
X97349228Y-91582260D01*
X97349228Y-91582260D02*
X97349228Y-92562213D01*
X94800687Y-91054594D02*
X94800687Y-90150022D01*
X94800687Y-90602308D02*
X96383687Y-90602308D01*
X96383687Y-90602308D02*
X96157544Y-90451546D01*
X96157544Y-90451546D02*
X96006782Y-90300784D01*
X96006782Y-90300784D02*
X95931401Y-90150022D01*
X95856020Y-92411451D02*
X94800687Y-92411451D01*
X96459068Y-92034546D02*
X95328353Y-91657641D01*
X95328353Y-91657641D02*
X95328353Y-92637594D01*
X92252146Y-91054594D02*
X92252146Y-90150022D01*
X92252146Y-90602308D02*
X93835146Y-90602308D01*
X93835146Y-90602308D02*
X93609003Y-90451546D01*
X93609003Y-90451546D02*
X93458241Y-90300784D01*
X93458241Y-90300784D02*
X93382860Y-90150022D01*
X93835146Y-92411451D02*
X93835146Y-92109927D01*
X93835146Y-92109927D02*
X93759765Y-91959165D01*
X93759765Y-91959165D02*
X93684384Y-91883784D01*
X93684384Y-91883784D02*
X93458241Y-91733022D01*
X93458241Y-91733022D02*
X93156717Y-91657641D01*
X93156717Y-91657641D02*
X92553669Y-91657641D01*
X92553669Y-91657641D02*
X92402907Y-91733022D01*
X92402907Y-91733022D02*
X92327527Y-91808403D01*
X92327527Y-91808403D02*
X92252146Y-91959165D01*
X92252146Y-91959165D02*
X92252146Y-92260689D01*
X92252146Y-92260689D02*
X92327527Y-92411451D01*
X92327527Y-92411451D02*
X92402907Y-92486832D01*
X92402907Y-92486832D02*
X92553669Y-92562213D01*
X92553669Y-92562213D02*
X92930574Y-92562213D01*
X92930574Y-92562213D02*
X93081336Y-92486832D01*
X93081336Y-92486832D02*
X93156717Y-92411451D01*
X93156717Y-92411451D02*
X93232098Y-92260689D01*
X93232098Y-92260689D02*
X93232098Y-91959165D01*
X93232098Y-91959165D02*
X93156717Y-91808403D01*
X93156717Y-91808403D02*
X93081336Y-91733022D01*
X93081336Y-91733022D02*
X92930574Y-91657641D01*
X89703605Y-91054594D02*
X89703605Y-90150022D01*
X89703605Y-90602308D02*
X91286605Y-90602308D01*
X91286605Y-90602308D02*
X91060462Y-90451546D01*
X91060462Y-90451546D02*
X90909700Y-90300784D01*
X90909700Y-90300784D02*
X90834319Y-90150022D01*
X90608176Y-91959165D02*
X90683557Y-91808403D01*
X90683557Y-91808403D02*
X90758938Y-91733022D01*
X90758938Y-91733022D02*
X90909700Y-91657641D01*
X90909700Y-91657641D02*
X90985081Y-91657641D01*
X90985081Y-91657641D02*
X91135843Y-91733022D01*
X91135843Y-91733022D02*
X91211224Y-91808403D01*
X91211224Y-91808403D02*
X91286605Y-91959165D01*
X91286605Y-91959165D02*
X91286605Y-92260689D01*
X91286605Y-92260689D02*
X91211224Y-92411451D01*
X91211224Y-92411451D02*
X91135843Y-92486832D01*
X91135843Y-92486832D02*
X90985081Y-92562213D01*
X90985081Y-92562213D02*
X90909700Y-92562213D01*
X90909700Y-92562213D02*
X90758938Y-92486832D01*
X90758938Y-92486832D02*
X90683557Y-92411451D01*
X90683557Y-92411451D02*
X90608176Y-92260689D01*
X90608176Y-92260689D02*
X90608176Y-91959165D01*
X90608176Y-91959165D02*
X90532795Y-91808403D01*
X90532795Y-91808403D02*
X90457414Y-91733022D01*
X90457414Y-91733022D02*
X90306652Y-91657641D01*
X90306652Y-91657641D02*
X90005128Y-91657641D01*
X90005128Y-91657641D02*
X89854366Y-91733022D01*
X89854366Y-91733022D02*
X89778986Y-91808403D01*
X89778986Y-91808403D02*
X89703605Y-91959165D01*
X89703605Y-91959165D02*
X89703605Y-92260689D01*
X89703605Y-92260689D02*
X89778986Y-92411451D01*
X89778986Y-92411451D02*
X89854366Y-92486832D01*
X89854366Y-92486832D02*
X90005128Y-92562213D01*
X90005128Y-92562213D02*
X90306652Y-92562213D01*
X90306652Y-92562213D02*
X90457414Y-92486832D01*
X90457414Y-92486832D02*
X90532795Y-92411451D01*
X90532795Y-92411451D02*
X90608176Y-92260689D01*
X88587302Y-90150022D02*
X88662683Y-90225403D01*
X88662683Y-90225403D02*
X88738064Y-90376165D01*
X88738064Y-90376165D02*
X88738064Y-90753070D01*
X88738064Y-90753070D02*
X88662683Y-90903832D01*
X88662683Y-90903832D02*
X88587302Y-90979213D01*
X88587302Y-90979213D02*
X88436540Y-91054594D01*
X88436540Y-91054594D02*
X88285778Y-91054594D01*
X88285778Y-91054594D02*
X88059635Y-90979213D01*
X88059635Y-90979213D02*
X87155064Y-90074641D01*
X87155064Y-90074641D02*
X87155064Y-91054594D01*
X88738064Y-92034546D02*
X88738064Y-92185308D01*
X88738064Y-92185308D02*
X88662683Y-92336070D01*
X88662683Y-92336070D02*
X88587302Y-92411451D01*
X88587302Y-92411451D02*
X88436540Y-92486832D01*
X88436540Y-92486832D02*
X88135016Y-92562213D01*
X88135016Y-92562213D02*
X87758111Y-92562213D01*
X87758111Y-92562213D02*
X87456587Y-92486832D01*
X87456587Y-92486832D02*
X87305825Y-92411451D01*
X87305825Y-92411451D02*
X87230445Y-92336070D01*
X87230445Y-92336070D02*
X87155064Y-92185308D01*
X87155064Y-92185308D02*
X87155064Y-92034546D01*
X87155064Y-92034546D02*
X87230445Y-91883784D01*
X87230445Y-91883784D02*
X87305825Y-91808403D01*
X87305825Y-91808403D02*
X87456587Y-91733022D01*
X87456587Y-91733022D02*
X87758111Y-91657641D01*
X87758111Y-91657641D02*
X88135016Y-91657641D01*
X88135016Y-91657641D02*
X88436540Y-91733022D01*
X88436540Y-91733022D02*
X88587302Y-91808403D01*
X88587302Y-91808403D02*
X88662683Y-91883784D01*
X88662683Y-91883784D02*
X88738064Y-92034546D01*
X86038761Y-90150022D02*
X86114142Y-90225403D01*
X86114142Y-90225403D02*
X86189523Y-90376165D01*
X86189523Y-90376165D02*
X86189523Y-90753070D01*
X86189523Y-90753070D02*
X86114142Y-90903832D01*
X86114142Y-90903832D02*
X86038761Y-90979213D01*
X86038761Y-90979213D02*
X85887999Y-91054594D01*
X85887999Y-91054594D02*
X85737237Y-91054594D01*
X85737237Y-91054594D02*
X85511094Y-90979213D01*
X85511094Y-90979213D02*
X84606523Y-90074641D01*
X84606523Y-90074641D02*
X84606523Y-91054594D01*
X86038761Y-91657641D02*
X86114142Y-91733022D01*
X86114142Y-91733022D02*
X86189523Y-91883784D01*
X86189523Y-91883784D02*
X86189523Y-92260689D01*
X86189523Y-92260689D02*
X86114142Y-92411451D01*
X86114142Y-92411451D02*
X86038761Y-92486832D01*
X86038761Y-92486832D02*
X85887999Y-92562213D01*
X85887999Y-92562213D02*
X85737237Y-92562213D01*
X85737237Y-92562213D02*
X85511094Y-92486832D01*
X85511094Y-92486832D02*
X84606523Y-91582260D01*
X84606523Y-91582260D02*
X84606523Y-92562213D01*
X83490220Y-90150022D02*
X83565601Y-90225403D01*
X83565601Y-90225403D02*
X83640982Y-90376165D01*
X83640982Y-90376165D02*
X83640982Y-90753070D01*
X83640982Y-90753070D02*
X83565601Y-90903832D01*
X83565601Y-90903832D02*
X83490220Y-90979213D01*
X83490220Y-90979213D02*
X83339458Y-91054594D01*
X83339458Y-91054594D02*
X83188696Y-91054594D01*
X83188696Y-91054594D02*
X82962553Y-90979213D01*
X82962553Y-90979213D02*
X82057982Y-90074641D01*
X82057982Y-90074641D02*
X82057982Y-91054594D01*
X83113315Y-92411451D02*
X82057982Y-92411451D01*
X83716363Y-92034546D02*
X82585648Y-91657641D01*
X82585648Y-91657641D02*
X82585648Y-92637594D01*
X80941679Y-90150022D02*
X81017060Y-90225403D01*
X81017060Y-90225403D02*
X81092441Y-90376165D01*
X81092441Y-90376165D02*
X81092441Y-90753070D01*
X81092441Y-90753070D02*
X81017060Y-90903832D01*
X81017060Y-90903832D02*
X80941679Y-90979213D01*
X80941679Y-90979213D02*
X80790917Y-91054594D01*
X80790917Y-91054594D02*
X80640155Y-91054594D01*
X80640155Y-91054594D02*
X80414012Y-90979213D01*
X80414012Y-90979213D02*
X79509441Y-90074641D01*
X79509441Y-90074641D02*
X79509441Y-91054594D01*
X81092441Y-92411451D02*
X81092441Y-92109927D01*
X81092441Y-92109927D02*
X81017060Y-91959165D01*
X81017060Y-91959165D02*
X80941679Y-91883784D01*
X80941679Y-91883784D02*
X80715536Y-91733022D01*
X80715536Y-91733022D02*
X80414012Y-91657641D01*
X80414012Y-91657641D02*
X79810964Y-91657641D01*
X79810964Y-91657641D02*
X79660202Y-91733022D01*
X79660202Y-91733022D02*
X79584822Y-91808403D01*
X79584822Y-91808403D02*
X79509441Y-91959165D01*
X79509441Y-91959165D02*
X79509441Y-92260689D01*
X79509441Y-92260689D02*
X79584822Y-92411451D01*
X79584822Y-92411451D02*
X79660202Y-92486832D01*
X79660202Y-92486832D02*
X79810964Y-92562213D01*
X79810964Y-92562213D02*
X80187869Y-92562213D01*
X80187869Y-92562213D02*
X80338631Y-92486832D01*
X80338631Y-92486832D02*
X80414012Y-92411451D01*
X80414012Y-92411451D02*
X80489393Y-92260689D01*
X80489393Y-92260689D02*
X80489393Y-91959165D01*
X80489393Y-91959165D02*
X80414012Y-91808403D01*
X80414012Y-91808403D02*
X80338631Y-91733022D01*
X80338631Y-91733022D02*
X80187869Y-91657641D01*
X78393138Y-90150022D02*
X78468519Y-90225403D01*
X78468519Y-90225403D02*
X78543900Y-90376165D01*
X78543900Y-90376165D02*
X78543900Y-90753070D01*
X78543900Y-90753070D02*
X78468519Y-90903832D01*
X78468519Y-90903832D02*
X78393138Y-90979213D01*
X78393138Y-90979213D02*
X78242376Y-91054594D01*
X78242376Y-91054594D02*
X78091614Y-91054594D01*
X78091614Y-91054594D02*
X77865471Y-90979213D01*
X77865471Y-90979213D02*
X76960900Y-90074641D01*
X76960900Y-90074641D02*
X76960900Y-91054594D01*
X77865471Y-91959165D02*
X77940852Y-91808403D01*
X77940852Y-91808403D02*
X78016233Y-91733022D01*
X78016233Y-91733022D02*
X78166995Y-91657641D01*
X78166995Y-91657641D02*
X78242376Y-91657641D01*
X78242376Y-91657641D02*
X78393138Y-91733022D01*
X78393138Y-91733022D02*
X78468519Y-91808403D01*
X78468519Y-91808403D02*
X78543900Y-91959165D01*
X78543900Y-91959165D02*
X78543900Y-92260689D01*
X78543900Y-92260689D02*
X78468519Y-92411451D01*
X78468519Y-92411451D02*
X78393138Y-92486832D01*
X78393138Y-92486832D02*
X78242376Y-92562213D01*
X78242376Y-92562213D02*
X78166995Y-92562213D01*
X78166995Y-92562213D02*
X78016233Y-92486832D01*
X78016233Y-92486832D02*
X77940852Y-92411451D01*
X77940852Y-92411451D02*
X77865471Y-92260689D01*
X77865471Y-92260689D02*
X77865471Y-91959165D01*
X77865471Y-91959165D02*
X77790090Y-91808403D01*
X77790090Y-91808403D02*
X77714709Y-91733022D01*
X77714709Y-91733022D02*
X77563947Y-91657641D01*
X77563947Y-91657641D02*
X77262423Y-91657641D01*
X77262423Y-91657641D02*
X77111661Y-91733022D01*
X77111661Y-91733022D02*
X77036281Y-91808403D01*
X77036281Y-91808403D02*
X76960900Y-91959165D01*
X76960900Y-91959165D02*
X76960900Y-92260689D01*
X76960900Y-92260689D02*
X77036281Y-92411451D01*
X77036281Y-92411451D02*
X77111661Y-92486832D01*
X77111661Y-92486832D02*
X77262423Y-92562213D01*
X77262423Y-92562213D02*
X77563947Y-92562213D01*
X77563947Y-92562213D02*
X77714709Y-92486832D01*
X77714709Y-92486832D02*
X77790090Y-92411451D01*
X77790090Y-92411451D02*
X77865471Y-92260689D01*
X75995359Y-90074641D02*
X75995359Y-91054594D01*
X75995359Y-91054594D02*
X75392311Y-90526927D01*
X75392311Y-90526927D02*
X75392311Y-90753070D01*
X75392311Y-90753070D02*
X75316930Y-90903832D01*
X75316930Y-90903832D02*
X75241549Y-90979213D01*
X75241549Y-90979213D02*
X75090787Y-91054594D01*
X75090787Y-91054594D02*
X74713882Y-91054594D01*
X74713882Y-91054594D02*
X74563120Y-90979213D01*
X74563120Y-90979213D02*
X74487740Y-90903832D01*
X74487740Y-90903832D02*
X74412359Y-90753070D01*
X74412359Y-90753070D02*
X74412359Y-90300784D01*
X74412359Y-90300784D02*
X74487740Y-90150022D01*
X74487740Y-90150022D02*
X74563120Y-90074641D01*
X75995359Y-92034546D02*
X75995359Y-92185308D01*
X75995359Y-92185308D02*
X75919978Y-92336070D01*
X75919978Y-92336070D02*
X75844597Y-92411451D01*
X75844597Y-92411451D02*
X75693835Y-92486832D01*
X75693835Y-92486832D02*
X75392311Y-92562213D01*
X75392311Y-92562213D02*
X75015406Y-92562213D01*
X75015406Y-92562213D02*
X74713882Y-92486832D01*
X74713882Y-92486832D02*
X74563120Y-92411451D01*
X74563120Y-92411451D02*
X74487740Y-92336070D01*
X74487740Y-92336070D02*
X74412359Y-92185308D01*
X74412359Y-92185308D02*
X74412359Y-92034546D01*
X74412359Y-92034546D02*
X74487740Y-91883784D01*
X74487740Y-91883784D02*
X74563120Y-91808403D01*
X74563120Y-91808403D02*
X74713882Y-91733022D01*
X74713882Y-91733022D02*
X75015406Y-91657641D01*
X75015406Y-91657641D02*
X75392311Y-91657641D01*
X75392311Y-91657641D02*
X75693835Y-91733022D01*
X75693835Y-91733022D02*
X75844597Y-91808403D01*
X75844597Y-91808403D02*
X75919978Y-91883784D01*
X75919978Y-91883784D02*
X75995359Y-92034546D01*
X73446818Y-90074641D02*
X73446818Y-91054594D01*
X73446818Y-91054594D02*
X72843770Y-90526927D01*
X72843770Y-90526927D02*
X72843770Y-90753070D01*
X72843770Y-90753070D02*
X72768389Y-90903832D01*
X72768389Y-90903832D02*
X72693008Y-90979213D01*
X72693008Y-90979213D02*
X72542246Y-91054594D01*
X72542246Y-91054594D02*
X72165341Y-91054594D01*
X72165341Y-91054594D02*
X72014579Y-90979213D01*
X72014579Y-90979213D02*
X71939199Y-90903832D01*
X71939199Y-90903832D02*
X71863818Y-90753070D01*
X71863818Y-90753070D02*
X71863818Y-90300784D01*
X71863818Y-90300784D02*
X71939199Y-90150022D01*
X71939199Y-90150022D02*
X72014579Y-90074641D01*
X73296056Y-91657641D02*
X73371437Y-91733022D01*
X73371437Y-91733022D02*
X73446818Y-91883784D01*
X73446818Y-91883784D02*
X73446818Y-92260689D01*
X73446818Y-92260689D02*
X73371437Y-92411451D01*
X73371437Y-92411451D02*
X73296056Y-92486832D01*
X73296056Y-92486832D02*
X73145294Y-92562213D01*
X73145294Y-92562213D02*
X72994532Y-92562213D01*
X72994532Y-92562213D02*
X72768389Y-92486832D01*
X72768389Y-92486832D02*
X71863818Y-91582260D01*
X71863818Y-91582260D02*
X71863818Y-92562213D01*
X70898277Y-90074641D02*
X70898277Y-91054594D01*
X70898277Y-91054594D02*
X70295229Y-90526927D01*
X70295229Y-90526927D02*
X70295229Y-90753070D01*
X70295229Y-90753070D02*
X70219848Y-90903832D01*
X70219848Y-90903832D02*
X70144467Y-90979213D01*
X70144467Y-90979213D02*
X69993705Y-91054594D01*
X69993705Y-91054594D02*
X69616800Y-91054594D01*
X69616800Y-91054594D02*
X69466038Y-90979213D01*
X69466038Y-90979213D02*
X69390658Y-90903832D01*
X69390658Y-90903832D02*
X69315277Y-90753070D01*
X69315277Y-90753070D02*
X69315277Y-90300784D01*
X69315277Y-90300784D02*
X69390658Y-90150022D01*
X69390658Y-90150022D02*
X69466038Y-90074641D01*
X70370610Y-92411451D02*
X69315277Y-92411451D01*
X70973658Y-92034546D02*
X69842943Y-91657641D01*
X69842943Y-91657641D02*
X69842943Y-92637594D01*
X68349736Y-90074641D02*
X68349736Y-91054594D01*
X68349736Y-91054594D02*
X67746688Y-90526927D01*
X67746688Y-90526927D02*
X67746688Y-90753070D01*
X67746688Y-90753070D02*
X67671307Y-90903832D01*
X67671307Y-90903832D02*
X67595926Y-90979213D01*
X67595926Y-90979213D02*
X67445164Y-91054594D01*
X67445164Y-91054594D02*
X67068259Y-91054594D01*
X67068259Y-91054594D02*
X66917497Y-90979213D01*
X66917497Y-90979213D02*
X66842117Y-90903832D01*
X66842117Y-90903832D02*
X66766736Y-90753070D01*
X66766736Y-90753070D02*
X66766736Y-90300784D01*
X66766736Y-90300784D02*
X66842117Y-90150022D01*
X66842117Y-90150022D02*
X66917497Y-90074641D01*
X68349736Y-92411451D02*
X68349736Y-92109927D01*
X68349736Y-92109927D02*
X68274355Y-91959165D01*
X68274355Y-91959165D02*
X68198974Y-91883784D01*
X68198974Y-91883784D02*
X67972831Y-91733022D01*
X67972831Y-91733022D02*
X67671307Y-91657641D01*
X67671307Y-91657641D02*
X67068259Y-91657641D01*
X67068259Y-91657641D02*
X66917497Y-91733022D01*
X66917497Y-91733022D02*
X66842117Y-91808403D01*
X66842117Y-91808403D02*
X66766736Y-91959165D01*
X66766736Y-91959165D02*
X66766736Y-92260689D01*
X66766736Y-92260689D02*
X66842117Y-92411451D01*
X66842117Y-92411451D02*
X66917497Y-92486832D01*
X66917497Y-92486832D02*
X67068259Y-92562213D01*
X67068259Y-92562213D02*
X67445164Y-92562213D01*
X67445164Y-92562213D02*
X67595926Y-92486832D01*
X67595926Y-92486832D02*
X67671307Y-92411451D01*
X67671307Y-92411451D02*
X67746688Y-92260689D01*
X67746688Y-92260689D02*
X67746688Y-91959165D01*
X67746688Y-91959165D02*
X67671307Y-91808403D01*
X67671307Y-91808403D02*
X67595926Y-91733022D01*
X67595926Y-91733022D02*
X67445164Y-91657641D01*
X65801195Y-90074641D02*
X65801195Y-91054594D01*
X65801195Y-91054594D02*
X65198147Y-90526927D01*
X65198147Y-90526927D02*
X65198147Y-90753070D01*
X65198147Y-90753070D02*
X65122766Y-90903832D01*
X65122766Y-90903832D02*
X65047385Y-90979213D01*
X65047385Y-90979213D02*
X64896623Y-91054594D01*
X64896623Y-91054594D02*
X64519718Y-91054594D01*
X64519718Y-91054594D02*
X64368956Y-90979213D01*
X64368956Y-90979213D02*
X64293576Y-90903832D01*
X64293576Y-90903832D02*
X64218195Y-90753070D01*
X64218195Y-90753070D02*
X64218195Y-90300784D01*
X64218195Y-90300784D02*
X64293576Y-90150022D01*
X64293576Y-90150022D02*
X64368956Y-90074641D01*
X65122766Y-91959165D02*
X65198147Y-91808403D01*
X65198147Y-91808403D02*
X65273528Y-91733022D01*
X65273528Y-91733022D02*
X65424290Y-91657641D01*
X65424290Y-91657641D02*
X65499671Y-91657641D01*
X65499671Y-91657641D02*
X65650433Y-91733022D01*
X65650433Y-91733022D02*
X65725814Y-91808403D01*
X65725814Y-91808403D02*
X65801195Y-91959165D01*
X65801195Y-91959165D02*
X65801195Y-92260689D01*
X65801195Y-92260689D02*
X65725814Y-92411451D01*
X65725814Y-92411451D02*
X65650433Y-92486832D01*
X65650433Y-92486832D02*
X65499671Y-92562213D01*
X65499671Y-92562213D02*
X65424290Y-92562213D01*
X65424290Y-92562213D02*
X65273528Y-92486832D01*
X65273528Y-92486832D02*
X65198147Y-92411451D01*
X65198147Y-92411451D02*
X65122766Y-92260689D01*
X65122766Y-92260689D02*
X65122766Y-91959165D01*
X65122766Y-91959165D02*
X65047385Y-91808403D01*
X65047385Y-91808403D02*
X64972004Y-91733022D01*
X64972004Y-91733022D02*
X64821242Y-91657641D01*
X64821242Y-91657641D02*
X64519718Y-91657641D01*
X64519718Y-91657641D02*
X64368956Y-91733022D01*
X64368956Y-91733022D02*
X64293576Y-91808403D01*
X64293576Y-91808403D02*
X64218195Y-91959165D01*
X64218195Y-91959165D02*
X64218195Y-92260689D01*
X64218195Y-92260689D02*
X64293576Y-92411451D01*
X64293576Y-92411451D02*
X64368956Y-92486832D01*
X64368956Y-92486832D02*
X64519718Y-92562213D01*
X64519718Y-92562213D02*
X64821242Y-92562213D01*
X64821242Y-92562213D02*
X64972004Y-92486832D01*
X64972004Y-92486832D02*
X65047385Y-92411451D01*
X65047385Y-92411451D02*
X65122766Y-92260689D01*
X62724987Y-90903832D02*
X61669654Y-90903832D01*
X63328035Y-90526927D02*
X62197320Y-90150022D01*
X62197320Y-90150022D02*
X62197320Y-91129975D01*
X63252654Y-92034546D02*
X63252654Y-92185308D01*
X63252654Y-92185308D02*
X63177273Y-92336070D01*
X63177273Y-92336070D02*
X63101892Y-92411451D01*
X63101892Y-92411451D02*
X62951130Y-92486832D01*
X62951130Y-92486832D02*
X62649606Y-92562213D01*
X62649606Y-92562213D02*
X62272701Y-92562213D01*
X62272701Y-92562213D02*
X61971177Y-92486832D01*
X61971177Y-92486832D02*
X61820415Y-92411451D01*
X61820415Y-92411451D02*
X61745035Y-92336070D01*
X61745035Y-92336070D02*
X61669654Y-92185308D01*
X61669654Y-92185308D02*
X61669654Y-92034546D01*
X61669654Y-92034546D02*
X61745035Y-91883784D01*
X61745035Y-91883784D02*
X61820415Y-91808403D01*
X61820415Y-91808403D02*
X61971177Y-91733022D01*
X61971177Y-91733022D02*
X62272701Y-91657641D01*
X62272701Y-91657641D02*
X62649606Y-91657641D01*
X62649606Y-91657641D02*
X62951130Y-91733022D01*
X62951130Y-91733022D02*
X63101892Y-91808403D01*
X63101892Y-91808403D02*
X63177273Y-91883784D01*
X63177273Y-91883784D02*
X63252654Y-92034546D01*
D11*
X64248761Y-65306238D02*
X65486856Y-65306238D01*
X65486856Y-65306238D02*
X64820189Y-66068142D01*
X64820189Y-66068142D02*
X65105904Y-66068142D01*
X65105904Y-66068142D02*
X65296380Y-66163380D01*
X65296380Y-66163380D02*
X65391618Y-66258619D01*
X65391618Y-66258619D02*
X65486856Y-66449095D01*
X65486856Y-66449095D02*
X65486856Y-66925285D01*
X65486856Y-66925285D02*
X65391618Y-67115761D01*
X65391618Y-67115761D02*
X65296380Y-67211000D01*
X65296380Y-67211000D02*
X65105904Y-67306238D01*
X65105904Y-67306238D02*
X64534475Y-67306238D01*
X64534475Y-67306238D02*
X64343999Y-67211000D01*
X64343999Y-67211000D02*
X64248761Y-67115761D01*
X66343999Y-67306238D02*
X66343999Y-65306238D01*
X66343999Y-65306238D02*
X67010666Y-66734809D01*
X67010666Y-66734809D02*
X67677332Y-65306238D01*
X67677332Y-65306238D02*
X67677332Y-67306238D01*
X70153523Y-67306238D02*
X70153523Y-65306238D01*
X70153523Y-65306238D02*
X70820190Y-66734809D01*
X70820190Y-66734809D02*
X71486856Y-65306238D01*
X71486856Y-65306238D02*
X71486856Y-67306238D01*
X72439237Y-67306238D02*
X72439237Y-65306238D01*
X72439237Y-65306238D02*
X72915427Y-65306238D01*
X72915427Y-65306238D02*
X73201142Y-65401476D01*
X73201142Y-65401476D02*
X73391618Y-65591952D01*
X73391618Y-65591952D02*
X73486856Y-65782428D01*
X73486856Y-65782428D02*
X73582094Y-66163380D01*
X73582094Y-66163380D02*
X73582094Y-66449095D01*
X73582094Y-66449095D02*
X73486856Y-66830047D01*
X73486856Y-66830047D02*
X73391618Y-67020523D01*
X73391618Y-67020523D02*
X73201142Y-67211000D01*
X73201142Y-67211000D02*
X72915427Y-67306238D01*
X72915427Y-67306238D02*
X72439237Y-67306238D01*
X75582094Y-67306238D02*
X74915427Y-66353857D01*
X74439237Y-67306238D02*
X74439237Y-65306238D01*
X74439237Y-65306238D02*
X75201142Y-65306238D01*
X75201142Y-65306238D02*
X75391618Y-65401476D01*
X75391618Y-65401476D02*
X75486856Y-65496714D01*
X75486856Y-65496714D02*
X75582094Y-65687190D01*
X75582094Y-65687190D02*
X75582094Y-65972904D01*
X75582094Y-65972904D02*
X75486856Y-66163380D01*
X75486856Y-66163380D02*
X75391618Y-66258619D01*
X75391618Y-66258619D02*
X75201142Y-66353857D01*
X75201142Y-66353857D02*
X74439237Y-66353857D01*
X76439237Y-66544333D02*
X77963047Y-66544333D01*
X79772570Y-65972904D02*
X79772570Y-67306238D01*
X79296379Y-65211000D02*
X78820189Y-66639571D01*
X78820189Y-66639571D02*
X80058284Y-66639571D01*
X81201141Y-65306238D02*
X81391618Y-65306238D01*
X81391618Y-65306238D02*
X81582094Y-65401476D01*
X81582094Y-65401476D02*
X81677332Y-65496714D01*
X81677332Y-65496714D02*
X81772570Y-65687190D01*
X81772570Y-65687190D02*
X81867808Y-66068142D01*
X81867808Y-66068142D02*
X81867808Y-66544333D01*
X81867808Y-66544333D02*
X81772570Y-66925285D01*
X81772570Y-66925285D02*
X81677332Y-67115761D01*
X81677332Y-67115761D02*
X81582094Y-67211000D01*
X81582094Y-67211000D02*
X81391618Y-67306238D01*
X81391618Y-67306238D02*
X81201141Y-67306238D01*
X81201141Y-67306238D02*
X81010665Y-67211000D01*
X81010665Y-67211000D02*
X80915427Y-67115761D01*
X80915427Y-67115761D02*
X80820189Y-66925285D01*
X80820189Y-66925285D02*
X80724951Y-66544333D01*
X80724951Y-66544333D02*
X80724951Y-66068142D01*
X80724951Y-66068142D02*
X80820189Y-65687190D01*
X80820189Y-65687190D02*
X80915427Y-65496714D01*
X80915427Y-65496714D02*
X81010665Y-65401476D01*
X81010665Y-65401476D02*
X81201141Y-65306238D01*
X84248761Y-67306238D02*
X84248761Y-65306238D01*
X84248761Y-66068142D02*
X84439237Y-65972904D01*
X84439237Y-65972904D02*
X84820190Y-65972904D01*
X84820190Y-65972904D02*
X85010666Y-66068142D01*
X85010666Y-66068142D02*
X85105904Y-66163380D01*
X85105904Y-66163380D02*
X85201142Y-66353857D01*
X85201142Y-66353857D02*
X85201142Y-66925285D01*
X85201142Y-66925285D02*
X85105904Y-67115761D01*
X85105904Y-67115761D02*
X85010666Y-67211000D01*
X85010666Y-67211000D02*
X84820190Y-67306238D01*
X84820190Y-67306238D02*
X84439237Y-67306238D01*
X84439237Y-67306238D02*
X84248761Y-67211000D01*
X86058285Y-67306238D02*
X86058285Y-65972904D01*
X86058285Y-66353857D02*
X86153523Y-66163380D01*
X86153523Y-66163380D02*
X86248761Y-66068142D01*
X86248761Y-66068142D02*
X86439237Y-65972904D01*
X86439237Y-65972904D02*
X86629714Y-65972904D01*
X88058285Y-67211000D02*
X87867809Y-67306238D01*
X87867809Y-67306238D02*
X87486856Y-67306238D01*
X87486856Y-67306238D02*
X87296380Y-67211000D01*
X87296380Y-67211000D02*
X87201142Y-67020523D01*
X87201142Y-67020523D02*
X87201142Y-66258619D01*
X87201142Y-66258619D02*
X87296380Y-66068142D01*
X87296380Y-66068142D02*
X87486856Y-65972904D01*
X87486856Y-65972904D02*
X87867809Y-65972904D01*
X87867809Y-65972904D02*
X88058285Y-66068142D01*
X88058285Y-66068142D02*
X88153523Y-66258619D01*
X88153523Y-66258619D02*
X88153523Y-66449095D01*
X88153523Y-66449095D02*
X87201142Y-66639571D01*
X89867809Y-67306238D02*
X89867809Y-66258619D01*
X89867809Y-66258619D02*
X89772571Y-66068142D01*
X89772571Y-66068142D02*
X89582095Y-65972904D01*
X89582095Y-65972904D02*
X89201142Y-65972904D01*
X89201142Y-65972904D02*
X89010666Y-66068142D01*
X89867809Y-67211000D02*
X89677333Y-67306238D01*
X89677333Y-67306238D02*
X89201142Y-67306238D01*
X89201142Y-67306238D02*
X89010666Y-67211000D01*
X89010666Y-67211000D02*
X88915428Y-67020523D01*
X88915428Y-67020523D02*
X88915428Y-66830047D01*
X88915428Y-66830047D02*
X89010666Y-66639571D01*
X89010666Y-66639571D02*
X89201142Y-66544333D01*
X89201142Y-66544333D02*
X89677333Y-66544333D01*
X89677333Y-66544333D02*
X89867809Y-66449095D01*
X90820190Y-67306238D02*
X90820190Y-65306238D01*
X91010666Y-66544333D02*
X91582095Y-67306238D01*
X91582095Y-65972904D02*
X90820190Y-66734809D01*
X92724952Y-67306238D02*
X92534476Y-67211000D01*
X92534476Y-67211000D02*
X92439238Y-67115761D01*
X92439238Y-67115761D02*
X92344000Y-66925285D01*
X92344000Y-66925285D02*
X92344000Y-66353857D01*
X92344000Y-66353857D02*
X92439238Y-66163380D01*
X92439238Y-66163380D02*
X92534476Y-66068142D01*
X92534476Y-66068142D02*
X92724952Y-65972904D01*
X92724952Y-65972904D02*
X93010667Y-65972904D01*
X93010667Y-65972904D02*
X93201143Y-66068142D01*
X93201143Y-66068142D02*
X93296381Y-66163380D01*
X93296381Y-66163380D02*
X93391619Y-66353857D01*
X93391619Y-66353857D02*
X93391619Y-66925285D01*
X93391619Y-66925285D02*
X93296381Y-67115761D01*
X93296381Y-67115761D02*
X93201143Y-67211000D01*
X93201143Y-67211000D02*
X93010667Y-67306238D01*
X93010667Y-67306238D02*
X92724952Y-67306238D01*
X95105905Y-65972904D02*
X95105905Y-67306238D01*
X94248762Y-65972904D02*
X94248762Y-67020523D01*
X94248762Y-67020523D02*
X94344000Y-67211000D01*
X94344000Y-67211000D02*
X94534476Y-67306238D01*
X94534476Y-67306238D02*
X94820191Y-67306238D01*
X94820191Y-67306238D02*
X95010667Y-67211000D01*
X95010667Y-67211000D02*
X95105905Y-67115761D01*
X95772572Y-65972904D02*
X96534476Y-65972904D01*
X96058286Y-65306238D02*
X96058286Y-67020523D01*
X96058286Y-67020523D02*
X96153524Y-67211000D01*
X96153524Y-67211000D02*
X96344000Y-67306238D01*
X96344000Y-67306238D02*
X96534476Y-67306238D01*
X98724953Y-67306238D02*
X98724953Y-65306238D01*
X98724953Y-66068142D02*
X98915429Y-65972904D01*
X98915429Y-65972904D02*
X99296382Y-65972904D01*
X99296382Y-65972904D02*
X99486858Y-66068142D01*
X99486858Y-66068142D02*
X99582096Y-66163380D01*
X99582096Y-66163380D02*
X99677334Y-66353857D01*
X99677334Y-66353857D02*
X99677334Y-66925285D01*
X99677334Y-66925285D02*
X99582096Y-67115761D01*
X99582096Y-67115761D02*
X99486858Y-67211000D01*
X99486858Y-67211000D02*
X99296382Y-67306238D01*
X99296382Y-67306238D02*
X98915429Y-67306238D01*
X98915429Y-67306238D02*
X98724953Y-67211000D01*
X100820191Y-67306238D02*
X100629715Y-67211000D01*
X100629715Y-67211000D02*
X100534477Y-67115761D01*
X100534477Y-67115761D02*
X100439239Y-66925285D01*
X100439239Y-66925285D02*
X100439239Y-66353857D01*
X100439239Y-66353857D02*
X100534477Y-66163380D01*
X100534477Y-66163380D02*
X100629715Y-66068142D01*
X100629715Y-66068142D02*
X100820191Y-65972904D01*
X100820191Y-65972904D02*
X101105906Y-65972904D01*
X101105906Y-65972904D02*
X101296382Y-66068142D01*
X101296382Y-66068142D02*
X101391620Y-66163380D01*
X101391620Y-66163380D02*
X101486858Y-66353857D01*
X101486858Y-66353857D02*
X101486858Y-66925285D01*
X101486858Y-66925285D02*
X101391620Y-67115761D01*
X101391620Y-67115761D02*
X101296382Y-67211000D01*
X101296382Y-67211000D02*
X101105906Y-67306238D01*
X101105906Y-67306238D02*
X100820191Y-67306238D01*
X103201144Y-67306238D02*
X103201144Y-66258619D01*
X103201144Y-66258619D02*
X103105906Y-66068142D01*
X103105906Y-66068142D02*
X102915430Y-65972904D01*
X102915430Y-65972904D02*
X102534477Y-65972904D01*
X102534477Y-65972904D02*
X102344001Y-66068142D01*
X103201144Y-67211000D02*
X103010668Y-67306238D01*
X103010668Y-67306238D02*
X102534477Y-67306238D01*
X102534477Y-67306238D02*
X102344001Y-67211000D01*
X102344001Y-67211000D02*
X102248763Y-67020523D01*
X102248763Y-67020523D02*
X102248763Y-66830047D01*
X102248763Y-66830047D02*
X102344001Y-66639571D01*
X102344001Y-66639571D02*
X102534477Y-66544333D01*
X102534477Y-66544333D02*
X103010668Y-66544333D01*
X103010668Y-66544333D02*
X103201144Y-66449095D01*
X104153525Y-67306238D02*
X104153525Y-65972904D01*
X104153525Y-66353857D02*
X104248763Y-66163380D01*
X104248763Y-66163380D02*
X104344001Y-66068142D01*
X104344001Y-66068142D02*
X104534477Y-65972904D01*
X104534477Y-65972904D02*
X104724954Y-65972904D01*
X106248763Y-67306238D02*
X106248763Y-65306238D01*
X106248763Y-67211000D02*
X106058287Y-67306238D01*
X106058287Y-67306238D02*
X105677334Y-67306238D01*
X105677334Y-67306238D02*
X105486858Y-67211000D01*
X105486858Y-67211000D02*
X105391620Y-67115761D01*
X105391620Y-67115761D02*
X105296382Y-66925285D01*
X105296382Y-66925285D02*
X105296382Y-66353857D01*
X105296382Y-66353857D02*
X105391620Y-66163380D01*
X105391620Y-66163380D02*
X105486858Y-66068142D01*
X105486858Y-66068142D02*
X105677334Y-65972904D01*
X105677334Y-65972904D02*
X106058287Y-65972904D01*
X106058287Y-65972904D02*
X106248763Y-66068142D01*
D12*
X118847051Y-62565665D02*
X118904194Y-62622808D01*
X118904194Y-62622808D02*
X118961337Y-62737094D01*
X118961337Y-62737094D02*
X118961337Y-63022808D01*
X118961337Y-63022808D02*
X118904194Y-63137094D01*
X118904194Y-63137094D02*
X118847051Y-63194236D01*
X118847051Y-63194236D02*
X118732765Y-63251379D01*
X118732765Y-63251379D02*
X118618480Y-63251379D01*
X118618480Y-63251379D02*
X118447051Y-63194236D01*
X118447051Y-63194236D02*
X117761337Y-62508522D01*
X117761337Y-62508522D02*
X117761337Y-63251379D01*
X118961337Y-63994236D02*
X118961337Y-64108522D01*
X118961337Y-64108522D02*
X118904194Y-64222808D01*
X118904194Y-64222808D02*
X118847051Y-64279951D01*
X118847051Y-64279951D02*
X118732765Y-64337093D01*
X118732765Y-64337093D02*
X118504194Y-64394236D01*
X118504194Y-64394236D02*
X118218480Y-64394236D01*
X118218480Y-64394236D02*
X117989908Y-64337093D01*
X117989908Y-64337093D02*
X117875622Y-64279951D01*
X117875622Y-64279951D02*
X117818480Y-64222808D01*
X117818480Y-64222808D02*
X117761337Y-64108522D01*
X117761337Y-64108522D02*
X117761337Y-63994236D01*
X117761337Y-63994236D02*
X117818480Y-63879951D01*
X117818480Y-63879951D02*
X117875622Y-63822808D01*
X117875622Y-63822808D02*
X117989908Y-63765665D01*
X117989908Y-63765665D02*
X118218480Y-63708522D01*
X118218480Y-63708522D02*
X118504194Y-63708522D01*
X118504194Y-63708522D02*
X118732765Y-63765665D01*
X118732765Y-63765665D02*
X118847051Y-63822808D01*
X118847051Y-63822808D02*
X118904194Y-63879951D01*
X118904194Y-63879951D02*
X118961337Y-63994236D01*
X118847051Y-64851379D02*
X118904194Y-64908522D01*
X118904194Y-64908522D02*
X118961337Y-65022808D01*
X118961337Y-65022808D02*
X118961337Y-65308522D01*
X118961337Y-65308522D02*
X118904194Y-65422808D01*
X118904194Y-65422808D02*
X118847051Y-65479950D01*
X118847051Y-65479950D02*
X118732765Y-65537093D01*
X118732765Y-65537093D02*
X118618480Y-65537093D01*
X118618480Y-65537093D02*
X118447051Y-65479950D01*
X118447051Y-65479950D02*
X117761337Y-64794236D01*
X117761337Y-64794236D02*
X117761337Y-65537093D01*
X118961337Y-66565665D02*
X118961337Y-66337093D01*
X118961337Y-66337093D02*
X118904194Y-66222807D01*
X118904194Y-66222807D02*
X118847051Y-66165665D01*
X118847051Y-66165665D02*
X118675622Y-66051379D01*
X118675622Y-66051379D02*
X118447051Y-65994236D01*
X118447051Y-65994236D02*
X117989908Y-65994236D01*
X117989908Y-65994236D02*
X117875622Y-66051379D01*
X117875622Y-66051379D02*
X117818480Y-66108522D01*
X117818480Y-66108522D02*
X117761337Y-66222807D01*
X117761337Y-66222807D02*
X117761337Y-66451379D01*
X117761337Y-66451379D02*
X117818480Y-66565665D01*
X117818480Y-66565665D02*
X117875622Y-66622807D01*
X117875622Y-66622807D02*
X117989908Y-66679950D01*
X117989908Y-66679950D02*
X118275622Y-66679950D01*
X118275622Y-66679950D02*
X118389908Y-66622807D01*
X118389908Y-66622807D02*
X118447051Y-66565665D01*
X118447051Y-66565665D02*
X118504194Y-66451379D01*
X118504194Y-66451379D02*
X118504194Y-66222807D01*
X118504194Y-66222807D02*
X118447051Y-66108522D01*
X118447051Y-66108522D02*
X118389908Y-66051379D01*
X118389908Y-66051379D02*
X118275622Y-65994236D01*
X118218480Y-67194236D02*
X118218480Y-68108522D01*
X118961337Y-68908521D02*
X118961337Y-69022807D01*
X118961337Y-69022807D02*
X118904194Y-69137093D01*
X118904194Y-69137093D02*
X118847051Y-69194236D01*
X118847051Y-69194236D02*
X118732765Y-69251378D01*
X118732765Y-69251378D02*
X118504194Y-69308521D01*
X118504194Y-69308521D02*
X118218480Y-69308521D01*
X118218480Y-69308521D02*
X117989908Y-69251378D01*
X117989908Y-69251378D02*
X117875622Y-69194236D01*
X117875622Y-69194236D02*
X117818480Y-69137093D01*
X117818480Y-69137093D02*
X117761337Y-69022807D01*
X117761337Y-69022807D02*
X117761337Y-68908521D01*
X117761337Y-68908521D02*
X117818480Y-68794236D01*
X117818480Y-68794236D02*
X117875622Y-68737093D01*
X117875622Y-68737093D02*
X117989908Y-68679950D01*
X117989908Y-68679950D02*
X118218480Y-68622807D01*
X118218480Y-68622807D02*
X118504194Y-68622807D01*
X118504194Y-68622807D02*
X118732765Y-68679950D01*
X118732765Y-68679950D02*
X118847051Y-68737093D01*
X118847051Y-68737093D02*
X118904194Y-68794236D01*
X118904194Y-68794236D02*
X118961337Y-68908521D01*
X118561337Y-70337093D02*
X117761337Y-70337093D01*
X119018480Y-70051378D02*
X118161337Y-69765664D01*
X118161337Y-69765664D02*
X118161337Y-70508521D01*
X118218480Y-70965664D02*
X118218480Y-71879950D01*
X118961337Y-72337092D02*
X118961337Y-73079949D01*
X118961337Y-73079949D02*
X118504194Y-72679949D01*
X118504194Y-72679949D02*
X118504194Y-72851378D01*
X118504194Y-72851378D02*
X118447051Y-72965664D01*
X118447051Y-72965664D02*
X118389908Y-73022806D01*
X118389908Y-73022806D02*
X118275622Y-73079949D01*
X118275622Y-73079949D02*
X117989908Y-73079949D01*
X117989908Y-73079949D02*
X117875622Y-73022806D01*
X117875622Y-73022806D02*
X117818480Y-72965664D01*
X117818480Y-72965664D02*
X117761337Y-72851378D01*
X117761337Y-72851378D02*
X117761337Y-72508521D01*
X117761337Y-72508521D02*
X117818480Y-72394235D01*
X117818480Y-72394235D02*
X117875622Y-72337092D01*
X118961337Y-73822806D02*
X118961337Y-73937092D01*
X118961337Y-73937092D02*
X118904194Y-74051378D01*
X118904194Y-74051378D02*
X118847051Y-74108521D01*
X118847051Y-74108521D02*
X118732765Y-74165663D01*
X118732765Y-74165663D02*
X118504194Y-74222806D01*
X118504194Y-74222806D02*
X118218480Y-74222806D01*
X118218480Y-74222806D02*
X117989908Y-74165663D01*
X117989908Y-74165663D02*
X117875622Y-74108521D01*
X117875622Y-74108521D02*
X117818480Y-74051378D01*
X117818480Y-74051378D02*
X117761337Y-73937092D01*
X117761337Y-73937092D02*
X117761337Y-73822806D01*
X117761337Y-73822806D02*
X117818480Y-73708521D01*
X117818480Y-73708521D02*
X117875622Y-73651378D01*
X117875622Y-73651378D02*
X117989908Y-73594235D01*
X117989908Y-73594235D02*
X118218480Y-73537092D01*
X118218480Y-73537092D02*
X118504194Y-73537092D01*
X118504194Y-73537092D02*
X118732765Y-73594235D01*
X118732765Y-73594235D02*
X118847051Y-73651378D01*
X118847051Y-73651378D02*
X118904194Y-73708521D01*
X118904194Y-73708521D02*
X118961337Y-73822806D01*
X118961337Y-75479949D02*
X117761337Y-75879949D01*
X117761337Y-75879949D02*
X118961337Y-76279949D01*
X117761337Y-77308520D02*
X117761337Y-76622806D01*
X117761337Y-76965663D02*
X118961337Y-76965663D01*
X118961337Y-76965663D02*
X118789908Y-76851377D01*
X118789908Y-76851377D02*
X118675622Y-76737092D01*
X118675622Y-76737092D02*
X118618480Y-76622806D01*
X117761337Y-78508520D02*
X118332765Y-78108520D01*
X117761337Y-77822806D02*
X118961337Y-77822806D01*
X118961337Y-77822806D02*
X118961337Y-78279949D01*
X118961337Y-78279949D02*
X118904194Y-78394234D01*
X118904194Y-78394234D02*
X118847051Y-78451377D01*
X118847051Y-78451377D02*
X118732765Y-78508520D01*
X118732765Y-78508520D02*
X118561337Y-78508520D01*
X118561337Y-78508520D02*
X118447051Y-78451377D01*
X118447051Y-78451377D02*
X118389908Y-78394234D01*
X118389908Y-78394234D02*
X118332765Y-78279949D01*
X118332765Y-78279949D02*
X118332765Y-77822806D01*
X118847051Y-78965663D02*
X118904194Y-79022806D01*
X118904194Y-79022806D02*
X118961337Y-79137092D01*
X118961337Y-79137092D02*
X118961337Y-79422806D01*
X118961337Y-79422806D02*
X118904194Y-79537092D01*
X118904194Y-79537092D02*
X118847051Y-79594234D01*
X118847051Y-79594234D02*
X118732765Y-79651377D01*
X118732765Y-79651377D02*
X118618480Y-79651377D01*
X118618480Y-79651377D02*
X118447051Y-79594234D01*
X118447051Y-79594234D02*
X117761337Y-78908520D01*
X117761337Y-78908520D02*
X117761337Y-79651377D01*
X118307337Y-94429894D02*
X117335908Y-94429894D01*
X117335908Y-94429894D02*
X117221622Y-94372751D01*
X117221622Y-94372751D02*
X117164480Y-94315608D01*
X117164480Y-94315608D02*
X117107337Y-94201322D01*
X117107337Y-94201322D02*
X117107337Y-94029894D01*
X117107337Y-94029894D02*
X117164480Y-93915608D01*
X117564480Y-94429894D02*
X117507337Y-94315608D01*
X117507337Y-94315608D02*
X117507337Y-94087036D01*
X117507337Y-94087036D02*
X117564480Y-93972751D01*
X117564480Y-93972751D02*
X117621622Y-93915608D01*
X117621622Y-93915608D02*
X117735908Y-93858465D01*
X117735908Y-93858465D02*
X118078765Y-93858465D01*
X118078765Y-93858465D02*
X118193051Y-93915608D01*
X118193051Y-93915608D02*
X118250194Y-93972751D01*
X118250194Y-93972751D02*
X118307337Y-94087036D01*
X118307337Y-94087036D02*
X118307337Y-94315608D01*
X118307337Y-94315608D02*
X118250194Y-94429894D01*
X117507337Y-95001322D02*
X118307337Y-95001322D01*
X118707337Y-95001322D02*
X118650194Y-94944179D01*
X118650194Y-94944179D02*
X118593051Y-95001322D01*
X118593051Y-95001322D02*
X118650194Y-95058465D01*
X118650194Y-95058465D02*
X118707337Y-95001322D01*
X118707337Y-95001322D02*
X118593051Y-95001322D01*
X118307337Y-95401322D02*
X118307337Y-95858465D01*
X118707337Y-95572751D02*
X117678765Y-95572751D01*
X117678765Y-95572751D02*
X117564480Y-95629894D01*
X117564480Y-95629894D02*
X117507337Y-95744179D01*
X117507337Y-95744179D02*
X117507337Y-95858465D01*
X117507337Y-96258465D02*
X118707337Y-96258465D01*
X117507337Y-96772751D02*
X118135908Y-96772751D01*
X118135908Y-96772751D02*
X118250194Y-96715608D01*
X118250194Y-96715608D02*
X118307337Y-96601322D01*
X118307337Y-96601322D02*
X118307337Y-96429893D01*
X118307337Y-96429893D02*
X118250194Y-96315608D01*
X118250194Y-96315608D02*
X118193051Y-96258465D01*
X118307337Y-97858465D02*
X117507337Y-97858465D01*
X118307337Y-97344179D02*
X117678765Y-97344179D01*
X117678765Y-97344179D02*
X117564480Y-97401322D01*
X117564480Y-97401322D02*
X117507337Y-97515607D01*
X117507337Y-97515607D02*
X117507337Y-97687036D01*
X117507337Y-97687036D02*
X117564480Y-97801322D01*
X117564480Y-97801322D02*
X117621622Y-97858465D01*
X117507337Y-98429893D02*
X118707337Y-98429893D01*
X118250194Y-98429893D02*
X118307337Y-98544179D01*
X118307337Y-98544179D02*
X118307337Y-98772750D01*
X118307337Y-98772750D02*
X118250194Y-98887036D01*
X118250194Y-98887036D02*
X118193051Y-98944179D01*
X118193051Y-98944179D02*
X118078765Y-99001321D01*
X118078765Y-99001321D02*
X117735908Y-99001321D01*
X117735908Y-99001321D02*
X117621622Y-98944179D01*
X117621622Y-98944179D02*
X117564480Y-98887036D01*
X117564480Y-98887036D02*
X117507337Y-98772750D01*
X117507337Y-98772750D02*
X117507337Y-98544179D01*
X117507337Y-98544179D02*
X117564480Y-98429893D01*
X117621622Y-99515607D02*
X117564480Y-99572750D01*
X117564480Y-99572750D02*
X117507337Y-99515607D01*
X117507337Y-99515607D02*
X117564480Y-99458464D01*
X117564480Y-99458464D02*
X117621622Y-99515607D01*
X117621622Y-99515607D02*
X117507337Y-99515607D01*
X117564480Y-100601322D02*
X117507337Y-100487036D01*
X117507337Y-100487036D02*
X117507337Y-100258464D01*
X117507337Y-100258464D02*
X117564480Y-100144179D01*
X117564480Y-100144179D02*
X117621622Y-100087036D01*
X117621622Y-100087036D02*
X117735908Y-100029893D01*
X117735908Y-100029893D02*
X118078765Y-100029893D01*
X118078765Y-100029893D02*
X118193051Y-100087036D01*
X118193051Y-100087036D02*
X118250194Y-100144179D01*
X118250194Y-100144179D02*
X118307337Y-100258464D01*
X118307337Y-100258464D02*
X118307337Y-100487036D01*
X118307337Y-100487036D02*
X118250194Y-100601322D01*
X117507337Y-101287035D02*
X117564480Y-101172750D01*
X117564480Y-101172750D02*
X117621622Y-101115607D01*
X117621622Y-101115607D02*
X117735908Y-101058464D01*
X117735908Y-101058464D02*
X118078765Y-101058464D01*
X118078765Y-101058464D02*
X118193051Y-101115607D01*
X118193051Y-101115607D02*
X118250194Y-101172750D01*
X118250194Y-101172750D02*
X118307337Y-101287035D01*
X118307337Y-101287035D02*
X118307337Y-101458464D01*
X118307337Y-101458464D02*
X118250194Y-101572750D01*
X118250194Y-101572750D02*
X118193051Y-101629893D01*
X118193051Y-101629893D02*
X118078765Y-101687035D01*
X118078765Y-101687035D02*
X117735908Y-101687035D01*
X117735908Y-101687035D02*
X117621622Y-101629893D01*
X117621622Y-101629893D02*
X117564480Y-101572750D01*
X117564480Y-101572750D02*
X117507337Y-101458464D01*
X117507337Y-101458464D02*
X117507337Y-101287035D01*
X117507337Y-102201321D02*
X118307337Y-102201321D01*
X118193051Y-102201321D02*
X118250194Y-102258464D01*
X118250194Y-102258464D02*
X118307337Y-102372749D01*
X118307337Y-102372749D02*
X118307337Y-102544178D01*
X118307337Y-102544178D02*
X118250194Y-102658464D01*
X118250194Y-102658464D02*
X118135908Y-102715607D01*
X118135908Y-102715607D02*
X117507337Y-102715607D01*
X118135908Y-102715607D02*
X118250194Y-102772749D01*
X118250194Y-102772749D02*
X118307337Y-102887035D01*
X118307337Y-102887035D02*
X118307337Y-103058464D01*
X118307337Y-103058464D02*
X118250194Y-103172749D01*
X118250194Y-103172749D02*
X118135908Y-103229892D01*
X118135908Y-103229892D02*
X117507337Y-103229892D01*
X118764480Y-104658464D02*
X117221622Y-103629892D01*
X118307337Y-104887035D02*
X118307337Y-105344178D01*
X118707337Y-105058464D02*
X117678765Y-105058464D01*
X117678765Y-105058464D02*
X117564480Y-105115607D01*
X117564480Y-105115607D02*
X117507337Y-105229892D01*
X117507337Y-105229892D02*
X117507337Y-105344178D01*
X117564480Y-106258464D02*
X117507337Y-106144178D01*
X117507337Y-106144178D02*
X117507337Y-105915606D01*
X117507337Y-105915606D02*
X117564480Y-105801321D01*
X117564480Y-105801321D02*
X117621622Y-105744178D01*
X117621622Y-105744178D02*
X117735908Y-105687035D01*
X117735908Y-105687035D02*
X118078765Y-105687035D01*
X118078765Y-105687035D02*
X118193051Y-105744178D01*
X118193051Y-105744178D02*
X118250194Y-105801321D01*
X118250194Y-105801321D02*
X118307337Y-105915606D01*
X118307337Y-105915606D02*
X118307337Y-106144178D01*
X118307337Y-106144178D02*
X118250194Y-106258464D01*
X117507337Y-106944177D02*
X117564480Y-106829892D01*
X117564480Y-106829892D02*
X117678765Y-106772749D01*
X117678765Y-106772749D02*
X118707337Y-106772749D01*
X117564480Y-107858463D02*
X117507337Y-107744177D01*
X117507337Y-107744177D02*
X117507337Y-107515606D01*
X117507337Y-107515606D02*
X117564480Y-107401320D01*
X117564480Y-107401320D02*
X117678765Y-107344177D01*
X117678765Y-107344177D02*
X118135908Y-107344177D01*
X118135908Y-107344177D02*
X118250194Y-107401320D01*
X118250194Y-107401320D02*
X118307337Y-107515606D01*
X118307337Y-107515606D02*
X118307337Y-107744177D01*
X118307337Y-107744177D02*
X118250194Y-107858463D01*
X118250194Y-107858463D02*
X118135908Y-107915606D01*
X118135908Y-107915606D02*
X118021622Y-107915606D01*
X118021622Y-107915606D02*
X117907337Y-107344177D01*
X118307337Y-108315605D02*
X117507337Y-108601319D01*
X117507337Y-108601319D02*
X118307337Y-108887034D01*
X117564480Y-109801320D02*
X117507337Y-109687034D01*
X117507337Y-109687034D02*
X117507337Y-109458463D01*
X117507337Y-109458463D02*
X117564480Y-109344177D01*
X117564480Y-109344177D02*
X117678765Y-109287034D01*
X117678765Y-109287034D02*
X118135908Y-109287034D01*
X118135908Y-109287034D02*
X118250194Y-109344177D01*
X118250194Y-109344177D02*
X118307337Y-109458463D01*
X118307337Y-109458463D02*
X118307337Y-109687034D01*
X118307337Y-109687034D02*
X118250194Y-109801320D01*
X118250194Y-109801320D02*
X118135908Y-109858463D01*
X118135908Y-109858463D02*
X118021622Y-109858463D01*
X118021622Y-109858463D02*
X117907337Y-109287034D01*
X118307337Y-110372748D02*
X117507337Y-110372748D01*
X118193051Y-110372748D02*
X118250194Y-110429891D01*
X118250194Y-110429891D02*
X118307337Y-110544176D01*
X118307337Y-110544176D02*
X118307337Y-110715605D01*
X118307337Y-110715605D02*
X118250194Y-110829891D01*
X118250194Y-110829891D02*
X118135908Y-110887034D01*
X118135908Y-110887034D02*
X117507337Y-110887034D01*
X118307337Y-111972748D02*
X117335908Y-111972748D01*
X117335908Y-111972748D02*
X117221622Y-111915605D01*
X117221622Y-111915605D02*
X117164480Y-111858462D01*
X117164480Y-111858462D02*
X117107337Y-111744176D01*
X117107337Y-111744176D02*
X117107337Y-111572748D01*
X117107337Y-111572748D02*
X117164480Y-111458462D01*
X117564480Y-111972748D02*
X117507337Y-111858462D01*
X117507337Y-111858462D02*
X117507337Y-111629890D01*
X117507337Y-111629890D02*
X117564480Y-111515605D01*
X117564480Y-111515605D02*
X117621622Y-111458462D01*
X117621622Y-111458462D02*
X117735908Y-111401319D01*
X117735908Y-111401319D02*
X118078765Y-111401319D01*
X118078765Y-111401319D02*
X118193051Y-111458462D01*
X118193051Y-111458462D02*
X118250194Y-111515605D01*
X118250194Y-111515605D02*
X118307337Y-111629890D01*
X118307337Y-111629890D02*
X118307337Y-111858462D01*
X118307337Y-111858462D02*
X118250194Y-111972748D01*
X117564480Y-113001319D02*
X117507337Y-112887033D01*
X117507337Y-112887033D02*
X117507337Y-112658462D01*
X117507337Y-112658462D02*
X117564480Y-112544176D01*
X117564480Y-112544176D02*
X117678765Y-112487033D01*
X117678765Y-112487033D02*
X118135908Y-112487033D01*
X118135908Y-112487033D02*
X118250194Y-112544176D01*
X118250194Y-112544176D02*
X118307337Y-112658462D01*
X118307337Y-112658462D02*
X118307337Y-112887033D01*
X118307337Y-112887033D02*
X118250194Y-113001319D01*
X118250194Y-113001319D02*
X118135908Y-113058462D01*
X118135908Y-113058462D02*
X118021622Y-113058462D01*
X118021622Y-113058462D02*
X117907337Y-112487033D01*
X117507337Y-113572747D02*
X118307337Y-113572747D01*
X118078765Y-113572747D02*
X118193051Y-113629890D01*
X118193051Y-113629890D02*
X118250194Y-113687033D01*
X118250194Y-113687033D02*
X118307337Y-113801318D01*
X118307337Y-113801318D02*
X118307337Y-113915604D01*
D10*
X52547825Y-82130167D02*
X52487348Y-82311596D01*
X52487348Y-82311596D02*
X52487348Y-82613977D01*
X52487348Y-82613977D02*
X52547825Y-82734929D01*
X52547825Y-82734929D02*
X52608301Y-82795405D01*
X52608301Y-82795405D02*
X52729253Y-82855882D01*
X52729253Y-82855882D02*
X52850205Y-82855882D01*
X52850205Y-82855882D02*
X52971158Y-82795405D01*
X52971158Y-82795405D02*
X53031634Y-82734929D01*
X53031634Y-82734929D02*
X53092110Y-82613977D01*
X53092110Y-82613977D02*
X53152586Y-82372072D01*
X53152586Y-82372072D02*
X53213063Y-82251120D01*
X53213063Y-82251120D02*
X53273539Y-82190643D01*
X53273539Y-82190643D02*
X53394491Y-82130167D01*
X53394491Y-82130167D02*
X53515444Y-82130167D01*
X53515444Y-82130167D02*
X53636396Y-82190643D01*
X53636396Y-82190643D02*
X53696872Y-82251120D01*
X53696872Y-82251120D02*
X53757348Y-82372072D01*
X53757348Y-82372072D02*
X53757348Y-82674453D01*
X53757348Y-82674453D02*
X53696872Y-82855882D01*
X52487348Y-83400167D02*
X53757348Y-83400167D01*
X53152586Y-83400167D02*
X53152586Y-84125882D01*
X52487348Y-84125882D02*
X53757348Y-84125882D01*
X52487348Y-84730643D02*
X53757348Y-84730643D01*
X53152586Y-85335405D02*
X53152586Y-85758739D01*
X52487348Y-85940167D02*
X52487348Y-85335405D01*
X52487348Y-85335405D02*
X53757348Y-85335405D01*
X53757348Y-85335405D02*
X53757348Y-85940167D01*
X52487348Y-87089215D02*
X52487348Y-86484453D01*
X52487348Y-86484453D02*
X53757348Y-86484453D01*
X52487348Y-87512548D02*
X53757348Y-87512548D01*
X53757348Y-87512548D02*
X53757348Y-87814929D01*
X53757348Y-87814929D02*
X53696872Y-87996358D01*
X53696872Y-87996358D02*
X53575920Y-88117310D01*
X53575920Y-88117310D02*
X53454967Y-88177787D01*
X53454967Y-88177787D02*
X53213063Y-88238263D01*
X53213063Y-88238263D02*
X53031634Y-88238263D01*
X53031634Y-88238263D02*
X52789729Y-88177787D01*
X52789729Y-88177787D02*
X52668777Y-88117310D01*
X52668777Y-88117310D02*
X52547825Y-87996358D01*
X52547825Y-87996358D02*
X52487348Y-87814929D01*
X52487348Y-87814929D02*
X52487348Y-87512548D01*
D13*
X84894406Y-111992811D02*
X84894406Y-113166259D01*
X84894406Y-113166259D02*
X84816176Y-113400949D01*
X84816176Y-113400949D02*
X84659716Y-113557409D01*
X84659716Y-113557409D02*
X84425027Y-113635638D01*
X84425027Y-113635638D02*
X84268567Y-113635638D01*
X86537233Y-113635638D02*
X85598475Y-113635638D01*
X86067854Y-113635638D02*
X86067854Y-111992811D01*
X86067854Y-111992811D02*
X85911394Y-112227501D01*
X85911394Y-112227501D02*
X85754935Y-112383961D01*
X85754935Y-112383961D02*
X85598475Y-112462191D01*
X96650383Y-121185287D02*
X96698059Y-121137611D01*
X96698059Y-121137611D02*
X96793411Y-121089935D01*
X96793411Y-121089935D02*
X97031791Y-121089935D01*
X97031791Y-121089935D02*
X97127143Y-121137611D01*
X97127143Y-121137611D02*
X97174819Y-121185287D01*
X97174819Y-121185287D02*
X97222495Y-121280639D01*
X97222495Y-121280639D02*
X97222495Y-121375991D01*
X97222495Y-121375991D02*
X97174819Y-121519019D01*
X97174819Y-121519019D02*
X96602707Y-122091132D01*
X96602707Y-122091132D02*
X97222495Y-122091132D01*
X98176016Y-122091132D02*
X97603904Y-122091132D01*
X97889960Y-122091132D02*
X97889960Y-121089935D01*
X97889960Y-121089935D02*
X97794608Y-121232963D01*
X97794608Y-121232963D02*
X97699256Y-121328315D01*
X97699256Y-121328315D02*
X97603904Y-121375991D01*
X69134302Y-117446676D02*
X69181982Y-117398996D01*
X69181982Y-117398996D02*
X69277343Y-117351315D01*
X69277343Y-117351315D02*
X69515746Y-117351315D01*
X69515746Y-117351315D02*
X69611107Y-117398996D01*
X69611107Y-117398996D02*
X69658787Y-117446676D01*
X69658787Y-117446676D02*
X69706468Y-117542037D01*
X69706468Y-117542037D02*
X69706468Y-117637398D01*
X69706468Y-117637398D02*
X69658787Y-117780440D01*
X69658787Y-117780440D02*
X69086621Y-118352606D01*
X69086621Y-118352606D02*
X69706468Y-118352606D01*
X70326314Y-117351315D02*
X70421675Y-117351315D01*
X70421675Y-117351315D02*
X70517036Y-117398996D01*
X70517036Y-117398996D02*
X70564717Y-117446676D01*
X70564717Y-117446676D02*
X70612397Y-117542037D01*
X70612397Y-117542037D02*
X70660078Y-117732759D01*
X70660078Y-117732759D02*
X70660078Y-117971162D01*
X70660078Y-117971162D02*
X70612397Y-118161884D01*
X70612397Y-118161884D02*
X70564717Y-118257245D01*
X70564717Y-118257245D02*
X70517036Y-118304926D01*
X70517036Y-118304926D02*
X70421675Y-118352606D01*
X70421675Y-118352606D02*
X70326314Y-118352606D01*
X70326314Y-118352606D02*
X70230953Y-118304926D01*
X70230953Y-118304926D02*
X70183273Y-118257245D01*
X70183273Y-118257245D02*
X70135592Y-118161884D01*
X70135592Y-118161884D02*
X70087912Y-117971162D01*
X70087912Y-117971162D02*
X70087912Y-117732759D01*
X70087912Y-117732759D02*
X70135592Y-117542037D01*
X70135592Y-117542037D02*
X70183273Y-117446676D01*
X70183273Y-117446676D02*
X70230953Y-117398996D01*
X70230953Y-117398996D02*
X70326314Y-117351315D01*
X69614633Y-121499481D02*
X69614633Y-122166316D01*
X69376478Y-121118433D02*
X69138323Y-121832898D01*
X69138323Y-121832898D02*
X69757526Y-121832898D01*
X70329099Y-121166064D02*
X70424361Y-121166064D01*
X70424361Y-121166064D02*
X70519623Y-121213695D01*
X70519623Y-121213695D02*
X70567254Y-121261326D01*
X70567254Y-121261326D02*
X70614885Y-121356588D01*
X70614885Y-121356588D02*
X70662516Y-121547112D01*
X70662516Y-121547112D02*
X70662516Y-121785267D01*
X70662516Y-121785267D02*
X70614885Y-121975791D01*
X70614885Y-121975791D02*
X70567254Y-122071053D01*
X70567254Y-122071053D02*
X70519623Y-122118685D01*
X70519623Y-122118685D02*
X70424361Y-122166316D01*
X70424361Y-122166316D02*
X70329099Y-122166316D01*
X70329099Y-122166316D02*
X70233837Y-122118685D01*
X70233837Y-122118685D02*
X70186206Y-122071053D01*
X70186206Y-122071053D02*
X70138575Y-121975791D01*
X70138575Y-121975791D02*
X70090944Y-121785267D01*
X70090944Y-121785267D02*
X70090944Y-121547112D01*
X70090944Y-121547112D02*
X70138575Y-121356588D01*
X70138575Y-121356588D02*
X70186206Y-121261326D01*
X70186206Y-121261326D02*
X70233837Y-121213695D01*
X70233837Y-121213695D02*
X70329099Y-121166064D01*
X98264319Y-118275965D02*
X97692081Y-118275965D01*
X97978200Y-118275965D02*
X97978200Y-117274548D01*
X97978200Y-117274548D02*
X97882827Y-117417608D01*
X97882827Y-117417608D02*
X97787454Y-117512981D01*
X97787454Y-117512981D02*
X97692081Y-117560667D01*
X114768333Y-83945284D02*
X114768333Y-85118855D01*
X114768333Y-85118855D02*
X114690094Y-85353569D01*
X114690094Y-85353569D02*
X114533618Y-85510046D01*
X114533618Y-85510046D02*
X114298904Y-85588284D01*
X114298904Y-85588284D02*
X114142428Y-85588284D01*
X115472476Y-84101760D02*
X115550714Y-84023522D01*
X115550714Y-84023522D02*
X115707190Y-83945284D01*
X115707190Y-83945284D02*
X116098381Y-83945284D01*
X116098381Y-83945284D02*
X116254857Y-84023522D01*
X116254857Y-84023522D02*
X116333095Y-84101760D01*
X116333095Y-84101760D02*
X116411333Y-84258236D01*
X116411333Y-84258236D02*
X116411333Y-84414712D01*
X116411333Y-84414712D02*
X116333095Y-84649426D01*
X116333095Y-84649426D02*
X115394238Y-85588284D01*
X115394238Y-85588284D02*
X116411333Y-85588284D01*
X56348333Y-78357284D02*
X56348333Y-79530855D01*
X56348333Y-79530855D02*
X56270094Y-79765569D01*
X56270094Y-79765569D02*
X56113618Y-79922046D01*
X56113618Y-79922046D02*
X55878904Y-80000284D01*
X55878904Y-80000284D02*
X55722428Y-80000284D01*
X56974238Y-78357284D02*
X57991333Y-78357284D01*
X57991333Y-78357284D02*
X57443666Y-78983188D01*
X57443666Y-78983188D02*
X57678381Y-78983188D01*
X57678381Y-78983188D02*
X57834857Y-79061426D01*
X57834857Y-79061426D02*
X57913095Y-79139665D01*
X57913095Y-79139665D02*
X57991333Y-79296141D01*
X57991333Y-79296141D02*
X57991333Y-79687331D01*
X57991333Y-79687331D02*
X57913095Y-79843807D01*
X57913095Y-79843807D02*
X57834857Y-79922046D01*
X57834857Y-79922046D02*
X57678381Y-80000284D01*
X57678381Y-80000284D02*
X57208952Y-80000284D01*
X57208952Y-80000284D02*
X57052476Y-79922046D01*
X57052476Y-79922046D02*
X56974238Y-79843807D01*
D10*
%TO.C,J1*%
X62027200Y-114396000D02*
X62027200Y-131160000D01*
X62027200Y-131160000D02*
X108102800Y-131160000D01*
X73736600Y-114396000D02*
X62027200Y-114396000D01*
X108102800Y-114396000D02*
X97663400Y-114396000D01*
X108102800Y-131160000D02*
X108102800Y-114396000D01*
D14*
X96749000Y-113380000D02*
G75*
G02*
X97511000Y-113380000I381000J0D01*
G01*
X97511000Y-113380000D02*
G75*
G02*
X96749000Y-113380000I-381000J0D01*
G01*
D15*
%TO.C,J2*%
X60850000Y-82440000D02*
X60850000Y-87740000D01*
X109220000Y-82440000D02*
X60850000Y-82440000D01*
X109220000Y-82440000D02*
X109220000Y-85090000D01*
X109220000Y-85090000D02*
X111870000Y-85090000D01*
X110490000Y-82440000D02*
X111870000Y-82440000D01*
X111870000Y-82440000D02*
X111870000Y-83820000D01*
X111870000Y-85090000D02*
X111870000Y-87740000D01*
X111870000Y-87740000D02*
X60850000Y-87740000D01*
%TO.C,J3*%
X55516000Y-82440000D02*
X56896000Y-82440000D01*
X55516000Y-83820000D02*
X55516000Y-82440000D01*
X55516000Y-85090000D02*
X55516000Y-87740000D01*
X55516000Y-85090000D02*
X58276000Y-85090000D01*
X55516000Y-87740000D02*
X58276000Y-87740000D01*
X58276000Y-85090000D02*
X58276000Y-87740000D01*
%TD*%
M02*
