%TF.GenerationSoftware,KiCad,Pcbnew,9.0.7-9.0.7~ubuntu22.04.1*%
%TF.CreationDate,2026-04-30T10:19:40-05:00*%
%TF.ProjectId,MDR-40 Breakout Board,4d44522d-3430-4204-9272-65616b6f7574,rev?*%
%TF.SameCoordinates,Original*%
%TF.FileFunction,Soldermask,Top*%
%TF.FilePolarity,Negative*%
%FSLAX46Y46*%
G04 Gerber Fmt 4.6, Leading zero omitted, Abs format (unit mm)*
G04 Created by KiCad (PCBNEW 9.0.7-9.0.7~ubuntu22.04.1) date 2026-04-30 10:19:40*
%MOMM*%
%LPD*%
G01*
G04 APERTURE LIST*
G04 APERTURE END LIST*
G36*
X73221313Y-120270429D02*
G01*
X73359393Y-120327623D01*
X73483661Y-120410657D01*
X73589343Y-120516339D01*
X73672377Y-120640607D01*
X73729571Y-120778687D01*
X73758729Y-120925272D01*
X73758729Y-121074728D01*
X73729571Y-121221313D01*
X73672377Y-121359393D01*
X73589343Y-121483661D01*
X73483661Y-121589343D01*
X73359393Y-121672377D01*
X73221313Y-121729571D01*
X73074728Y-121758729D01*
X72925272Y-121758729D01*
X72778687Y-121729571D01*
X72640607Y-121672377D01*
X72516339Y-121589343D01*
X72410657Y-121483661D01*
X72327623Y-121359393D01*
X72270429Y-121221313D01*
X72241271Y-121074728D01*
X72241271Y-120925272D01*
X72270429Y-120778687D01*
X72327623Y-120640607D01*
X72410657Y-120516339D01*
X72516339Y-120410657D01*
X72640607Y-120327623D01*
X72778687Y-120270429D01*
X72925272Y-120241271D01*
X73074728Y-120241271D01*
X73221313Y-120270429D01*
G37*
G36*
X75761313Y-120270429D02*
G01*
X75899393Y-120327623D01*
X76023661Y-120410657D01*
X76129343Y-120516339D01*
X76212377Y-120640607D01*
X76269571Y-120778687D01*
X76298729Y-120925272D01*
X76298729Y-121074728D01*
X76269571Y-121221313D01*
X76212377Y-121359393D01*
X76129343Y-121483661D01*
X76023661Y-121589343D01*
X75899393Y-121672377D01*
X75761313Y-121729571D01*
X75614728Y-121758729D01*
X75465272Y-121758729D01*
X75318687Y-121729571D01*
X75180607Y-121672377D01*
X75056339Y-121589343D01*
X74950657Y-121483661D01*
X74867623Y-121359393D01*
X74810429Y-121221313D01*
X74781271Y-121074728D01*
X74781271Y-120925272D01*
X74810429Y-120778687D01*
X74867623Y-120640607D01*
X74950657Y-120516339D01*
X75056339Y-120410657D01*
X75180607Y-120327623D01*
X75318687Y-120270429D01*
X75465272Y-120241271D01*
X75614728Y-120241271D01*
X75761313Y-120270429D01*
G37*
G36*
X78301313Y-120270429D02*
G01*
X78439393Y-120327623D01*
X78563661Y-120410657D01*
X78669343Y-120516339D01*
X78752377Y-120640607D01*
X78809571Y-120778687D01*
X78838729Y-120925272D01*
X78838729Y-121074728D01*
X78809571Y-121221313D01*
X78752377Y-121359393D01*
X78669343Y-121483661D01*
X78563661Y-121589343D01*
X78439393Y-121672377D01*
X78301313Y-121729571D01*
X78154728Y-121758729D01*
X78005272Y-121758729D01*
X77858687Y-121729571D01*
X77720607Y-121672377D01*
X77596339Y-121589343D01*
X77490657Y-121483661D01*
X77407623Y-121359393D01*
X77350429Y-121221313D01*
X77321271Y-121074728D01*
X77321271Y-120925272D01*
X77350429Y-120778687D01*
X77407623Y-120640607D01*
X77490657Y-120516339D01*
X77596339Y-120410657D01*
X77720607Y-120327623D01*
X77858687Y-120270429D01*
X78005272Y-120241271D01*
X78154728Y-120241271D01*
X78301313Y-120270429D01*
G37*
G36*
X80841313Y-120270429D02*
G01*
X80979393Y-120327623D01*
X81103661Y-120410657D01*
X81209343Y-120516339D01*
X81292377Y-120640607D01*
X81349571Y-120778687D01*
X81378729Y-120925272D01*
X81378729Y-121074728D01*
X81349571Y-121221313D01*
X81292377Y-121359393D01*
X81209343Y-121483661D01*
X81103661Y-121589343D01*
X80979393Y-121672377D01*
X80841313Y-121729571D01*
X80694728Y-121758729D01*
X80545272Y-121758729D01*
X80398687Y-121729571D01*
X80260607Y-121672377D01*
X80136339Y-121589343D01*
X80030657Y-121483661D01*
X79947623Y-121359393D01*
X79890429Y-121221313D01*
X79861271Y-121074728D01*
X79861271Y-120925272D01*
X79890429Y-120778687D01*
X79947623Y-120640607D01*
X80030657Y-120516339D01*
X80136339Y-120410657D01*
X80260607Y-120327623D01*
X80398687Y-120270429D01*
X80545272Y-120241271D01*
X80694728Y-120241271D01*
X80841313Y-120270429D01*
G37*
G36*
X83381313Y-120270429D02*
G01*
X83519393Y-120327623D01*
X83643661Y-120410657D01*
X83749343Y-120516339D01*
X83832377Y-120640607D01*
X83889571Y-120778687D01*
X83918729Y-120925272D01*
X83918729Y-121074728D01*
X83889571Y-121221313D01*
X83832377Y-121359393D01*
X83749343Y-121483661D01*
X83643661Y-121589343D01*
X83519393Y-121672377D01*
X83381313Y-121729571D01*
X83234728Y-121758729D01*
X83085272Y-121758729D01*
X82938687Y-121729571D01*
X82800607Y-121672377D01*
X82676339Y-121589343D01*
X82570657Y-121483661D01*
X82487623Y-121359393D01*
X82430429Y-121221313D01*
X82401271Y-121074728D01*
X82401271Y-120925272D01*
X82430429Y-120778687D01*
X82487623Y-120640607D01*
X82570657Y-120516339D01*
X82676339Y-120410657D01*
X82800607Y-120327623D01*
X82938687Y-120270429D01*
X83085272Y-120241271D01*
X83234728Y-120241271D01*
X83381313Y-120270429D01*
G37*
G36*
X85921313Y-120270429D02*
G01*
X86059393Y-120327623D01*
X86183661Y-120410657D01*
X86289343Y-120516339D01*
X86372377Y-120640607D01*
X86429571Y-120778687D01*
X86458729Y-120925272D01*
X86458729Y-121074728D01*
X86429571Y-121221313D01*
X86372377Y-121359393D01*
X86289343Y-121483661D01*
X86183661Y-121589343D01*
X86059393Y-121672377D01*
X85921313Y-121729571D01*
X85774728Y-121758729D01*
X85625272Y-121758729D01*
X85478687Y-121729571D01*
X85340607Y-121672377D01*
X85216339Y-121589343D01*
X85110657Y-121483661D01*
X85027623Y-121359393D01*
X84970429Y-121221313D01*
X84941271Y-121074728D01*
X84941271Y-120925272D01*
X84970429Y-120778687D01*
X85027623Y-120640607D01*
X85110657Y-120516339D01*
X85216339Y-120410657D01*
X85340607Y-120327623D01*
X85478687Y-120270429D01*
X85625272Y-120241271D01*
X85774728Y-120241271D01*
X85921313Y-120270429D01*
G37*
G36*
X88461313Y-120270429D02*
G01*
X88599393Y-120327623D01*
X88723661Y-120410657D01*
X88829343Y-120516339D01*
X88912377Y-120640607D01*
X88969571Y-120778687D01*
X88998729Y-120925272D01*
X88998729Y-121074728D01*
X88969571Y-121221313D01*
X88912377Y-121359393D01*
X88829343Y-121483661D01*
X88723661Y-121589343D01*
X88599393Y-121672377D01*
X88461313Y-121729571D01*
X88314728Y-121758729D01*
X88165272Y-121758729D01*
X88018687Y-121729571D01*
X87880607Y-121672377D01*
X87756339Y-121589343D01*
X87650657Y-121483661D01*
X87567623Y-121359393D01*
X87510429Y-121221313D01*
X87481271Y-121074728D01*
X87481271Y-120925272D01*
X87510429Y-120778687D01*
X87567623Y-120640607D01*
X87650657Y-120516339D01*
X87756339Y-120410657D01*
X87880607Y-120327623D01*
X88018687Y-120270429D01*
X88165272Y-120241271D01*
X88314728Y-120241271D01*
X88461313Y-120270429D01*
G37*
G36*
X91001313Y-120270429D02*
G01*
X91139393Y-120327623D01*
X91263661Y-120410657D01*
X91369343Y-120516339D01*
X91452377Y-120640607D01*
X91509571Y-120778687D01*
X91538729Y-120925272D01*
X91538729Y-121074728D01*
X91509571Y-121221313D01*
X91452377Y-121359393D01*
X91369343Y-121483661D01*
X91263661Y-121589343D01*
X91139393Y-121672377D01*
X91001313Y-121729571D01*
X90854728Y-121758729D01*
X90705272Y-121758729D01*
X90558687Y-121729571D01*
X90420607Y-121672377D01*
X90296339Y-121589343D01*
X90190657Y-121483661D01*
X90107623Y-121359393D01*
X90050429Y-121221313D01*
X90021271Y-121074728D01*
X90021271Y-120925272D01*
X90050429Y-120778687D01*
X90107623Y-120640607D01*
X90190657Y-120516339D01*
X90296339Y-120410657D01*
X90420607Y-120327623D01*
X90558687Y-120270429D01*
X90705272Y-120241271D01*
X90854728Y-120241271D01*
X91001313Y-120270429D01*
G37*
G36*
X93541313Y-120270429D02*
G01*
X93679393Y-120327623D01*
X93803661Y-120410657D01*
X93909343Y-120516339D01*
X93992377Y-120640607D01*
X94049571Y-120778687D01*
X94078729Y-120925272D01*
X94078729Y-121074728D01*
X94049571Y-121221313D01*
X93992377Y-121359393D01*
X93909343Y-121483661D01*
X93803661Y-121589343D01*
X93679393Y-121672377D01*
X93541313Y-121729571D01*
X93394728Y-121758729D01*
X93245272Y-121758729D01*
X93098687Y-121729571D01*
X92960607Y-121672377D01*
X92836339Y-121589343D01*
X92730657Y-121483661D01*
X92647623Y-121359393D01*
X92590429Y-121221313D01*
X92561271Y-121074728D01*
X92561271Y-120925272D01*
X92590429Y-120778687D01*
X92647623Y-120640607D01*
X92730657Y-120516339D01*
X92836339Y-120410657D01*
X92960607Y-120327623D01*
X93098687Y-120270429D01*
X93245272Y-120241271D01*
X93394728Y-120241271D01*
X93541313Y-120270429D01*
G37*
G36*
X96081313Y-120270429D02*
G01*
X96219393Y-120327623D01*
X96343661Y-120410657D01*
X96449343Y-120516339D01*
X96532377Y-120640607D01*
X96589571Y-120778687D01*
X96618729Y-120925272D01*
X96618729Y-121074728D01*
X96589571Y-121221313D01*
X96532377Y-121359393D01*
X96449343Y-121483661D01*
X96343661Y-121589343D01*
X96219393Y-121672377D01*
X96081313Y-121729571D01*
X95934728Y-121758729D01*
X95785272Y-121758729D01*
X95638687Y-121729571D01*
X95500607Y-121672377D01*
X95376339Y-121589343D01*
X95270657Y-121483661D01*
X95187623Y-121359393D01*
X95130429Y-121221313D01*
X95101271Y-121074728D01*
X95101271Y-120925272D01*
X95130429Y-120778687D01*
X95187623Y-120640607D01*
X95270657Y-120516339D01*
X95376339Y-120410657D01*
X95500607Y-120327623D01*
X95638687Y-120270429D01*
X95785272Y-120241271D01*
X95934728Y-120241271D01*
X96081313Y-120270429D01*
G37*
G36*
X55350168Y-118541445D02*
G01*
X55574025Y-118614181D01*
X55783748Y-118721040D01*
X55974172Y-118859391D01*
X56140609Y-119025828D01*
X56278960Y-119216252D01*
X56385819Y-119425975D01*
X56458555Y-119649832D01*
X56495376Y-119882311D01*
X56495376Y-120117689D01*
X56458555Y-120350168D01*
X56385819Y-120574025D01*
X56278960Y-120783748D01*
X56140609Y-120974172D01*
X55974172Y-121140609D01*
X55783748Y-121278960D01*
X55574025Y-121385819D01*
X55350168Y-121458555D01*
X55117689Y-121495376D01*
X54882311Y-121495376D01*
X54649832Y-121458555D01*
X54425975Y-121385819D01*
X54216252Y-121278960D01*
X54025828Y-121140609D01*
X53859391Y-120974172D01*
X53721040Y-120783748D01*
X53614181Y-120574025D01*
X53541445Y-120350168D01*
X53504624Y-120117689D01*
X53504624Y-119882311D01*
X53541445Y-119649832D01*
X53614181Y-119425975D01*
X53721040Y-119216252D01*
X53859391Y-119025828D01*
X54025828Y-118859391D01*
X54216252Y-118721040D01*
X54425975Y-118614181D01*
X54649832Y-118541445D01*
X54882311Y-118504624D01*
X55117689Y-118504624D01*
X55350168Y-118541445D01*
G37*
G36*
X115350168Y-118541445D02*
G01*
X115574025Y-118614181D01*
X115783748Y-118721040D01*
X115974172Y-118859391D01*
X116140609Y-119025828D01*
X116278960Y-119216252D01*
X116385819Y-119425975D01*
X116458555Y-119649832D01*
X116495376Y-119882311D01*
X116495376Y-120117689D01*
X116458555Y-120350168D01*
X116385819Y-120574025D01*
X116278960Y-120783748D01*
X116140609Y-120974172D01*
X115974172Y-121140609D01*
X115783748Y-121278960D01*
X115574025Y-121385819D01*
X115350168Y-121458555D01*
X115117689Y-121495376D01*
X114882311Y-121495376D01*
X114649832Y-121458555D01*
X114425975Y-121385819D01*
X114216252Y-121278960D01*
X114025828Y-121140609D01*
X113859391Y-120974172D01*
X113721040Y-120783748D01*
X113614181Y-120574025D01*
X113541445Y-120350168D01*
X113504624Y-120117689D01*
X113504624Y-119882311D01*
X113541445Y-119649832D01*
X113614181Y-119425975D01*
X113721040Y-119216252D01*
X113859391Y-119025828D01*
X114025828Y-118859391D01*
X114216252Y-118721040D01*
X114425975Y-118614181D01*
X114649832Y-118541445D01*
X114882311Y-118504624D01*
X115117689Y-118504624D01*
X115350168Y-118541445D01*
G37*
G36*
X74491313Y-118365429D02*
G01*
X74629393Y-118422623D01*
X74753661Y-118505657D01*
X74859343Y-118611339D01*
X74942377Y-118735607D01*
X74999571Y-118873687D01*
X75028729Y-119020272D01*
X75028729Y-119169728D01*
X74999571Y-119316313D01*
X74942377Y-119454393D01*
X74859343Y-119578661D01*
X74753661Y-119684343D01*
X74629393Y-119767377D01*
X74491313Y-119824571D01*
X74344728Y-119853729D01*
X74195272Y-119853729D01*
X74048687Y-119824571D01*
X73910607Y-119767377D01*
X73786339Y-119684343D01*
X73680657Y-119578661D01*
X73597623Y-119454393D01*
X73540429Y-119316313D01*
X73511271Y-119169728D01*
X73511271Y-119020272D01*
X73540429Y-118873687D01*
X73597623Y-118735607D01*
X73680657Y-118611339D01*
X73786339Y-118505657D01*
X73910607Y-118422623D01*
X74048687Y-118365429D01*
X74195272Y-118336271D01*
X74344728Y-118336271D01*
X74491313Y-118365429D01*
G37*
G36*
X77031313Y-118365429D02*
G01*
X77169393Y-118422623D01*
X77293661Y-118505657D01*
X77399343Y-118611339D01*
X77482377Y-118735607D01*
X77539571Y-118873687D01*
X77568729Y-119020272D01*
X77568729Y-119169728D01*
X77539571Y-119316313D01*
X77482377Y-119454393D01*
X77399343Y-119578661D01*
X77293661Y-119684343D01*
X77169393Y-119767377D01*
X77031313Y-119824571D01*
X76884728Y-119853729D01*
X76735272Y-119853729D01*
X76588687Y-119824571D01*
X76450607Y-119767377D01*
X76326339Y-119684343D01*
X76220657Y-119578661D01*
X76137623Y-119454393D01*
X76080429Y-119316313D01*
X76051271Y-119169728D01*
X76051271Y-119020272D01*
X76080429Y-118873687D01*
X76137623Y-118735607D01*
X76220657Y-118611339D01*
X76326339Y-118505657D01*
X76450607Y-118422623D01*
X76588687Y-118365429D01*
X76735272Y-118336271D01*
X76884728Y-118336271D01*
X77031313Y-118365429D01*
G37*
G36*
X79571313Y-118365429D02*
G01*
X79709393Y-118422623D01*
X79833661Y-118505657D01*
X79939343Y-118611339D01*
X80022377Y-118735607D01*
X80079571Y-118873687D01*
X80108729Y-119020272D01*
X80108729Y-119169728D01*
X80079571Y-119316313D01*
X80022377Y-119454393D01*
X79939343Y-119578661D01*
X79833661Y-119684343D01*
X79709393Y-119767377D01*
X79571313Y-119824571D01*
X79424728Y-119853729D01*
X79275272Y-119853729D01*
X79128687Y-119824571D01*
X78990607Y-119767377D01*
X78866339Y-119684343D01*
X78760657Y-119578661D01*
X78677623Y-119454393D01*
X78620429Y-119316313D01*
X78591271Y-119169728D01*
X78591271Y-119020272D01*
X78620429Y-118873687D01*
X78677623Y-118735607D01*
X78760657Y-118611339D01*
X78866339Y-118505657D01*
X78990607Y-118422623D01*
X79128687Y-118365429D01*
X79275272Y-118336271D01*
X79424728Y-118336271D01*
X79571313Y-118365429D01*
G37*
G36*
X82111313Y-118365429D02*
G01*
X82249393Y-118422623D01*
X82373661Y-118505657D01*
X82479343Y-118611339D01*
X82562377Y-118735607D01*
X82619571Y-118873687D01*
X82648729Y-119020272D01*
X82648729Y-119169728D01*
X82619571Y-119316313D01*
X82562377Y-119454393D01*
X82479343Y-119578661D01*
X82373661Y-119684343D01*
X82249393Y-119767377D01*
X82111313Y-119824571D01*
X81964728Y-119853729D01*
X81815272Y-119853729D01*
X81668687Y-119824571D01*
X81530607Y-119767377D01*
X81406339Y-119684343D01*
X81300657Y-119578661D01*
X81217623Y-119454393D01*
X81160429Y-119316313D01*
X81131271Y-119169728D01*
X81131271Y-119020272D01*
X81160429Y-118873687D01*
X81217623Y-118735607D01*
X81300657Y-118611339D01*
X81406339Y-118505657D01*
X81530607Y-118422623D01*
X81668687Y-118365429D01*
X81815272Y-118336271D01*
X81964728Y-118336271D01*
X82111313Y-118365429D01*
G37*
G36*
X84651313Y-118365429D02*
G01*
X84789393Y-118422623D01*
X84913661Y-118505657D01*
X85019343Y-118611339D01*
X85102377Y-118735607D01*
X85159571Y-118873687D01*
X85188729Y-119020272D01*
X85188729Y-119169728D01*
X85159571Y-119316313D01*
X85102377Y-119454393D01*
X85019343Y-119578661D01*
X84913661Y-119684343D01*
X84789393Y-119767377D01*
X84651313Y-119824571D01*
X84504728Y-119853729D01*
X84355272Y-119853729D01*
X84208687Y-119824571D01*
X84070607Y-119767377D01*
X83946339Y-119684343D01*
X83840657Y-119578661D01*
X83757623Y-119454393D01*
X83700429Y-119316313D01*
X83671271Y-119169728D01*
X83671271Y-119020272D01*
X83700429Y-118873687D01*
X83757623Y-118735607D01*
X83840657Y-118611339D01*
X83946339Y-118505657D01*
X84070607Y-118422623D01*
X84208687Y-118365429D01*
X84355272Y-118336271D01*
X84504728Y-118336271D01*
X84651313Y-118365429D01*
G37*
G36*
X87191313Y-118365429D02*
G01*
X87329393Y-118422623D01*
X87453661Y-118505657D01*
X87559343Y-118611339D01*
X87642377Y-118735607D01*
X87699571Y-118873687D01*
X87728729Y-119020272D01*
X87728729Y-119169728D01*
X87699571Y-119316313D01*
X87642377Y-119454393D01*
X87559343Y-119578661D01*
X87453661Y-119684343D01*
X87329393Y-119767377D01*
X87191313Y-119824571D01*
X87044728Y-119853729D01*
X86895272Y-119853729D01*
X86748687Y-119824571D01*
X86610607Y-119767377D01*
X86486339Y-119684343D01*
X86380657Y-119578661D01*
X86297623Y-119454393D01*
X86240429Y-119316313D01*
X86211271Y-119169728D01*
X86211271Y-119020272D01*
X86240429Y-118873687D01*
X86297623Y-118735607D01*
X86380657Y-118611339D01*
X86486339Y-118505657D01*
X86610607Y-118422623D01*
X86748687Y-118365429D01*
X86895272Y-118336271D01*
X87044728Y-118336271D01*
X87191313Y-118365429D01*
G37*
G36*
X89731313Y-118365429D02*
G01*
X89869393Y-118422623D01*
X89993661Y-118505657D01*
X90099343Y-118611339D01*
X90182377Y-118735607D01*
X90239571Y-118873687D01*
X90268729Y-119020272D01*
X90268729Y-119169728D01*
X90239571Y-119316313D01*
X90182377Y-119454393D01*
X90099343Y-119578661D01*
X89993661Y-119684343D01*
X89869393Y-119767377D01*
X89731313Y-119824571D01*
X89584728Y-119853729D01*
X89435272Y-119853729D01*
X89288687Y-119824571D01*
X89150607Y-119767377D01*
X89026339Y-119684343D01*
X88920657Y-119578661D01*
X88837623Y-119454393D01*
X88780429Y-119316313D01*
X88751271Y-119169728D01*
X88751271Y-119020272D01*
X88780429Y-118873687D01*
X88837623Y-118735607D01*
X88920657Y-118611339D01*
X89026339Y-118505657D01*
X89150607Y-118422623D01*
X89288687Y-118365429D01*
X89435272Y-118336271D01*
X89584728Y-118336271D01*
X89731313Y-118365429D01*
G37*
G36*
X92271313Y-118365429D02*
G01*
X92409393Y-118422623D01*
X92533661Y-118505657D01*
X92639343Y-118611339D01*
X92722377Y-118735607D01*
X92779571Y-118873687D01*
X92808729Y-119020272D01*
X92808729Y-119169728D01*
X92779571Y-119316313D01*
X92722377Y-119454393D01*
X92639343Y-119578661D01*
X92533661Y-119684343D01*
X92409393Y-119767377D01*
X92271313Y-119824571D01*
X92124728Y-119853729D01*
X91975272Y-119853729D01*
X91828687Y-119824571D01*
X91690607Y-119767377D01*
X91566339Y-119684343D01*
X91460657Y-119578661D01*
X91377623Y-119454393D01*
X91320429Y-119316313D01*
X91291271Y-119169728D01*
X91291271Y-119020272D01*
X91320429Y-118873687D01*
X91377623Y-118735607D01*
X91460657Y-118611339D01*
X91566339Y-118505657D01*
X91690607Y-118422623D01*
X91828687Y-118365429D01*
X91975272Y-118336271D01*
X92124728Y-118336271D01*
X92271313Y-118365429D01*
G37*
G36*
X94811313Y-118365429D02*
G01*
X94949393Y-118422623D01*
X95073661Y-118505657D01*
X95179343Y-118611339D01*
X95262377Y-118735607D01*
X95319571Y-118873687D01*
X95348729Y-119020272D01*
X95348729Y-119169728D01*
X95319571Y-119316313D01*
X95262377Y-119454393D01*
X95179343Y-119578661D01*
X95073661Y-119684343D01*
X94949393Y-119767377D01*
X94811313Y-119824571D01*
X94664728Y-119853729D01*
X94515272Y-119853729D01*
X94368687Y-119824571D01*
X94230607Y-119767377D01*
X94106339Y-119684343D01*
X94000657Y-119578661D01*
X93917623Y-119454393D01*
X93860429Y-119316313D01*
X93831271Y-119169728D01*
X93831271Y-119020272D01*
X93860429Y-118873687D01*
X93917623Y-118735607D01*
X94000657Y-118611339D01*
X94106339Y-118505657D01*
X94230607Y-118422623D01*
X94368687Y-118365429D01*
X94515272Y-118336271D01*
X94664728Y-118336271D01*
X94811313Y-118365429D01*
G37*
G36*
X97351313Y-118365429D02*
G01*
X97489393Y-118422623D01*
X97613661Y-118505657D01*
X97719343Y-118611339D01*
X97802377Y-118735607D01*
X97859571Y-118873687D01*
X97888729Y-119020272D01*
X97888729Y-119169728D01*
X97859571Y-119316313D01*
X97802377Y-119454393D01*
X97719343Y-119578661D01*
X97613661Y-119684343D01*
X97489393Y-119767377D01*
X97351313Y-119824571D01*
X97204728Y-119853729D01*
X97055272Y-119853729D01*
X96908687Y-119824571D01*
X96770607Y-119767377D01*
X96646339Y-119684343D01*
X96540657Y-119578661D01*
X96457623Y-119454393D01*
X96400429Y-119316313D01*
X96371271Y-119169728D01*
X96371271Y-119020272D01*
X96400429Y-118873687D01*
X96457623Y-118735607D01*
X96540657Y-118611339D01*
X96646339Y-118505657D01*
X96770607Y-118422623D01*
X96908687Y-118365429D01*
X97055272Y-118336271D01*
X97204728Y-118336271D01*
X97351313Y-118365429D01*
G37*
G36*
X65390546Y-115221564D02*
G01*
X65644129Y-115289511D01*
X65886673Y-115389976D01*
X66114029Y-115521240D01*
X66322307Y-115681058D01*
X66507942Y-115866693D01*
X66667760Y-116074971D01*
X66799024Y-116302327D01*
X66899489Y-116544871D01*
X66967436Y-116798454D01*
X67001703Y-117058736D01*
X67001703Y-117321264D01*
X66967436Y-117581546D01*
X66899489Y-117835129D01*
X66799024Y-118077673D01*
X66667760Y-118305029D01*
X66507942Y-118513307D01*
X66322307Y-118698942D01*
X66114029Y-118858760D01*
X65886673Y-118990024D01*
X65644129Y-119090489D01*
X65390546Y-119158436D01*
X65130264Y-119192703D01*
X64867736Y-119192703D01*
X64607454Y-119158436D01*
X64353871Y-119090489D01*
X64111327Y-118990024D01*
X63883971Y-118858760D01*
X63675693Y-118698942D01*
X63490058Y-118513307D01*
X63330240Y-118305029D01*
X63198976Y-118077673D01*
X63098511Y-117835129D01*
X63030564Y-117581546D01*
X62996297Y-117321264D01*
X62996297Y-117058736D01*
X63030564Y-116798454D01*
X63098511Y-116544871D01*
X63198976Y-116302327D01*
X63330240Y-116074971D01*
X63490058Y-115866693D01*
X63675693Y-115681058D01*
X63883971Y-115521240D01*
X64111327Y-115389976D01*
X64353871Y-115289511D01*
X64607454Y-115221564D01*
X64867736Y-115187297D01*
X65130264Y-115187297D01*
X65390546Y-115221564D01*
G37*
G36*
X105522546Y-115221564D02*
G01*
X105776129Y-115289511D01*
X106018673Y-115389976D01*
X106246029Y-115521240D01*
X106454307Y-115681058D01*
X106639942Y-115866693D01*
X106799760Y-116074971D01*
X106931024Y-116302327D01*
X107031489Y-116544871D01*
X107099436Y-116798454D01*
X107133703Y-117058736D01*
X107133703Y-117321264D01*
X107099436Y-117581546D01*
X107031489Y-117835129D01*
X106931024Y-118077673D01*
X106799760Y-118305029D01*
X106639942Y-118513307D01*
X106454307Y-118698942D01*
X106246029Y-118858760D01*
X106018673Y-118990024D01*
X105776129Y-119090489D01*
X105522546Y-119158436D01*
X105262264Y-119192703D01*
X104999736Y-119192703D01*
X104739454Y-119158436D01*
X104485871Y-119090489D01*
X104243327Y-118990024D01*
X104015971Y-118858760D01*
X103807693Y-118698942D01*
X103622058Y-118513307D01*
X103462240Y-118305029D01*
X103330976Y-118077673D01*
X103230511Y-117835129D01*
X103162564Y-117581546D01*
X103128297Y-117321264D01*
X103128297Y-117058736D01*
X103162564Y-116798454D01*
X103230511Y-116544871D01*
X103330976Y-116302327D01*
X103462240Y-116074971D01*
X103622058Y-115866693D01*
X103807693Y-115681058D01*
X104015971Y-115521240D01*
X104243327Y-115389976D01*
X104485871Y-115289511D01*
X104739454Y-115221564D01*
X104999736Y-115187297D01*
X105262264Y-115187297D01*
X105522546Y-115221564D01*
G37*
G36*
X73221313Y-116460429D02*
G01*
X73359393Y-116517623D01*
X73483661Y-116600657D01*
X73589343Y-116706339D01*
X73672377Y-116830607D01*
X73729571Y-116968687D01*
X73758729Y-117115272D01*
X73758729Y-117264728D01*
X73729571Y-117411313D01*
X73672377Y-117549393D01*
X73589343Y-117673661D01*
X73483661Y-117779343D01*
X73359393Y-117862377D01*
X73221313Y-117919571D01*
X73074728Y-117948729D01*
X72925272Y-117948729D01*
X72778687Y-117919571D01*
X72640607Y-117862377D01*
X72516339Y-117779343D01*
X72410657Y-117673661D01*
X72327623Y-117549393D01*
X72270429Y-117411313D01*
X72241271Y-117264728D01*
X72241271Y-117115272D01*
X72270429Y-116968687D01*
X72327623Y-116830607D01*
X72410657Y-116706339D01*
X72516339Y-116600657D01*
X72640607Y-116517623D01*
X72778687Y-116460429D01*
X72925272Y-116431271D01*
X73074728Y-116431271D01*
X73221313Y-116460429D01*
G37*
G36*
X75761313Y-116460429D02*
G01*
X75899393Y-116517623D01*
X76023661Y-116600657D01*
X76129343Y-116706339D01*
X76212377Y-116830607D01*
X76269571Y-116968687D01*
X76298729Y-117115272D01*
X76298729Y-117264728D01*
X76269571Y-117411313D01*
X76212377Y-117549393D01*
X76129343Y-117673661D01*
X76023661Y-117779343D01*
X75899393Y-117862377D01*
X75761313Y-117919571D01*
X75614728Y-117948729D01*
X75465272Y-117948729D01*
X75318687Y-117919571D01*
X75180607Y-117862377D01*
X75056339Y-117779343D01*
X74950657Y-117673661D01*
X74867623Y-117549393D01*
X74810429Y-117411313D01*
X74781271Y-117264728D01*
X74781271Y-117115272D01*
X74810429Y-116968687D01*
X74867623Y-116830607D01*
X74950657Y-116706339D01*
X75056339Y-116600657D01*
X75180607Y-116517623D01*
X75318687Y-116460429D01*
X75465272Y-116431271D01*
X75614728Y-116431271D01*
X75761313Y-116460429D01*
G37*
G36*
X78301313Y-116460429D02*
G01*
X78439393Y-116517623D01*
X78563661Y-116600657D01*
X78669343Y-116706339D01*
X78752377Y-116830607D01*
X78809571Y-116968687D01*
X78838729Y-117115272D01*
X78838729Y-117264728D01*
X78809571Y-117411313D01*
X78752377Y-117549393D01*
X78669343Y-117673661D01*
X78563661Y-117779343D01*
X78439393Y-117862377D01*
X78301313Y-117919571D01*
X78154728Y-117948729D01*
X78005272Y-117948729D01*
X77858687Y-117919571D01*
X77720607Y-117862377D01*
X77596339Y-117779343D01*
X77490657Y-117673661D01*
X77407623Y-117549393D01*
X77350429Y-117411313D01*
X77321271Y-117264728D01*
X77321271Y-117115272D01*
X77350429Y-116968687D01*
X77407623Y-116830607D01*
X77490657Y-116706339D01*
X77596339Y-116600657D01*
X77720607Y-116517623D01*
X77858687Y-116460429D01*
X78005272Y-116431271D01*
X78154728Y-116431271D01*
X78301313Y-116460429D01*
G37*
G36*
X80841313Y-116460429D02*
G01*
X80979393Y-116517623D01*
X81103661Y-116600657D01*
X81209343Y-116706339D01*
X81292377Y-116830607D01*
X81349571Y-116968687D01*
X81378729Y-117115272D01*
X81378729Y-117264728D01*
X81349571Y-117411313D01*
X81292377Y-117549393D01*
X81209343Y-117673661D01*
X81103661Y-117779343D01*
X80979393Y-117862377D01*
X80841313Y-117919571D01*
X80694728Y-117948729D01*
X80545272Y-117948729D01*
X80398687Y-117919571D01*
X80260607Y-117862377D01*
X80136339Y-117779343D01*
X80030657Y-117673661D01*
X79947623Y-117549393D01*
X79890429Y-117411313D01*
X79861271Y-117264728D01*
X79861271Y-117115272D01*
X79890429Y-116968687D01*
X79947623Y-116830607D01*
X80030657Y-116706339D01*
X80136339Y-116600657D01*
X80260607Y-116517623D01*
X80398687Y-116460429D01*
X80545272Y-116431271D01*
X80694728Y-116431271D01*
X80841313Y-116460429D01*
G37*
G36*
X83381313Y-116460429D02*
G01*
X83519393Y-116517623D01*
X83643661Y-116600657D01*
X83749343Y-116706339D01*
X83832377Y-116830607D01*
X83889571Y-116968687D01*
X83918729Y-117115272D01*
X83918729Y-117264728D01*
X83889571Y-117411313D01*
X83832377Y-117549393D01*
X83749343Y-117673661D01*
X83643661Y-117779343D01*
X83519393Y-117862377D01*
X83381313Y-117919571D01*
X83234728Y-117948729D01*
X83085272Y-117948729D01*
X82938687Y-117919571D01*
X82800607Y-117862377D01*
X82676339Y-117779343D01*
X82570657Y-117673661D01*
X82487623Y-117549393D01*
X82430429Y-117411313D01*
X82401271Y-117264728D01*
X82401271Y-117115272D01*
X82430429Y-116968687D01*
X82487623Y-116830607D01*
X82570657Y-116706339D01*
X82676339Y-116600657D01*
X82800607Y-116517623D01*
X82938687Y-116460429D01*
X83085272Y-116431271D01*
X83234728Y-116431271D01*
X83381313Y-116460429D01*
G37*
G36*
X85921313Y-116460429D02*
G01*
X86059393Y-116517623D01*
X86183661Y-116600657D01*
X86289343Y-116706339D01*
X86372377Y-116830607D01*
X86429571Y-116968687D01*
X86458729Y-117115272D01*
X86458729Y-117264728D01*
X86429571Y-117411313D01*
X86372377Y-117549393D01*
X86289343Y-117673661D01*
X86183661Y-117779343D01*
X86059393Y-117862377D01*
X85921313Y-117919571D01*
X85774728Y-117948729D01*
X85625272Y-117948729D01*
X85478687Y-117919571D01*
X85340607Y-117862377D01*
X85216339Y-117779343D01*
X85110657Y-117673661D01*
X85027623Y-117549393D01*
X84970429Y-117411313D01*
X84941271Y-117264728D01*
X84941271Y-117115272D01*
X84970429Y-116968687D01*
X85027623Y-116830607D01*
X85110657Y-116706339D01*
X85216339Y-116600657D01*
X85340607Y-116517623D01*
X85478687Y-116460429D01*
X85625272Y-116431271D01*
X85774728Y-116431271D01*
X85921313Y-116460429D01*
G37*
G36*
X88461313Y-116460429D02*
G01*
X88599393Y-116517623D01*
X88723661Y-116600657D01*
X88829343Y-116706339D01*
X88912377Y-116830607D01*
X88969571Y-116968687D01*
X88998729Y-117115272D01*
X88998729Y-117264728D01*
X88969571Y-117411313D01*
X88912377Y-117549393D01*
X88829343Y-117673661D01*
X88723661Y-117779343D01*
X88599393Y-117862377D01*
X88461313Y-117919571D01*
X88314728Y-117948729D01*
X88165272Y-117948729D01*
X88018687Y-117919571D01*
X87880607Y-117862377D01*
X87756339Y-117779343D01*
X87650657Y-117673661D01*
X87567623Y-117549393D01*
X87510429Y-117411313D01*
X87481271Y-117264728D01*
X87481271Y-117115272D01*
X87510429Y-116968687D01*
X87567623Y-116830607D01*
X87650657Y-116706339D01*
X87756339Y-116600657D01*
X87880607Y-116517623D01*
X88018687Y-116460429D01*
X88165272Y-116431271D01*
X88314728Y-116431271D01*
X88461313Y-116460429D01*
G37*
G36*
X91001313Y-116460429D02*
G01*
X91139393Y-116517623D01*
X91263661Y-116600657D01*
X91369343Y-116706339D01*
X91452377Y-116830607D01*
X91509571Y-116968687D01*
X91538729Y-117115272D01*
X91538729Y-117264728D01*
X91509571Y-117411313D01*
X91452377Y-117549393D01*
X91369343Y-117673661D01*
X91263661Y-117779343D01*
X91139393Y-117862377D01*
X91001313Y-117919571D01*
X90854728Y-117948729D01*
X90705272Y-117948729D01*
X90558687Y-117919571D01*
X90420607Y-117862377D01*
X90296339Y-117779343D01*
X90190657Y-117673661D01*
X90107623Y-117549393D01*
X90050429Y-117411313D01*
X90021271Y-117264728D01*
X90021271Y-117115272D01*
X90050429Y-116968687D01*
X90107623Y-116830607D01*
X90190657Y-116706339D01*
X90296339Y-116600657D01*
X90420607Y-116517623D01*
X90558687Y-116460429D01*
X90705272Y-116431271D01*
X90854728Y-116431271D01*
X91001313Y-116460429D01*
G37*
G36*
X93541313Y-116460429D02*
G01*
X93679393Y-116517623D01*
X93803661Y-116600657D01*
X93909343Y-116706339D01*
X93992377Y-116830607D01*
X94049571Y-116968687D01*
X94078729Y-117115272D01*
X94078729Y-117264728D01*
X94049571Y-117411313D01*
X93992377Y-117549393D01*
X93909343Y-117673661D01*
X93803661Y-117779343D01*
X93679393Y-117862377D01*
X93541313Y-117919571D01*
X93394728Y-117948729D01*
X93245272Y-117948729D01*
X93098687Y-117919571D01*
X92960607Y-117862377D01*
X92836339Y-117779343D01*
X92730657Y-117673661D01*
X92647623Y-117549393D01*
X92590429Y-117411313D01*
X92561271Y-117264728D01*
X92561271Y-117115272D01*
X92590429Y-116968687D01*
X92647623Y-116830607D01*
X92730657Y-116706339D01*
X92836339Y-116600657D01*
X92960607Y-116517623D01*
X93098687Y-116460429D01*
X93245272Y-116431271D01*
X93394728Y-116431271D01*
X93541313Y-116460429D01*
G37*
G36*
X96081313Y-116460429D02*
G01*
X96219393Y-116517623D01*
X96343661Y-116600657D01*
X96449343Y-116706339D01*
X96532377Y-116830607D01*
X96589571Y-116968687D01*
X96618729Y-117115272D01*
X96618729Y-117264728D01*
X96589571Y-117411313D01*
X96532377Y-117549393D01*
X96449343Y-117673661D01*
X96343661Y-117779343D01*
X96219393Y-117862377D01*
X96081313Y-117919571D01*
X95934728Y-117948729D01*
X95785272Y-117948729D01*
X95638687Y-117919571D01*
X95500607Y-117862377D01*
X95376339Y-117779343D01*
X95270657Y-117673661D01*
X95187623Y-117549393D01*
X95130429Y-117411313D01*
X95101271Y-117264728D01*
X95101271Y-117115272D01*
X95130429Y-116968687D01*
X95187623Y-116830607D01*
X95270657Y-116706339D01*
X95376339Y-116600657D01*
X95500607Y-116517623D01*
X95638687Y-116460429D01*
X95785272Y-116431271D01*
X95934728Y-116431271D01*
X96081313Y-116460429D01*
G37*
G36*
X74491313Y-114555429D02*
G01*
X74629393Y-114612623D01*
X74753661Y-114695657D01*
X74859343Y-114801339D01*
X74942377Y-114925607D01*
X74999571Y-115063687D01*
X75028729Y-115210272D01*
X75028729Y-115359728D01*
X74999571Y-115506313D01*
X74942377Y-115644393D01*
X74859343Y-115768661D01*
X74753661Y-115874343D01*
X74629393Y-115957377D01*
X74491313Y-116014571D01*
X74344728Y-116043729D01*
X74195272Y-116043729D01*
X74048687Y-116014571D01*
X73910607Y-115957377D01*
X73786339Y-115874343D01*
X73680657Y-115768661D01*
X73597623Y-115644393D01*
X73540429Y-115506313D01*
X73511271Y-115359728D01*
X73511271Y-115210272D01*
X73540429Y-115063687D01*
X73597623Y-114925607D01*
X73680657Y-114801339D01*
X73786339Y-114695657D01*
X73910607Y-114612623D01*
X74048687Y-114555429D01*
X74195272Y-114526271D01*
X74344728Y-114526271D01*
X74491313Y-114555429D01*
G37*
G36*
X77031313Y-114555429D02*
G01*
X77169393Y-114612623D01*
X77293661Y-114695657D01*
X77399343Y-114801339D01*
X77482377Y-114925607D01*
X77539571Y-115063687D01*
X77568729Y-115210272D01*
X77568729Y-115359728D01*
X77539571Y-115506313D01*
X77482377Y-115644393D01*
X77399343Y-115768661D01*
X77293661Y-115874343D01*
X77169393Y-115957377D01*
X77031313Y-116014571D01*
X76884728Y-116043729D01*
X76735272Y-116043729D01*
X76588687Y-116014571D01*
X76450607Y-115957377D01*
X76326339Y-115874343D01*
X76220657Y-115768661D01*
X76137623Y-115644393D01*
X76080429Y-115506313D01*
X76051271Y-115359728D01*
X76051271Y-115210272D01*
X76080429Y-115063687D01*
X76137623Y-114925607D01*
X76220657Y-114801339D01*
X76326339Y-114695657D01*
X76450607Y-114612623D01*
X76588687Y-114555429D01*
X76735272Y-114526271D01*
X76884728Y-114526271D01*
X77031313Y-114555429D01*
G37*
G36*
X79571313Y-114555429D02*
G01*
X79709393Y-114612623D01*
X79833661Y-114695657D01*
X79939343Y-114801339D01*
X80022377Y-114925607D01*
X80079571Y-115063687D01*
X80108729Y-115210272D01*
X80108729Y-115359728D01*
X80079571Y-115506313D01*
X80022377Y-115644393D01*
X79939343Y-115768661D01*
X79833661Y-115874343D01*
X79709393Y-115957377D01*
X79571313Y-116014571D01*
X79424728Y-116043729D01*
X79275272Y-116043729D01*
X79128687Y-116014571D01*
X78990607Y-115957377D01*
X78866339Y-115874343D01*
X78760657Y-115768661D01*
X78677623Y-115644393D01*
X78620429Y-115506313D01*
X78591271Y-115359728D01*
X78591271Y-115210272D01*
X78620429Y-115063687D01*
X78677623Y-114925607D01*
X78760657Y-114801339D01*
X78866339Y-114695657D01*
X78990607Y-114612623D01*
X79128687Y-114555429D01*
X79275272Y-114526271D01*
X79424728Y-114526271D01*
X79571313Y-114555429D01*
G37*
G36*
X82111313Y-114555429D02*
G01*
X82249393Y-114612623D01*
X82373661Y-114695657D01*
X82479343Y-114801339D01*
X82562377Y-114925607D01*
X82619571Y-115063687D01*
X82648729Y-115210272D01*
X82648729Y-115359728D01*
X82619571Y-115506313D01*
X82562377Y-115644393D01*
X82479343Y-115768661D01*
X82373661Y-115874343D01*
X82249393Y-115957377D01*
X82111313Y-116014571D01*
X81964728Y-116043729D01*
X81815272Y-116043729D01*
X81668687Y-116014571D01*
X81530607Y-115957377D01*
X81406339Y-115874343D01*
X81300657Y-115768661D01*
X81217623Y-115644393D01*
X81160429Y-115506313D01*
X81131271Y-115359728D01*
X81131271Y-115210272D01*
X81160429Y-115063687D01*
X81217623Y-114925607D01*
X81300657Y-114801339D01*
X81406339Y-114695657D01*
X81530607Y-114612623D01*
X81668687Y-114555429D01*
X81815272Y-114526271D01*
X81964728Y-114526271D01*
X82111313Y-114555429D01*
G37*
G36*
X84651313Y-114555429D02*
G01*
X84789393Y-114612623D01*
X84913661Y-114695657D01*
X85019343Y-114801339D01*
X85102377Y-114925607D01*
X85159571Y-115063687D01*
X85188729Y-115210272D01*
X85188729Y-115359728D01*
X85159571Y-115506313D01*
X85102377Y-115644393D01*
X85019343Y-115768661D01*
X84913661Y-115874343D01*
X84789393Y-115957377D01*
X84651313Y-116014571D01*
X84504728Y-116043729D01*
X84355272Y-116043729D01*
X84208687Y-116014571D01*
X84070607Y-115957377D01*
X83946339Y-115874343D01*
X83840657Y-115768661D01*
X83757623Y-115644393D01*
X83700429Y-115506313D01*
X83671271Y-115359728D01*
X83671271Y-115210272D01*
X83700429Y-115063687D01*
X83757623Y-114925607D01*
X83840657Y-114801339D01*
X83946339Y-114695657D01*
X84070607Y-114612623D01*
X84208687Y-114555429D01*
X84355272Y-114526271D01*
X84504728Y-114526271D01*
X84651313Y-114555429D01*
G37*
G36*
X87191313Y-114555429D02*
G01*
X87329393Y-114612623D01*
X87453661Y-114695657D01*
X87559343Y-114801339D01*
X87642377Y-114925607D01*
X87699571Y-115063687D01*
X87728729Y-115210272D01*
X87728729Y-115359728D01*
X87699571Y-115506313D01*
X87642377Y-115644393D01*
X87559343Y-115768661D01*
X87453661Y-115874343D01*
X87329393Y-115957377D01*
X87191313Y-116014571D01*
X87044728Y-116043729D01*
X86895272Y-116043729D01*
X86748687Y-116014571D01*
X86610607Y-115957377D01*
X86486339Y-115874343D01*
X86380657Y-115768661D01*
X86297623Y-115644393D01*
X86240429Y-115506313D01*
X86211271Y-115359728D01*
X86211271Y-115210272D01*
X86240429Y-115063687D01*
X86297623Y-114925607D01*
X86380657Y-114801339D01*
X86486339Y-114695657D01*
X86610607Y-114612623D01*
X86748687Y-114555429D01*
X86895272Y-114526271D01*
X87044728Y-114526271D01*
X87191313Y-114555429D01*
G37*
G36*
X89731313Y-114555429D02*
G01*
X89869393Y-114612623D01*
X89993661Y-114695657D01*
X90099343Y-114801339D01*
X90182377Y-114925607D01*
X90239571Y-115063687D01*
X90268729Y-115210272D01*
X90268729Y-115359728D01*
X90239571Y-115506313D01*
X90182377Y-115644393D01*
X90099343Y-115768661D01*
X89993661Y-115874343D01*
X89869393Y-115957377D01*
X89731313Y-116014571D01*
X89584728Y-116043729D01*
X89435272Y-116043729D01*
X89288687Y-116014571D01*
X89150607Y-115957377D01*
X89026339Y-115874343D01*
X88920657Y-115768661D01*
X88837623Y-115644393D01*
X88780429Y-115506313D01*
X88751271Y-115359728D01*
X88751271Y-115210272D01*
X88780429Y-115063687D01*
X88837623Y-114925607D01*
X88920657Y-114801339D01*
X89026339Y-114695657D01*
X89150607Y-114612623D01*
X89288687Y-114555429D01*
X89435272Y-114526271D01*
X89584728Y-114526271D01*
X89731313Y-114555429D01*
G37*
G36*
X92271313Y-114555429D02*
G01*
X92409393Y-114612623D01*
X92533661Y-114695657D01*
X92639343Y-114801339D01*
X92722377Y-114925607D01*
X92779571Y-115063687D01*
X92808729Y-115210272D01*
X92808729Y-115359728D01*
X92779571Y-115506313D01*
X92722377Y-115644393D01*
X92639343Y-115768661D01*
X92533661Y-115874343D01*
X92409393Y-115957377D01*
X92271313Y-116014571D01*
X92124728Y-116043729D01*
X91975272Y-116043729D01*
X91828687Y-116014571D01*
X91690607Y-115957377D01*
X91566339Y-115874343D01*
X91460657Y-115768661D01*
X91377623Y-115644393D01*
X91320429Y-115506313D01*
X91291271Y-115359728D01*
X91291271Y-115210272D01*
X91320429Y-115063687D01*
X91377623Y-114925607D01*
X91460657Y-114801339D01*
X91566339Y-114695657D01*
X91690607Y-114612623D01*
X91828687Y-114555429D01*
X91975272Y-114526271D01*
X92124728Y-114526271D01*
X92271313Y-114555429D01*
G37*
G36*
X94811313Y-114555429D02*
G01*
X94949393Y-114612623D01*
X95073661Y-114695657D01*
X95179343Y-114801339D01*
X95262377Y-114925607D01*
X95319571Y-115063687D01*
X95348729Y-115210272D01*
X95348729Y-115359728D01*
X95319571Y-115506313D01*
X95262377Y-115644393D01*
X95179343Y-115768661D01*
X95073661Y-115874343D01*
X94949393Y-115957377D01*
X94811313Y-116014571D01*
X94664728Y-116043729D01*
X94515272Y-116043729D01*
X94368687Y-116014571D01*
X94230607Y-115957377D01*
X94106339Y-115874343D01*
X94000657Y-115768661D01*
X93917623Y-115644393D01*
X93860429Y-115506313D01*
X93831271Y-115359728D01*
X93831271Y-115210272D01*
X93860429Y-115063687D01*
X93917623Y-114925607D01*
X94000657Y-114801339D01*
X94106339Y-114695657D01*
X94230607Y-114612623D01*
X94368687Y-114555429D01*
X94515272Y-114526271D01*
X94664728Y-114526271D01*
X94811313Y-114555429D01*
G37*
G36*
X97351313Y-114555429D02*
G01*
X97489393Y-114612623D01*
X97613661Y-114695657D01*
X97719343Y-114801339D01*
X97802377Y-114925607D01*
X97859571Y-115063687D01*
X97888729Y-115210272D01*
X97888729Y-115359728D01*
X97859571Y-115506313D01*
X97802377Y-115644393D01*
X97719343Y-115768661D01*
X97613661Y-115874343D01*
X97489393Y-115957377D01*
X97351313Y-116014571D01*
X97204728Y-116043729D01*
X97055272Y-116043729D01*
X96908687Y-116014571D01*
X96770607Y-115957377D01*
X96646339Y-115874343D01*
X96540657Y-115768661D01*
X96457623Y-115644393D01*
X96400429Y-115506313D01*
X96371271Y-115359728D01*
X96371271Y-115210272D01*
X96400429Y-115063687D01*
X96457623Y-114925607D01*
X96540657Y-114801339D01*
X96646339Y-114695657D01*
X96770607Y-114612623D01*
X96908687Y-114555429D01*
X97055272Y-114526271D01*
X97204728Y-114526271D01*
X97351313Y-114555429D01*
G37*
G36*
X57142742Y-85546601D02*
G01*
X57296687Y-85610367D01*
X57435234Y-85702941D01*
X57553059Y-85820766D01*
X57645633Y-85959313D01*
X57709399Y-86113258D01*
X57741907Y-86276685D01*
X57741907Y-86443315D01*
X57709399Y-86606742D01*
X57645633Y-86760687D01*
X57553059Y-86899234D01*
X57435234Y-87017059D01*
X57296687Y-87109633D01*
X57142742Y-87173399D01*
X56979315Y-87205907D01*
X56812685Y-87205907D01*
X56649258Y-87173399D01*
X56495313Y-87109633D01*
X56356766Y-87017059D01*
X56238941Y-86899234D01*
X56146367Y-86760687D01*
X56082601Y-86606742D01*
X56050093Y-86443315D01*
X56050093Y-86276685D01*
X56082601Y-86113258D01*
X56146367Y-85959313D01*
X56238941Y-85820766D01*
X56356766Y-85702941D01*
X56495313Y-85610367D01*
X56649258Y-85546601D01*
X56812685Y-85514093D01*
X56979315Y-85514093D01*
X57142742Y-85546601D01*
G37*
G36*
X62476742Y-85546601D02*
G01*
X62630687Y-85610367D01*
X62769234Y-85702941D01*
X62887059Y-85820766D01*
X62979633Y-85959313D01*
X63043399Y-86113258D01*
X63075907Y-86276685D01*
X63075907Y-86443315D01*
X63043399Y-86606742D01*
X62979633Y-86760687D01*
X62887059Y-86899234D01*
X62769234Y-87017059D01*
X62630687Y-87109633D01*
X62476742Y-87173399D01*
X62313315Y-87205907D01*
X62146685Y-87205907D01*
X61983258Y-87173399D01*
X61829313Y-87109633D01*
X61690766Y-87017059D01*
X61572941Y-86899234D01*
X61480367Y-86760687D01*
X61416601Y-86606742D01*
X61384093Y-86443315D01*
X61384093Y-86276685D01*
X61416601Y-86113258D01*
X61480367Y-85959313D01*
X61572941Y-85820766D01*
X61690766Y-85702941D01*
X61829313Y-85610367D01*
X61983258Y-85546601D01*
X62146685Y-85514093D01*
X62313315Y-85514093D01*
X62476742Y-85546601D01*
G37*
G36*
X65016742Y-85546601D02*
G01*
X65170687Y-85610367D01*
X65309234Y-85702941D01*
X65427059Y-85820766D01*
X65519633Y-85959313D01*
X65583399Y-86113258D01*
X65615907Y-86276685D01*
X65615907Y-86443315D01*
X65583399Y-86606742D01*
X65519633Y-86760687D01*
X65427059Y-86899234D01*
X65309234Y-87017059D01*
X65170687Y-87109633D01*
X65016742Y-87173399D01*
X64853315Y-87205907D01*
X64686685Y-87205907D01*
X64523258Y-87173399D01*
X64369313Y-87109633D01*
X64230766Y-87017059D01*
X64112941Y-86899234D01*
X64020367Y-86760687D01*
X63956601Y-86606742D01*
X63924093Y-86443315D01*
X63924093Y-86276685D01*
X63956601Y-86113258D01*
X64020367Y-85959313D01*
X64112941Y-85820766D01*
X64230766Y-85702941D01*
X64369313Y-85610367D01*
X64523258Y-85546601D01*
X64686685Y-85514093D01*
X64853315Y-85514093D01*
X65016742Y-85546601D01*
G37*
G36*
X67556742Y-85546601D02*
G01*
X67710687Y-85610367D01*
X67849234Y-85702941D01*
X67967059Y-85820766D01*
X68059633Y-85959313D01*
X68123399Y-86113258D01*
X68155907Y-86276685D01*
X68155907Y-86443315D01*
X68123399Y-86606742D01*
X68059633Y-86760687D01*
X67967059Y-86899234D01*
X67849234Y-87017059D01*
X67710687Y-87109633D01*
X67556742Y-87173399D01*
X67393315Y-87205907D01*
X67226685Y-87205907D01*
X67063258Y-87173399D01*
X66909313Y-87109633D01*
X66770766Y-87017059D01*
X66652941Y-86899234D01*
X66560367Y-86760687D01*
X66496601Y-86606742D01*
X66464093Y-86443315D01*
X66464093Y-86276685D01*
X66496601Y-86113258D01*
X66560367Y-85959313D01*
X66652941Y-85820766D01*
X66770766Y-85702941D01*
X66909313Y-85610367D01*
X67063258Y-85546601D01*
X67226685Y-85514093D01*
X67393315Y-85514093D01*
X67556742Y-85546601D01*
G37*
G36*
X70096742Y-85546601D02*
G01*
X70250687Y-85610367D01*
X70389234Y-85702941D01*
X70507059Y-85820766D01*
X70599633Y-85959313D01*
X70663399Y-86113258D01*
X70695907Y-86276685D01*
X70695907Y-86443315D01*
X70663399Y-86606742D01*
X70599633Y-86760687D01*
X70507059Y-86899234D01*
X70389234Y-87017059D01*
X70250687Y-87109633D01*
X70096742Y-87173399D01*
X69933315Y-87205907D01*
X69766685Y-87205907D01*
X69603258Y-87173399D01*
X69449313Y-87109633D01*
X69310766Y-87017059D01*
X69192941Y-86899234D01*
X69100367Y-86760687D01*
X69036601Y-86606742D01*
X69004093Y-86443315D01*
X69004093Y-86276685D01*
X69036601Y-86113258D01*
X69100367Y-85959313D01*
X69192941Y-85820766D01*
X69310766Y-85702941D01*
X69449313Y-85610367D01*
X69603258Y-85546601D01*
X69766685Y-85514093D01*
X69933315Y-85514093D01*
X70096742Y-85546601D01*
G37*
G36*
X72636742Y-85546601D02*
G01*
X72790687Y-85610367D01*
X72929234Y-85702941D01*
X73047059Y-85820766D01*
X73139633Y-85959313D01*
X73203399Y-86113258D01*
X73235907Y-86276685D01*
X73235907Y-86443315D01*
X73203399Y-86606742D01*
X73139633Y-86760687D01*
X73047059Y-86899234D01*
X72929234Y-87017059D01*
X72790687Y-87109633D01*
X72636742Y-87173399D01*
X72473315Y-87205907D01*
X72306685Y-87205907D01*
X72143258Y-87173399D01*
X71989313Y-87109633D01*
X71850766Y-87017059D01*
X71732941Y-86899234D01*
X71640367Y-86760687D01*
X71576601Y-86606742D01*
X71544093Y-86443315D01*
X71544093Y-86276685D01*
X71576601Y-86113258D01*
X71640367Y-85959313D01*
X71732941Y-85820766D01*
X71850766Y-85702941D01*
X71989313Y-85610367D01*
X72143258Y-85546601D01*
X72306685Y-85514093D01*
X72473315Y-85514093D01*
X72636742Y-85546601D01*
G37*
G36*
X75176742Y-85546601D02*
G01*
X75330687Y-85610367D01*
X75469234Y-85702941D01*
X75587059Y-85820766D01*
X75679633Y-85959313D01*
X75743399Y-86113258D01*
X75775907Y-86276685D01*
X75775907Y-86443315D01*
X75743399Y-86606742D01*
X75679633Y-86760687D01*
X75587059Y-86899234D01*
X75469234Y-87017059D01*
X75330687Y-87109633D01*
X75176742Y-87173399D01*
X75013315Y-87205907D01*
X74846685Y-87205907D01*
X74683258Y-87173399D01*
X74529313Y-87109633D01*
X74390766Y-87017059D01*
X74272941Y-86899234D01*
X74180367Y-86760687D01*
X74116601Y-86606742D01*
X74084093Y-86443315D01*
X74084093Y-86276685D01*
X74116601Y-86113258D01*
X74180367Y-85959313D01*
X74272941Y-85820766D01*
X74390766Y-85702941D01*
X74529313Y-85610367D01*
X74683258Y-85546601D01*
X74846685Y-85514093D01*
X75013315Y-85514093D01*
X75176742Y-85546601D01*
G37*
G36*
X77716742Y-85546601D02*
G01*
X77870687Y-85610367D01*
X78009234Y-85702941D01*
X78127059Y-85820766D01*
X78219633Y-85959313D01*
X78283399Y-86113258D01*
X78315907Y-86276685D01*
X78315907Y-86443315D01*
X78283399Y-86606742D01*
X78219633Y-86760687D01*
X78127059Y-86899234D01*
X78009234Y-87017059D01*
X77870687Y-87109633D01*
X77716742Y-87173399D01*
X77553315Y-87205907D01*
X77386685Y-87205907D01*
X77223258Y-87173399D01*
X77069313Y-87109633D01*
X76930766Y-87017059D01*
X76812941Y-86899234D01*
X76720367Y-86760687D01*
X76656601Y-86606742D01*
X76624093Y-86443315D01*
X76624093Y-86276685D01*
X76656601Y-86113258D01*
X76720367Y-85959313D01*
X76812941Y-85820766D01*
X76930766Y-85702941D01*
X77069313Y-85610367D01*
X77223258Y-85546601D01*
X77386685Y-85514093D01*
X77553315Y-85514093D01*
X77716742Y-85546601D01*
G37*
G36*
X80256742Y-85546601D02*
G01*
X80410687Y-85610367D01*
X80549234Y-85702941D01*
X80667059Y-85820766D01*
X80759633Y-85959313D01*
X80823399Y-86113258D01*
X80855907Y-86276685D01*
X80855907Y-86443315D01*
X80823399Y-86606742D01*
X80759633Y-86760687D01*
X80667059Y-86899234D01*
X80549234Y-87017059D01*
X80410687Y-87109633D01*
X80256742Y-87173399D01*
X80093315Y-87205907D01*
X79926685Y-87205907D01*
X79763258Y-87173399D01*
X79609313Y-87109633D01*
X79470766Y-87017059D01*
X79352941Y-86899234D01*
X79260367Y-86760687D01*
X79196601Y-86606742D01*
X79164093Y-86443315D01*
X79164093Y-86276685D01*
X79196601Y-86113258D01*
X79260367Y-85959313D01*
X79352941Y-85820766D01*
X79470766Y-85702941D01*
X79609313Y-85610367D01*
X79763258Y-85546601D01*
X79926685Y-85514093D01*
X80093315Y-85514093D01*
X80256742Y-85546601D01*
G37*
G36*
X82796742Y-85546601D02*
G01*
X82950687Y-85610367D01*
X83089234Y-85702941D01*
X83207059Y-85820766D01*
X83299633Y-85959313D01*
X83363399Y-86113258D01*
X83395907Y-86276685D01*
X83395907Y-86443315D01*
X83363399Y-86606742D01*
X83299633Y-86760687D01*
X83207059Y-86899234D01*
X83089234Y-87017059D01*
X82950687Y-87109633D01*
X82796742Y-87173399D01*
X82633315Y-87205907D01*
X82466685Y-87205907D01*
X82303258Y-87173399D01*
X82149313Y-87109633D01*
X82010766Y-87017059D01*
X81892941Y-86899234D01*
X81800367Y-86760687D01*
X81736601Y-86606742D01*
X81704093Y-86443315D01*
X81704093Y-86276685D01*
X81736601Y-86113258D01*
X81800367Y-85959313D01*
X81892941Y-85820766D01*
X82010766Y-85702941D01*
X82149313Y-85610367D01*
X82303258Y-85546601D01*
X82466685Y-85514093D01*
X82633315Y-85514093D01*
X82796742Y-85546601D01*
G37*
G36*
X85336742Y-85546601D02*
G01*
X85490687Y-85610367D01*
X85629234Y-85702941D01*
X85747059Y-85820766D01*
X85839633Y-85959313D01*
X85903399Y-86113258D01*
X85935907Y-86276685D01*
X85935907Y-86443315D01*
X85903399Y-86606742D01*
X85839633Y-86760687D01*
X85747059Y-86899234D01*
X85629234Y-87017059D01*
X85490687Y-87109633D01*
X85336742Y-87173399D01*
X85173315Y-87205907D01*
X85006685Y-87205907D01*
X84843258Y-87173399D01*
X84689313Y-87109633D01*
X84550766Y-87017059D01*
X84432941Y-86899234D01*
X84340367Y-86760687D01*
X84276601Y-86606742D01*
X84244093Y-86443315D01*
X84244093Y-86276685D01*
X84276601Y-86113258D01*
X84340367Y-85959313D01*
X84432941Y-85820766D01*
X84550766Y-85702941D01*
X84689313Y-85610367D01*
X84843258Y-85546601D01*
X85006685Y-85514093D01*
X85173315Y-85514093D01*
X85336742Y-85546601D01*
G37*
G36*
X87876742Y-85546601D02*
G01*
X88030687Y-85610367D01*
X88169234Y-85702941D01*
X88287059Y-85820766D01*
X88379633Y-85959313D01*
X88443399Y-86113258D01*
X88475907Y-86276685D01*
X88475907Y-86443315D01*
X88443399Y-86606742D01*
X88379633Y-86760687D01*
X88287059Y-86899234D01*
X88169234Y-87017059D01*
X88030687Y-87109633D01*
X87876742Y-87173399D01*
X87713315Y-87205907D01*
X87546685Y-87205907D01*
X87383258Y-87173399D01*
X87229313Y-87109633D01*
X87090766Y-87017059D01*
X86972941Y-86899234D01*
X86880367Y-86760687D01*
X86816601Y-86606742D01*
X86784093Y-86443315D01*
X86784093Y-86276685D01*
X86816601Y-86113258D01*
X86880367Y-85959313D01*
X86972941Y-85820766D01*
X87090766Y-85702941D01*
X87229313Y-85610367D01*
X87383258Y-85546601D01*
X87546685Y-85514093D01*
X87713315Y-85514093D01*
X87876742Y-85546601D01*
G37*
G36*
X90416742Y-85546601D02*
G01*
X90570687Y-85610367D01*
X90709234Y-85702941D01*
X90827059Y-85820766D01*
X90919633Y-85959313D01*
X90983399Y-86113258D01*
X91015907Y-86276685D01*
X91015907Y-86443315D01*
X90983399Y-86606742D01*
X90919633Y-86760687D01*
X90827059Y-86899234D01*
X90709234Y-87017059D01*
X90570687Y-87109633D01*
X90416742Y-87173399D01*
X90253315Y-87205907D01*
X90086685Y-87205907D01*
X89923258Y-87173399D01*
X89769313Y-87109633D01*
X89630766Y-87017059D01*
X89512941Y-86899234D01*
X89420367Y-86760687D01*
X89356601Y-86606742D01*
X89324093Y-86443315D01*
X89324093Y-86276685D01*
X89356601Y-86113258D01*
X89420367Y-85959313D01*
X89512941Y-85820766D01*
X89630766Y-85702941D01*
X89769313Y-85610367D01*
X89923258Y-85546601D01*
X90086685Y-85514093D01*
X90253315Y-85514093D01*
X90416742Y-85546601D01*
G37*
G36*
X92956742Y-85546601D02*
G01*
X93110687Y-85610367D01*
X93249234Y-85702941D01*
X93367059Y-85820766D01*
X93459633Y-85959313D01*
X93523399Y-86113258D01*
X93555907Y-86276685D01*
X93555907Y-86443315D01*
X93523399Y-86606742D01*
X93459633Y-86760687D01*
X93367059Y-86899234D01*
X93249234Y-87017059D01*
X93110687Y-87109633D01*
X92956742Y-87173399D01*
X92793315Y-87205907D01*
X92626685Y-87205907D01*
X92463258Y-87173399D01*
X92309313Y-87109633D01*
X92170766Y-87017059D01*
X92052941Y-86899234D01*
X91960367Y-86760687D01*
X91896601Y-86606742D01*
X91864093Y-86443315D01*
X91864093Y-86276685D01*
X91896601Y-86113258D01*
X91960367Y-85959313D01*
X92052941Y-85820766D01*
X92170766Y-85702941D01*
X92309313Y-85610367D01*
X92463258Y-85546601D01*
X92626685Y-85514093D01*
X92793315Y-85514093D01*
X92956742Y-85546601D01*
G37*
G36*
X95496742Y-85546601D02*
G01*
X95650687Y-85610367D01*
X95789234Y-85702941D01*
X95907059Y-85820766D01*
X95999633Y-85959313D01*
X96063399Y-86113258D01*
X96095907Y-86276685D01*
X96095907Y-86443315D01*
X96063399Y-86606742D01*
X95999633Y-86760687D01*
X95907059Y-86899234D01*
X95789234Y-87017059D01*
X95650687Y-87109633D01*
X95496742Y-87173399D01*
X95333315Y-87205907D01*
X95166685Y-87205907D01*
X95003258Y-87173399D01*
X94849313Y-87109633D01*
X94710766Y-87017059D01*
X94592941Y-86899234D01*
X94500367Y-86760687D01*
X94436601Y-86606742D01*
X94404093Y-86443315D01*
X94404093Y-86276685D01*
X94436601Y-86113258D01*
X94500367Y-85959313D01*
X94592941Y-85820766D01*
X94710766Y-85702941D01*
X94849313Y-85610367D01*
X95003258Y-85546601D01*
X95166685Y-85514093D01*
X95333315Y-85514093D01*
X95496742Y-85546601D01*
G37*
G36*
X98036742Y-85546601D02*
G01*
X98190687Y-85610367D01*
X98329234Y-85702941D01*
X98447059Y-85820766D01*
X98539633Y-85959313D01*
X98603399Y-86113258D01*
X98635907Y-86276685D01*
X98635907Y-86443315D01*
X98603399Y-86606742D01*
X98539633Y-86760687D01*
X98447059Y-86899234D01*
X98329234Y-87017059D01*
X98190687Y-87109633D01*
X98036742Y-87173399D01*
X97873315Y-87205907D01*
X97706685Y-87205907D01*
X97543258Y-87173399D01*
X97389313Y-87109633D01*
X97250766Y-87017059D01*
X97132941Y-86899234D01*
X97040367Y-86760687D01*
X96976601Y-86606742D01*
X96944093Y-86443315D01*
X96944093Y-86276685D01*
X96976601Y-86113258D01*
X97040367Y-85959313D01*
X97132941Y-85820766D01*
X97250766Y-85702941D01*
X97389313Y-85610367D01*
X97543258Y-85546601D01*
X97706685Y-85514093D01*
X97873315Y-85514093D01*
X98036742Y-85546601D01*
G37*
G36*
X100576742Y-85546601D02*
G01*
X100730687Y-85610367D01*
X100869234Y-85702941D01*
X100987059Y-85820766D01*
X101079633Y-85959313D01*
X101143399Y-86113258D01*
X101175907Y-86276685D01*
X101175907Y-86443315D01*
X101143399Y-86606742D01*
X101079633Y-86760687D01*
X100987059Y-86899234D01*
X100869234Y-87017059D01*
X100730687Y-87109633D01*
X100576742Y-87173399D01*
X100413315Y-87205907D01*
X100246685Y-87205907D01*
X100083258Y-87173399D01*
X99929313Y-87109633D01*
X99790766Y-87017059D01*
X99672941Y-86899234D01*
X99580367Y-86760687D01*
X99516601Y-86606742D01*
X99484093Y-86443315D01*
X99484093Y-86276685D01*
X99516601Y-86113258D01*
X99580367Y-85959313D01*
X99672941Y-85820766D01*
X99790766Y-85702941D01*
X99929313Y-85610367D01*
X100083258Y-85546601D01*
X100246685Y-85514093D01*
X100413315Y-85514093D01*
X100576742Y-85546601D01*
G37*
G36*
X103116742Y-85546601D02*
G01*
X103270687Y-85610367D01*
X103409234Y-85702941D01*
X103527059Y-85820766D01*
X103619633Y-85959313D01*
X103683399Y-86113258D01*
X103715907Y-86276685D01*
X103715907Y-86443315D01*
X103683399Y-86606742D01*
X103619633Y-86760687D01*
X103527059Y-86899234D01*
X103409234Y-87017059D01*
X103270687Y-87109633D01*
X103116742Y-87173399D01*
X102953315Y-87205907D01*
X102786685Y-87205907D01*
X102623258Y-87173399D01*
X102469313Y-87109633D01*
X102330766Y-87017059D01*
X102212941Y-86899234D01*
X102120367Y-86760687D01*
X102056601Y-86606742D01*
X102024093Y-86443315D01*
X102024093Y-86276685D01*
X102056601Y-86113258D01*
X102120367Y-85959313D01*
X102212941Y-85820766D01*
X102330766Y-85702941D01*
X102469313Y-85610367D01*
X102623258Y-85546601D01*
X102786685Y-85514093D01*
X102953315Y-85514093D01*
X103116742Y-85546601D01*
G37*
G36*
X105656742Y-85546601D02*
G01*
X105810687Y-85610367D01*
X105949234Y-85702941D01*
X106067059Y-85820766D01*
X106159633Y-85959313D01*
X106223399Y-86113258D01*
X106255907Y-86276685D01*
X106255907Y-86443315D01*
X106223399Y-86606742D01*
X106159633Y-86760687D01*
X106067059Y-86899234D01*
X105949234Y-87017059D01*
X105810687Y-87109633D01*
X105656742Y-87173399D01*
X105493315Y-87205907D01*
X105326685Y-87205907D01*
X105163258Y-87173399D01*
X105009313Y-87109633D01*
X104870766Y-87017059D01*
X104752941Y-86899234D01*
X104660367Y-86760687D01*
X104596601Y-86606742D01*
X104564093Y-86443315D01*
X104564093Y-86276685D01*
X104596601Y-86113258D01*
X104660367Y-85959313D01*
X104752941Y-85820766D01*
X104870766Y-85702941D01*
X105009313Y-85610367D01*
X105163258Y-85546601D01*
X105326685Y-85514093D01*
X105493315Y-85514093D01*
X105656742Y-85546601D01*
G37*
G36*
X108196742Y-85546601D02*
G01*
X108350687Y-85610367D01*
X108489234Y-85702941D01*
X108607059Y-85820766D01*
X108699633Y-85959313D01*
X108763399Y-86113258D01*
X108795907Y-86276685D01*
X108795907Y-86443315D01*
X108763399Y-86606742D01*
X108699633Y-86760687D01*
X108607059Y-86899234D01*
X108489234Y-87017059D01*
X108350687Y-87109633D01*
X108196742Y-87173399D01*
X108033315Y-87205907D01*
X107866685Y-87205907D01*
X107703258Y-87173399D01*
X107549313Y-87109633D01*
X107410766Y-87017059D01*
X107292941Y-86899234D01*
X107200367Y-86760687D01*
X107136601Y-86606742D01*
X107104093Y-86443315D01*
X107104093Y-86276685D01*
X107136601Y-86113258D01*
X107200367Y-85959313D01*
X107292941Y-85820766D01*
X107410766Y-85702941D01*
X107549313Y-85610367D01*
X107703258Y-85546601D01*
X107866685Y-85514093D01*
X108033315Y-85514093D01*
X108196742Y-85546601D01*
G37*
G36*
X110736742Y-85546601D02*
G01*
X110890687Y-85610367D01*
X111029234Y-85702941D01*
X111147059Y-85820766D01*
X111239633Y-85959313D01*
X111303399Y-86113258D01*
X111335907Y-86276685D01*
X111335907Y-86443315D01*
X111303399Y-86606742D01*
X111239633Y-86760687D01*
X111147059Y-86899234D01*
X111029234Y-87017059D01*
X110890687Y-87109633D01*
X110736742Y-87173399D01*
X110573315Y-87205907D01*
X110406685Y-87205907D01*
X110243258Y-87173399D01*
X110089313Y-87109633D01*
X109950766Y-87017059D01*
X109832941Y-86899234D01*
X109740367Y-86760687D01*
X109676601Y-86606742D01*
X109644093Y-86443315D01*
X109644093Y-86276685D01*
X109676601Y-86113258D01*
X109740367Y-85959313D01*
X109832941Y-85820766D01*
X109950766Y-85702941D01*
X110089313Y-85610367D01*
X110243258Y-85546601D01*
X110406685Y-85514093D01*
X110573315Y-85514093D01*
X110736742Y-85546601D01*
G37*
G36*
X57746000Y-84670000D02*
G01*
X56046000Y-84670000D01*
X56046000Y-82970000D01*
X57746000Y-82970000D01*
X57746000Y-84670000D01*
G37*
G36*
X111340000Y-84670000D02*
G01*
X109640000Y-84670000D01*
X109640000Y-82970000D01*
X111340000Y-82970000D01*
X111340000Y-84670000D01*
G37*
G36*
X62476742Y-83006601D02*
G01*
X62630687Y-83070367D01*
X62769234Y-83162941D01*
X62887059Y-83280766D01*
X62979633Y-83419313D01*
X63043399Y-83573258D01*
X63075907Y-83736685D01*
X63075907Y-83903315D01*
X63043399Y-84066742D01*
X62979633Y-84220687D01*
X62887059Y-84359234D01*
X62769234Y-84477059D01*
X62630687Y-84569633D01*
X62476742Y-84633399D01*
X62313315Y-84665907D01*
X62146685Y-84665907D01*
X61983258Y-84633399D01*
X61829313Y-84569633D01*
X61690766Y-84477059D01*
X61572941Y-84359234D01*
X61480367Y-84220687D01*
X61416601Y-84066742D01*
X61384093Y-83903315D01*
X61384093Y-83736685D01*
X61416601Y-83573258D01*
X61480367Y-83419313D01*
X61572941Y-83280766D01*
X61690766Y-83162941D01*
X61829313Y-83070367D01*
X61983258Y-83006601D01*
X62146685Y-82974093D01*
X62313315Y-82974093D01*
X62476742Y-83006601D01*
G37*
G36*
X65016742Y-83006601D02*
G01*
X65170687Y-83070367D01*
X65309234Y-83162941D01*
X65427059Y-83280766D01*
X65519633Y-83419313D01*
X65583399Y-83573258D01*
X65615907Y-83736685D01*
X65615907Y-83903315D01*
X65583399Y-84066742D01*
X65519633Y-84220687D01*
X65427059Y-84359234D01*
X65309234Y-84477059D01*
X65170687Y-84569633D01*
X65016742Y-84633399D01*
X64853315Y-84665907D01*
X64686685Y-84665907D01*
X64523258Y-84633399D01*
X64369313Y-84569633D01*
X64230766Y-84477059D01*
X64112941Y-84359234D01*
X64020367Y-84220687D01*
X63956601Y-84066742D01*
X63924093Y-83903315D01*
X63924093Y-83736685D01*
X63956601Y-83573258D01*
X64020367Y-83419313D01*
X64112941Y-83280766D01*
X64230766Y-83162941D01*
X64369313Y-83070367D01*
X64523258Y-83006601D01*
X64686685Y-82974093D01*
X64853315Y-82974093D01*
X65016742Y-83006601D01*
G37*
G36*
X67556742Y-83006601D02*
G01*
X67710687Y-83070367D01*
X67849234Y-83162941D01*
X67967059Y-83280766D01*
X68059633Y-83419313D01*
X68123399Y-83573258D01*
X68155907Y-83736685D01*
X68155907Y-83903315D01*
X68123399Y-84066742D01*
X68059633Y-84220687D01*
X67967059Y-84359234D01*
X67849234Y-84477059D01*
X67710687Y-84569633D01*
X67556742Y-84633399D01*
X67393315Y-84665907D01*
X67226685Y-84665907D01*
X67063258Y-84633399D01*
X66909313Y-84569633D01*
X66770766Y-84477059D01*
X66652941Y-84359234D01*
X66560367Y-84220687D01*
X66496601Y-84066742D01*
X66464093Y-83903315D01*
X66464093Y-83736685D01*
X66496601Y-83573258D01*
X66560367Y-83419313D01*
X66652941Y-83280766D01*
X66770766Y-83162941D01*
X66909313Y-83070367D01*
X67063258Y-83006601D01*
X67226685Y-82974093D01*
X67393315Y-82974093D01*
X67556742Y-83006601D01*
G37*
G36*
X70096742Y-83006601D02*
G01*
X70250687Y-83070367D01*
X70389234Y-83162941D01*
X70507059Y-83280766D01*
X70599633Y-83419313D01*
X70663399Y-83573258D01*
X70695907Y-83736685D01*
X70695907Y-83903315D01*
X70663399Y-84066742D01*
X70599633Y-84220687D01*
X70507059Y-84359234D01*
X70389234Y-84477059D01*
X70250687Y-84569633D01*
X70096742Y-84633399D01*
X69933315Y-84665907D01*
X69766685Y-84665907D01*
X69603258Y-84633399D01*
X69449313Y-84569633D01*
X69310766Y-84477059D01*
X69192941Y-84359234D01*
X69100367Y-84220687D01*
X69036601Y-84066742D01*
X69004093Y-83903315D01*
X69004093Y-83736685D01*
X69036601Y-83573258D01*
X69100367Y-83419313D01*
X69192941Y-83280766D01*
X69310766Y-83162941D01*
X69449313Y-83070367D01*
X69603258Y-83006601D01*
X69766685Y-82974093D01*
X69933315Y-82974093D01*
X70096742Y-83006601D01*
G37*
G36*
X72636742Y-83006601D02*
G01*
X72790687Y-83070367D01*
X72929234Y-83162941D01*
X73047059Y-83280766D01*
X73139633Y-83419313D01*
X73203399Y-83573258D01*
X73235907Y-83736685D01*
X73235907Y-83903315D01*
X73203399Y-84066742D01*
X73139633Y-84220687D01*
X73047059Y-84359234D01*
X72929234Y-84477059D01*
X72790687Y-84569633D01*
X72636742Y-84633399D01*
X72473315Y-84665907D01*
X72306685Y-84665907D01*
X72143258Y-84633399D01*
X71989313Y-84569633D01*
X71850766Y-84477059D01*
X71732941Y-84359234D01*
X71640367Y-84220687D01*
X71576601Y-84066742D01*
X71544093Y-83903315D01*
X71544093Y-83736685D01*
X71576601Y-83573258D01*
X71640367Y-83419313D01*
X71732941Y-83280766D01*
X71850766Y-83162941D01*
X71989313Y-83070367D01*
X72143258Y-83006601D01*
X72306685Y-82974093D01*
X72473315Y-82974093D01*
X72636742Y-83006601D01*
G37*
G36*
X75176742Y-83006601D02*
G01*
X75330687Y-83070367D01*
X75469234Y-83162941D01*
X75587059Y-83280766D01*
X75679633Y-83419313D01*
X75743399Y-83573258D01*
X75775907Y-83736685D01*
X75775907Y-83903315D01*
X75743399Y-84066742D01*
X75679633Y-84220687D01*
X75587059Y-84359234D01*
X75469234Y-84477059D01*
X75330687Y-84569633D01*
X75176742Y-84633399D01*
X75013315Y-84665907D01*
X74846685Y-84665907D01*
X74683258Y-84633399D01*
X74529313Y-84569633D01*
X74390766Y-84477059D01*
X74272941Y-84359234D01*
X74180367Y-84220687D01*
X74116601Y-84066742D01*
X74084093Y-83903315D01*
X74084093Y-83736685D01*
X74116601Y-83573258D01*
X74180367Y-83419313D01*
X74272941Y-83280766D01*
X74390766Y-83162941D01*
X74529313Y-83070367D01*
X74683258Y-83006601D01*
X74846685Y-82974093D01*
X75013315Y-82974093D01*
X75176742Y-83006601D01*
G37*
G36*
X77716742Y-83006601D02*
G01*
X77870687Y-83070367D01*
X78009234Y-83162941D01*
X78127059Y-83280766D01*
X78219633Y-83419313D01*
X78283399Y-83573258D01*
X78315907Y-83736685D01*
X78315907Y-83903315D01*
X78283399Y-84066742D01*
X78219633Y-84220687D01*
X78127059Y-84359234D01*
X78009234Y-84477059D01*
X77870687Y-84569633D01*
X77716742Y-84633399D01*
X77553315Y-84665907D01*
X77386685Y-84665907D01*
X77223258Y-84633399D01*
X77069313Y-84569633D01*
X76930766Y-84477059D01*
X76812941Y-84359234D01*
X76720367Y-84220687D01*
X76656601Y-84066742D01*
X76624093Y-83903315D01*
X76624093Y-83736685D01*
X76656601Y-83573258D01*
X76720367Y-83419313D01*
X76812941Y-83280766D01*
X76930766Y-83162941D01*
X77069313Y-83070367D01*
X77223258Y-83006601D01*
X77386685Y-82974093D01*
X77553315Y-82974093D01*
X77716742Y-83006601D01*
G37*
G36*
X80256742Y-83006601D02*
G01*
X80410687Y-83070367D01*
X80549234Y-83162941D01*
X80667059Y-83280766D01*
X80759633Y-83419313D01*
X80823399Y-83573258D01*
X80855907Y-83736685D01*
X80855907Y-83903315D01*
X80823399Y-84066742D01*
X80759633Y-84220687D01*
X80667059Y-84359234D01*
X80549234Y-84477059D01*
X80410687Y-84569633D01*
X80256742Y-84633399D01*
X80093315Y-84665907D01*
X79926685Y-84665907D01*
X79763258Y-84633399D01*
X79609313Y-84569633D01*
X79470766Y-84477059D01*
X79352941Y-84359234D01*
X79260367Y-84220687D01*
X79196601Y-84066742D01*
X79164093Y-83903315D01*
X79164093Y-83736685D01*
X79196601Y-83573258D01*
X79260367Y-83419313D01*
X79352941Y-83280766D01*
X79470766Y-83162941D01*
X79609313Y-83070367D01*
X79763258Y-83006601D01*
X79926685Y-82974093D01*
X80093315Y-82974093D01*
X80256742Y-83006601D01*
G37*
G36*
X82796742Y-83006601D02*
G01*
X82950687Y-83070367D01*
X83089234Y-83162941D01*
X83207059Y-83280766D01*
X83299633Y-83419313D01*
X83363399Y-83573258D01*
X83395907Y-83736685D01*
X83395907Y-83903315D01*
X83363399Y-84066742D01*
X83299633Y-84220687D01*
X83207059Y-84359234D01*
X83089234Y-84477059D01*
X82950687Y-84569633D01*
X82796742Y-84633399D01*
X82633315Y-84665907D01*
X82466685Y-84665907D01*
X82303258Y-84633399D01*
X82149313Y-84569633D01*
X82010766Y-84477059D01*
X81892941Y-84359234D01*
X81800367Y-84220687D01*
X81736601Y-84066742D01*
X81704093Y-83903315D01*
X81704093Y-83736685D01*
X81736601Y-83573258D01*
X81800367Y-83419313D01*
X81892941Y-83280766D01*
X82010766Y-83162941D01*
X82149313Y-83070367D01*
X82303258Y-83006601D01*
X82466685Y-82974093D01*
X82633315Y-82974093D01*
X82796742Y-83006601D01*
G37*
G36*
X85336742Y-83006601D02*
G01*
X85490687Y-83070367D01*
X85629234Y-83162941D01*
X85747059Y-83280766D01*
X85839633Y-83419313D01*
X85903399Y-83573258D01*
X85935907Y-83736685D01*
X85935907Y-83903315D01*
X85903399Y-84066742D01*
X85839633Y-84220687D01*
X85747059Y-84359234D01*
X85629234Y-84477059D01*
X85490687Y-84569633D01*
X85336742Y-84633399D01*
X85173315Y-84665907D01*
X85006685Y-84665907D01*
X84843258Y-84633399D01*
X84689313Y-84569633D01*
X84550766Y-84477059D01*
X84432941Y-84359234D01*
X84340367Y-84220687D01*
X84276601Y-84066742D01*
X84244093Y-83903315D01*
X84244093Y-83736685D01*
X84276601Y-83573258D01*
X84340367Y-83419313D01*
X84432941Y-83280766D01*
X84550766Y-83162941D01*
X84689313Y-83070367D01*
X84843258Y-83006601D01*
X85006685Y-82974093D01*
X85173315Y-82974093D01*
X85336742Y-83006601D01*
G37*
G36*
X87876742Y-83006601D02*
G01*
X88030687Y-83070367D01*
X88169234Y-83162941D01*
X88287059Y-83280766D01*
X88379633Y-83419313D01*
X88443399Y-83573258D01*
X88475907Y-83736685D01*
X88475907Y-83903315D01*
X88443399Y-84066742D01*
X88379633Y-84220687D01*
X88287059Y-84359234D01*
X88169234Y-84477059D01*
X88030687Y-84569633D01*
X87876742Y-84633399D01*
X87713315Y-84665907D01*
X87546685Y-84665907D01*
X87383258Y-84633399D01*
X87229313Y-84569633D01*
X87090766Y-84477059D01*
X86972941Y-84359234D01*
X86880367Y-84220687D01*
X86816601Y-84066742D01*
X86784093Y-83903315D01*
X86784093Y-83736685D01*
X86816601Y-83573258D01*
X86880367Y-83419313D01*
X86972941Y-83280766D01*
X87090766Y-83162941D01*
X87229313Y-83070367D01*
X87383258Y-83006601D01*
X87546685Y-82974093D01*
X87713315Y-82974093D01*
X87876742Y-83006601D01*
G37*
G36*
X90416742Y-83006601D02*
G01*
X90570687Y-83070367D01*
X90709234Y-83162941D01*
X90827059Y-83280766D01*
X90919633Y-83419313D01*
X90983399Y-83573258D01*
X91015907Y-83736685D01*
X91015907Y-83903315D01*
X90983399Y-84066742D01*
X90919633Y-84220687D01*
X90827059Y-84359234D01*
X90709234Y-84477059D01*
X90570687Y-84569633D01*
X90416742Y-84633399D01*
X90253315Y-84665907D01*
X90086685Y-84665907D01*
X89923258Y-84633399D01*
X89769313Y-84569633D01*
X89630766Y-84477059D01*
X89512941Y-84359234D01*
X89420367Y-84220687D01*
X89356601Y-84066742D01*
X89324093Y-83903315D01*
X89324093Y-83736685D01*
X89356601Y-83573258D01*
X89420367Y-83419313D01*
X89512941Y-83280766D01*
X89630766Y-83162941D01*
X89769313Y-83070367D01*
X89923258Y-83006601D01*
X90086685Y-82974093D01*
X90253315Y-82974093D01*
X90416742Y-83006601D01*
G37*
G36*
X92956742Y-83006601D02*
G01*
X93110687Y-83070367D01*
X93249234Y-83162941D01*
X93367059Y-83280766D01*
X93459633Y-83419313D01*
X93523399Y-83573258D01*
X93555907Y-83736685D01*
X93555907Y-83903315D01*
X93523399Y-84066742D01*
X93459633Y-84220687D01*
X93367059Y-84359234D01*
X93249234Y-84477059D01*
X93110687Y-84569633D01*
X92956742Y-84633399D01*
X92793315Y-84665907D01*
X92626685Y-84665907D01*
X92463258Y-84633399D01*
X92309313Y-84569633D01*
X92170766Y-84477059D01*
X92052941Y-84359234D01*
X91960367Y-84220687D01*
X91896601Y-84066742D01*
X91864093Y-83903315D01*
X91864093Y-83736685D01*
X91896601Y-83573258D01*
X91960367Y-83419313D01*
X92052941Y-83280766D01*
X92170766Y-83162941D01*
X92309313Y-83070367D01*
X92463258Y-83006601D01*
X92626685Y-82974093D01*
X92793315Y-82974093D01*
X92956742Y-83006601D01*
G37*
G36*
X95496742Y-83006601D02*
G01*
X95650687Y-83070367D01*
X95789234Y-83162941D01*
X95907059Y-83280766D01*
X95999633Y-83419313D01*
X96063399Y-83573258D01*
X96095907Y-83736685D01*
X96095907Y-83903315D01*
X96063399Y-84066742D01*
X95999633Y-84220687D01*
X95907059Y-84359234D01*
X95789234Y-84477059D01*
X95650687Y-84569633D01*
X95496742Y-84633399D01*
X95333315Y-84665907D01*
X95166685Y-84665907D01*
X95003258Y-84633399D01*
X94849313Y-84569633D01*
X94710766Y-84477059D01*
X94592941Y-84359234D01*
X94500367Y-84220687D01*
X94436601Y-84066742D01*
X94404093Y-83903315D01*
X94404093Y-83736685D01*
X94436601Y-83573258D01*
X94500367Y-83419313D01*
X94592941Y-83280766D01*
X94710766Y-83162941D01*
X94849313Y-83070367D01*
X95003258Y-83006601D01*
X95166685Y-82974093D01*
X95333315Y-82974093D01*
X95496742Y-83006601D01*
G37*
G36*
X98036742Y-83006601D02*
G01*
X98190687Y-83070367D01*
X98329234Y-83162941D01*
X98447059Y-83280766D01*
X98539633Y-83419313D01*
X98603399Y-83573258D01*
X98635907Y-83736685D01*
X98635907Y-83903315D01*
X98603399Y-84066742D01*
X98539633Y-84220687D01*
X98447059Y-84359234D01*
X98329234Y-84477059D01*
X98190687Y-84569633D01*
X98036742Y-84633399D01*
X97873315Y-84665907D01*
X97706685Y-84665907D01*
X97543258Y-84633399D01*
X97389313Y-84569633D01*
X97250766Y-84477059D01*
X97132941Y-84359234D01*
X97040367Y-84220687D01*
X96976601Y-84066742D01*
X96944093Y-83903315D01*
X96944093Y-83736685D01*
X96976601Y-83573258D01*
X97040367Y-83419313D01*
X97132941Y-83280766D01*
X97250766Y-83162941D01*
X97389313Y-83070367D01*
X97543258Y-83006601D01*
X97706685Y-82974093D01*
X97873315Y-82974093D01*
X98036742Y-83006601D01*
G37*
G36*
X100576742Y-83006601D02*
G01*
X100730687Y-83070367D01*
X100869234Y-83162941D01*
X100987059Y-83280766D01*
X101079633Y-83419313D01*
X101143399Y-83573258D01*
X101175907Y-83736685D01*
X101175907Y-83903315D01*
X101143399Y-84066742D01*
X101079633Y-84220687D01*
X100987059Y-84359234D01*
X100869234Y-84477059D01*
X100730687Y-84569633D01*
X100576742Y-84633399D01*
X100413315Y-84665907D01*
X100246685Y-84665907D01*
X100083258Y-84633399D01*
X99929313Y-84569633D01*
X99790766Y-84477059D01*
X99672941Y-84359234D01*
X99580367Y-84220687D01*
X99516601Y-84066742D01*
X99484093Y-83903315D01*
X99484093Y-83736685D01*
X99516601Y-83573258D01*
X99580367Y-83419313D01*
X99672941Y-83280766D01*
X99790766Y-83162941D01*
X99929313Y-83070367D01*
X100083258Y-83006601D01*
X100246685Y-82974093D01*
X100413315Y-82974093D01*
X100576742Y-83006601D01*
G37*
G36*
X103116742Y-83006601D02*
G01*
X103270687Y-83070367D01*
X103409234Y-83162941D01*
X103527059Y-83280766D01*
X103619633Y-83419313D01*
X103683399Y-83573258D01*
X103715907Y-83736685D01*
X103715907Y-83903315D01*
X103683399Y-84066742D01*
X103619633Y-84220687D01*
X103527059Y-84359234D01*
X103409234Y-84477059D01*
X103270687Y-84569633D01*
X103116742Y-84633399D01*
X102953315Y-84665907D01*
X102786685Y-84665907D01*
X102623258Y-84633399D01*
X102469313Y-84569633D01*
X102330766Y-84477059D01*
X102212941Y-84359234D01*
X102120367Y-84220687D01*
X102056601Y-84066742D01*
X102024093Y-83903315D01*
X102024093Y-83736685D01*
X102056601Y-83573258D01*
X102120367Y-83419313D01*
X102212941Y-83280766D01*
X102330766Y-83162941D01*
X102469313Y-83070367D01*
X102623258Y-83006601D01*
X102786685Y-82974093D01*
X102953315Y-82974093D01*
X103116742Y-83006601D01*
G37*
G36*
X105656742Y-83006601D02*
G01*
X105810687Y-83070367D01*
X105949234Y-83162941D01*
X106067059Y-83280766D01*
X106159633Y-83419313D01*
X106223399Y-83573258D01*
X106255907Y-83736685D01*
X106255907Y-83903315D01*
X106223399Y-84066742D01*
X106159633Y-84220687D01*
X106067059Y-84359234D01*
X105949234Y-84477059D01*
X105810687Y-84569633D01*
X105656742Y-84633399D01*
X105493315Y-84665907D01*
X105326685Y-84665907D01*
X105163258Y-84633399D01*
X105009313Y-84569633D01*
X104870766Y-84477059D01*
X104752941Y-84359234D01*
X104660367Y-84220687D01*
X104596601Y-84066742D01*
X104564093Y-83903315D01*
X104564093Y-83736685D01*
X104596601Y-83573258D01*
X104660367Y-83419313D01*
X104752941Y-83280766D01*
X104870766Y-83162941D01*
X105009313Y-83070367D01*
X105163258Y-83006601D01*
X105326685Y-82974093D01*
X105493315Y-82974093D01*
X105656742Y-83006601D01*
G37*
G36*
X108196742Y-83006601D02*
G01*
X108350687Y-83070367D01*
X108489234Y-83162941D01*
X108607059Y-83280766D01*
X108699633Y-83419313D01*
X108763399Y-83573258D01*
X108795907Y-83736685D01*
X108795907Y-83903315D01*
X108763399Y-84066742D01*
X108699633Y-84220687D01*
X108607059Y-84359234D01*
X108489234Y-84477059D01*
X108350687Y-84569633D01*
X108196742Y-84633399D01*
X108033315Y-84665907D01*
X107866685Y-84665907D01*
X107703258Y-84633399D01*
X107549313Y-84569633D01*
X107410766Y-84477059D01*
X107292941Y-84359234D01*
X107200367Y-84220687D01*
X107136601Y-84066742D01*
X107104093Y-83903315D01*
X107104093Y-83736685D01*
X107136601Y-83573258D01*
X107200367Y-83419313D01*
X107292941Y-83280766D01*
X107410766Y-83162941D01*
X107549313Y-83070367D01*
X107703258Y-83006601D01*
X107866685Y-82974093D01*
X108033315Y-82974093D01*
X108196742Y-83006601D01*
G37*
G36*
X55350168Y-53541445D02*
G01*
X55574025Y-53614181D01*
X55783748Y-53721040D01*
X55974172Y-53859391D01*
X56140609Y-54025828D01*
X56278960Y-54216252D01*
X56385819Y-54425975D01*
X56458555Y-54649832D01*
X56495376Y-54882311D01*
X56495376Y-55117689D01*
X56458555Y-55350168D01*
X56385819Y-55574025D01*
X56278960Y-55783748D01*
X56140609Y-55974172D01*
X55974172Y-56140609D01*
X55783748Y-56278960D01*
X55574025Y-56385819D01*
X55350168Y-56458555D01*
X55117689Y-56495376D01*
X54882311Y-56495376D01*
X54649832Y-56458555D01*
X54425975Y-56385819D01*
X54216252Y-56278960D01*
X54025828Y-56140609D01*
X53859391Y-55974172D01*
X53721040Y-55783748D01*
X53614181Y-55574025D01*
X53541445Y-55350168D01*
X53504624Y-55117689D01*
X53504624Y-54882311D01*
X53541445Y-54649832D01*
X53614181Y-54425975D01*
X53721040Y-54216252D01*
X53859391Y-54025828D01*
X54025828Y-53859391D01*
X54216252Y-53721040D01*
X54425975Y-53614181D01*
X54649832Y-53541445D01*
X54882311Y-53504624D01*
X55117689Y-53504624D01*
X55350168Y-53541445D01*
G37*
G36*
X115350168Y-53541445D02*
G01*
X115574025Y-53614181D01*
X115783748Y-53721040D01*
X115974172Y-53859391D01*
X116140609Y-54025828D01*
X116278960Y-54216252D01*
X116385819Y-54425975D01*
X116458555Y-54649832D01*
X116495376Y-54882311D01*
X116495376Y-55117689D01*
X116458555Y-55350168D01*
X116385819Y-55574025D01*
X116278960Y-55783748D01*
X116140609Y-55974172D01*
X115974172Y-56140609D01*
X115783748Y-56278960D01*
X115574025Y-56385819D01*
X115350168Y-56458555D01*
X115117689Y-56495376D01*
X114882311Y-56495376D01*
X114649832Y-56458555D01*
X114425975Y-56385819D01*
X114216252Y-56278960D01*
X114025828Y-56140609D01*
X113859391Y-55974172D01*
X113721040Y-55783748D01*
X113614181Y-55574025D01*
X113541445Y-55350168D01*
X113504624Y-55117689D01*
X113504624Y-54882311D01*
X113541445Y-54649832D01*
X113614181Y-54425975D01*
X113721040Y-54216252D01*
X113859391Y-54025828D01*
X114025828Y-53859391D01*
X114216252Y-53721040D01*
X114425975Y-53614181D01*
X114649832Y-53541445D01*
X114882311Y-53504624D01*
X115117689Y-53504624D01*
X115350168Y-53541445D01*
G37*
M02*
