M48
; DRILL file {KiCad 9.0.7-9.0.7~ubuntu22.04.1} date 2026-04-30T10:19:36-0500
; FORMAT={-:-/ absolute / metric / decimal}
; #@! TF.CreationDate,2026-04-30T10:19:36-05:00
; #@! TF.GenerationSoftware,Kicad,Pcbnew,9.0.7-9.0.7~ubuntu22.04.1
; #@! TF.FileFunction,Plated,1,2,PTH
FMAT,2
METRIC
; #@! TA.AperFunction,Plated,PTH,ComponentDrill
T1C0.813
; #@! TA.AperFunction,Plated,PTH,ComponentDrill
T2C1.000
; #@! TA.AperFunction,Plated,PTH,ComponentDrill
T3C2.794
%
G90
G05
T1
X73.0Y-117.19
X73.0Y-121.0
X74.27Y-115.285
X74.27Y-119.095
X75.54Y-117.19
X75.54Y-121.0
X76.81Y-115.285
X76.81Y-119.095
X78.08Y-117.19
X78.08Y-121.0
X79.35Y-115.285
X79.35Y-119.095
X80.62Y-117.19
X80.62Y-121.0
X81.89Y-115.285
X81.89Y-119.095
X83.16Y-117.19
X83.16Y-121.0
X84.43Y-115.285
X84.43Y-119.095
X85.7Y-117.19
X85.7Y-121.0
X86.97Y-115.285
X86.97Y-119.095
X88.24Y-117.19
X88.24Y-121.0
X89.51Y-115.285
X89.51Y-119.095
X90.78Y-117.19
X90.78Y-121.0
X92.05Y-115.285
X92.05Y-119.095
X93.32Y-117.19
X93.32Y-121.0
X94.59Y-115.285
X94.59Y-119.095
X95.86Y-117.19
X95.86Y-121.0
X97.13Y-115.285
X97.13Y-119.095
T2
X56.896Y-83.82
X56.896Y-86.36
X62.23Y-83.82
X62.23Y-86.36
X64.77Y-83.82
X64.77Y-86.36
X67.31Y-83.82
X67.31Y-86.36
X69.85Y-83.82
X69.85Y-86.36
X72.39Y-83.82
X72.39Y-86.36
X74.93Y-83.82
X74.93Y-86.36
X77.47Y-83.82
X77.47Y-86.36
X80.01Y-83.82
X80.01Y-86.36
X82.55Y-83.82
X82.55Y-86.36
X85.09Y-83.82
X85.09Y-86.36
X87.63Y-83.82
X87.63Y-86.36
X90.17Y-83.82
X90.17Y-86.36
X92.71Y-83.82
X92.71Y-86.36
X95.25Y-83.82
X95.25Y-86.36
X97.79Y-83.82
X97.79Y-86.36
X100.33Y-83.82
X100.33Y-86.36
X102.87Y-83.82
X102.87Y-86.36
X105.41Y-83.82
X105.41Y-86.36
X107.95Y-83.82
X107.95Y-86.36
X110.49Y-83.82
X110.49Y-86.36
T3
X64.999Y-117.19
X105.131Y-117.19
M30
